<svg xmlns="http://www.w3.org/2000/svg" width="96" height="96" viewBox="0 0 72 72"><defs><style>.prefix__cls-1{fill:#b3b3b3}</style></defs><path class="prefix__cls-1" d="M36 12.39c7.58 0 8.48 0 11.48.17a15.41 15.41 0 015.27 1A8.88 8.88 0 0156 15.7a9.08 9.08 0 012.14 3.3 16.22 16.22 0 011 5.35c.13 3 .16 3.95.16 11.64s0 8.6-.16 11.64a16.22 16.22 0 01-1 5.35A9.08 9.08 0 0156 56.3a8.88 8.88 0 01-3.27 2.15 15.41 15.41 0 01-5.27 1c-3 .14-3.9.17-11.48.17s-8.48 0-11.48-.17a15.41 15.41 0 01-5.27-1A8.88 8.88 0 0116 56.3a9.08 9.08 0 01-2.14-3.3 16.22 16.22 0 01-1-5.35c-.13-3-.16-4-.16-11.64s0-8.6.16-11.64a16.22 16.22 0 011-5.35A9.08 9.08 0 0116 15.7a8.88 8.88 0 013.27-2.15 15.41 15.41 0 015.27-1c3-.14 3.9-.17 11.48-.17M36 7.2c-7.71 0-8.68 0-11.71.17a20.6 20.6 0 00-6.89 1.34 13.87 13.87 0 00-5 3.32 14.21 14.21 0 00-3.28 5.1 21.59 21.59 0 00-1.32 7c-.17 3.07-.2 4.05-.2 11.87s0 8.8.17 11.87a21.59 21.59 0 001.32 7A14.21 14.21 0 0012.37 60a13.87 13.87 0 005 3.32 20.6 20.6 0 006.89 1.34c3 .14 4 .17 11.71.17s8.68 0 11.71-.17a20.6 20.6 0 006.89-1.34 13.87 13.87 0 005-3.32 14.21 14.21 0 003.28-5.1 21.59 21.59 0 001.32-7c.14-3.07.17-4 .17-11.87s0-8.8-.17-11.87a21.59 21.59 0 00-1.32-7A14.21 14.21 0 0059.63 12a13.87 13.87 0 00-5-3.32 20.6 20.6 0 00-6.89-1.34c-3-.14-4-.17-11.71-.17zm0 14.01A14.79 14.79 0 1050.58 36 14.69 14.69 0 0036 21.21zm0 24.39a9.6 9.6 0 119.47-9.6A9.54 9.54 0 0136 45.6z"/><ellipse class="prefix__cls-1" cx="51.16" cy="20.63" rx="3.41" ry="3.46"/></svg>