<svg xmlns="http://www.w3.org/2000/svg" viewBox="0 0 72 72"><path d="M26 60.7c21.7 0 33.6-18.3 33.6-34.1v-1.5c2.3-1.7 4.3-3.8 5.9-6.2-2.1 1-4.4 1.6-6.8 1.9 2.4-1.5 4.3-3.8 5.2-6.6-2.3 1.4-4.8 2.4-7.5 2.9-2.2-2.3-5.2-3.8-8.6-3.8-6.5 0-11.8 5.4-11.8 12 0 .9.1 1.8.3 2.7-9.8-.5-18.5-5.3-24.4-12.5-1 1.8-1.6 3.8-1.6 6 0 4.2 2.1 7.8 5.3 10-1.9-.1-3.8-.6-5.3-1.5v.2c0 5.8 4.1 10.7 9.5 11.8-1 .3-2 .4-3.1.4-.8 0-1.5-.1-2.2-.2 1.5 4.8 5.9 8.2 11 8.3-4.1 3.2-9.2 5.1-14.7 5.1-.9 0-1.9 0-2.8-.2 5.1 3.4 11.4 5.3 18 5.3" fill="#38a1f3"/></svg>