<svg xmlns="http://www.w3.org/2000/svg" fill="none" viewBox="0 0 24 24"><path fill="#fff" fill-rule="evenodd" d="M11.9391 1.0003a10.9782 10.9782 0 00-3.4688 21.3806c.5489.0991.7623-.2401.7623-.5298v-1.8678c-3.0494.6632-3.6974-1.4714-3.6974-1.4714-.4994-1.2655-1.2198-1.6048-1.2198-1.6048-.995-.6823.0762-.6671.0762-.6671a2.2877 2.2877 0 011.681 1.1436c.9797 1.6772 2.5692 1.1931 3.1944.911a2.3668 2.3668 0 01.6975-1.4675c-2.4357-.2783-4.9973-1.2198-4.9973-5.4243a4.2426 4.2426 0 011.1436-2.9465 3.93 3.93 0 01.1067-2.9047s.9224-.2973 3.019 1.1245a10.3985 10.3985 0 015.4966 0c2.0966-1.4218 3.0152-1.1245 3.0152-1.1245a3.941 3.941 0 01.1105 2.9046 4.2236 4.2236 0 011.1436 2.9466c0 4.2159-2.5654 5.1422-5.0126 5.4166.3812.3393.7624 1.0064.7624 2.0317v3.0114c0 .2935.1982.6366.7624.5298a10.982 10.982 0 003.5698-18.817 10.982 10.982 0 00-7.1453-2.575z" clip-rule="evenodd"/></svg>