<svg xmlns="http://www.w3.org/2000/svg" viewBox="0 0 240 240"><path fill="#84807f" d="M92.92 18.83c62.01-19.07 132.74 31.81 133.92 96.62-1.53 4.37.72 11.84-4.92 13.5 4.05-7.9 3.53-18.68-.09-26.69-.47.45-1.41 1.35-1.88 1.81.21-2.19.37-4.4.16-6.6-2.91.87-5.74 1.94-8.37 3.44-2.62 3.5-.97 7.84-.67 11.76-.71-.87-1.41-1.74-2.12-2.6.77 6.71 5.67 12.37 4.55 19.3 1.68.98 3.36 1.96 5.04 2.95.03 1.51.06 3.01.11 4.52-3.55-1.28-6.09-4.08-8.84-6.5-1.28-3-2.33-6.15-4.32-8.79 0-1.07.02-2.13.04-3.2-1.49-1.93-3.09-3.78-4.92-5.39.21-3.97-2.41-7.89.31-11.52-.53-.25-1.57-.76-2.1-1.01.8-5.54-3.08-8.21-6.46-11.59-.35.01-1.04.03-1.38.05-1.68-3.31-1-6.89-.23-10.32.47-.26 1.39-.76 1.86-1.02.03-.73.07-1.46.13-2.19.5-.25 1-.52 1.5-.81 1.08 1.21 2.54 1.82 4.14 2.01-.8-4.37-5.47-6.91-4.07-11.92.98-.53 1.98-1.06 2.97-1.59-1.32-3.07-3.89-5.27-7.09-6.22l.08-1.7c-1.88-.99-3.94-1.45-6.05-1.57 8.53-9.59-6.96-15.31-14.35-17.8-6.51-7.38-22.57-5.28-31.49-12.34-14.97-3.56-30.47-2.34-45.92-1.22.15-1.12.3-2.25.46-3.37z"/><path fill="#666261" d="M87.84 19.92c1.74-.13 3.42-.59 5.08-1.09-.16 1.12-.31 2.25-.46 3.37 15.45-1.12 30.95-2.34 45.92 1.22 8.92 7.06 24.98 4.96 31.49 12.34 7.39 2.49 22.88 8.21 14.35 17.8 2.11.12 4.17.58 6.05 1.57l-.08 1.7c3.2.95 5.77 3.15 7.09 6.22-.99.53-1.99 1.06-2.97 1.59-1.4 5.01 3.27 7.55 4.07 11.92-1.6-.19-3.06-.8-4.14-2.01-.5.29-1 .56-1.5.81-.06.73-.1 1.46-.13 2.19-.47.26-1.39.76-1.86 1.02-.77 3.43-1.45 7.01.23 10.32.34-.02 1.03-.04 1.38-.05 3.38 3.38 7.26 6.05 6.46 11.59-.58-.27-1.74-.82-2.33-1.09.04-1.83-.04-3.68-.57-5.45-.42 1.26-.83 2.53-1.23 3.8-.87-.09-1.74-.17-2.6-.25-.45.74-.89 1.48-1.33 2.22-1.09-.08-2.17-.15-3.26-.22-.59-1.85-1.18-3.69-1.74-5.54 5.41-10.16-4.37-18.3-1.22-28.43-10.55 6.68-19.9-15.35-26.95-1.21-1.65.69-3.31 1.36-4.97 2.03.79-4.81.61-8.29-3.32-11.73-8.26 1.87-11.85-5.89-2.47-7.5-3.42-11.57-19.98-18.34-30.81-12.99-4.79-4.53-13.74-4.13-15.97 2.86-2.53.53-4.97 1.43-7.03 3.03-2.17-1.42-4.41-2.74-6.67-4.02 1.02-1.2 2.1-2.37 3.22-3.49.29-5.78 6.89-4.29 10.89-4.96 3.44-6.89-7.08-2.88-10.72-3.96-.36-1.34-.86-2.64-1.9-3.61z"/><path fill="#3d3c3b" d="M50.41 41.04c10.82-9.56 23.77-16.55 37.43-21.12 1.04.97 1.54 2.27 1.9 3.61 3.64 1.08 14.16-2.93 10.72 3.96-4 .67-10.6-.82-10.89 4.96-1.12 1.12-2.2 2.29-3.22 3.49 2.26 1.28 4.5 2.6 6.67 4.02 2.06-1.6 4.5-2.5 7.03-3.03 2.23-6.99 11.18-7.39 15.97-2.86 10.83-5.35 27.39 1.42 30.81 12.99-9.38 1.61-5.79 9.37 2.47 7.5 3.93 3.44 4.11 6.92 3.32 11.73 1.66-.67 3.32-1.34 4.97-2.03 7.05-14.14 16.4 7.89 26.95 1.21-3.15 10.13 6.63 18.27 1.22 28.43.56 1.85 1.15 3.69 1.74 5.54 1.09.07 2.17.14 3.26.22.44-.74.88-1.48 1.33-2.22.86.08 1.73.16 2.6.25.4-1.27.81-2.54 1.23-3.8.53 1.77.61 3.62.57 5.45.59.27 1.75.82 2.33 1.09.53.25 1.57.76 2.1 1.01-2.72 3.63-.1 7.55-.31 11.52 1.83 1.61 3.43 3.46 4.92 5.39-.02 1.07-.04 2.13-.04 3.2 1.99 2.64 3.04 5.79 4.32 8.79-.17 5.28 4.31 8.43 7.59 11.83.39-.49 1.16-1.47 1.55-1.96.04 2.3-.29 4.59-1.01 6.78l-2.31-2.25c-1.45 3.01-2.04 6.32-2.97 9.51-11.88 2.53-9.34 18.83-21.11 22.7-.33-1.76-.63-3.51-.93-5.27 1.56-.13 3.13-.24 4.7-.36 1.02-1.33 2.06-2.64 3.07-3.98.22-1.73-.67-3.26-1.28-4.81-.47-.02-1.42-.08-1.89-.1.2-.8.39-1.59.59-2.39-3.25-.14-4.65-2.82-4.94-5.72 1.53.06 3.06.13 4.6.19-1.19-1.14-2.4-2.25-3.61-3.36l-2.74.39c.18-.44.55-1.32.74-1.76.76-.09 1.53-.18 2.3-.26-.67-1.69-1.33-3.39-1.98-5.09 1.58.16 3.15.32 4.74.47-.79-1.9-1.91-3.63-3.44-5.01 1.44-.92 2.82-1.92 4.16-2.97-2.28-2.98-6.98-3.51-8.07-7.36-.86-.82-1.72-1.64-2.59-2.45-1.19 3.45-5.08 4.9-6.1 8.38-1.73.11-3.47.18-5.2.24-.54-2.22-1.08-4.43-1.78-6.6-.39-.11-1.17-.32-1.57-.42-1.17-.19-2.35-.33-3.52-.46-.18-.88-.36-1.76-.53-2.64-1.36-.39-2.71-.78-4.06-1.17.23-2.61.12-5.23-.05-7.83-1.12.16-2.18.53-3.17 1.08.59-4.62 3.11-9.71-.03-13.97 1.2-.08 2.41-.15 3.61-.23-.01-.65-.02-1.95-.03-2.6.95-.86 1.9-1.71 2.84-2.58-2.84-.05-5.36 1.22-6.28 4.04-1.79.09-3.58.16-5.36.22-.47 1.44-.94 2.88-1.4 4.33-1.18-.5-2.36-.99-3.53-1.48-1.29.92-2.59 1.83-3.88 2.74-1.17-1.66-2.33-3.39-2.57-5.45-3.51-.21-5.19-3.41-6.18-6.36-2.17 0-4.31.37-6.35 1.12-.56-.39-1.12-.77-1.67-1.15-6.04 5.03-.01 11.31 5.41 13.33v3.73c-2.42 1.44-4.76 3.7-7.81 3.22-.92-5.04-13.6-9.84-8.91-1.96-4.09-.11-8.55.32-11.68-2.88 1.11 6.39 4.82 11.87 5.91 18.21-.87-.76-1.74-1.54-2.78-2.05.01 1.88.1 3.76.21 5.64 1.73-.04 3.46-.12 5.2-.22-.72 8.32-13.11 10.94-7.05 20.62-1.17 2.37-2.16 5.05-4.67 6.32-.39-.5-1.17-1.51-1.56-2.01-.58.42-1.17.85-1.74 1.27-1.37-.57-2.74-1.12-4.11-1.66.01 1.55.03 3.1.05 4.66l-2.24.24a63.216 63.216 0 00-4.37-4.74c-.74 1.1-1.47 2.21-2.21 3.32-.11-.45-.33-1.35-.45-1.8-.58-.08-1.75-.23-2.33-.31-1.3-2.45-2.52-4.94-3.86-7.38-.57 1.67-.94 3.39-.86 5.16-6.9-4.59-9.34 2.83-.38 2.7-.46 1.7-1.25 3.28-2.21 4.75-1.09-.28-2.17-.56-3.25-.84-.92-1.18-1.97-2.24-3.59-2.17.86 1.65 1.76 3.28 2.68 4.9-2.15-1.53-4.41-2.9-6.81-3.99a83.51 83.51 0 01-.83-6.1c.54.43 1.08.87 1.62 1.31 1.26-3.38 3.77-5.28 7.38-3.86-.36-2.14-.74-4.28-1.15-6.4-1.19-.46-2.39-.9-3.58-1.35.22 1.57.45 3.14.67 4.72-1.57-.68-3.13-1.35-4.69-2.02-1.49 3.55-4.83 6.04-5.62 9.94-1.51-3.77-5.92-5.41-6.48-9.74-7.42-2.11-6.72-13.74-.91-17.69 1.92.52 3.85 1.05 5.77 1.62 1.79-3.03 1.33-6.77 2.78-9.96 1.62.95 3.22 1.94 4.81 2.93-.36 1.68-.71 3.36-1.08 5.03 5.3-4.79 5.44 1.83 9.99 3.05 2.12-9.44-10.15-18.1-4.32-26.65.69 1.9 1.24 3.84 1.71 5.8.73-1.35 1.46-2.69 2.19-4.03 1.19-.48 2.38-.95 3.57-1.41.05-.62.16-1.86.22-2.48-2.96 3.91-5.91 1.04-6.79-2.62 2.61.86 5.34.79 7.96 0-4.46-5.3-12.28-3.61-17.34-8.4-2.58-11.5 7.93-18.06 8.95-28.95-.73-1.11-1.46-2.21-2.2-3.3-10.38.98-5.99-9.25.13-12.08l-1.76-2.08c5.42-2.46 10.55-5.29 13.14-11 1.88-.07 3.76-.12 5.64-.14.98-1.73 1.83-3.53 2.5-5.41-3.22.33-6.33 1.27-9.48 1.99a8.87 8.87 0 00-2.32-5.95c-8.78 3.71-16.01 10.89-24.83 13.89m92.03 16c.01 1.09.01 2.18.02 3.27l-3.43.51c-1.23 1.2-2.23 3.26-4.28 2.73-.18-.6-.55-1.81-.73-2.42-8.7 1.27-7.74 11.7.74 12.21-.27.28-.79.84-1.05 1.12.74 3.82-4.51 5.44-7.52 4.92-.7.5-1.4.99-2.09 1.5-1.71-.18-3.42-.36-5.13-.51.56 2.87 4.71 1.79 6.86 2.69.37 1.19.75 2.38 1.12 3.56 3.69-1.09 8.3 2.66 10.24-2.08 1.14.08 2.28.17 3.42.27l-.24-2.65c.4.19 1.21.56 1.61.75.68 1.24 1.38 2.47 2.1 3.68 1.35-1.19 1.14-2.93 1.12-4.54.88.6 1.76 1.2 2.65 1.8-.03-5.29 5.2-8.37 5.04-13.65-1.07-1.11-2.25-2.09-3.45-3.04.76-4.08-1.74-7.71-2.32-11.66-1.67.13-3.19.83-4.68 1.54M85.59 73.89l1.02 2.7-3.21.57c-.83 4.76 3.13 7.96 4.33 12.17-1.09.79-2.16 1.59-3.24 2.39-.07-.78-.22-2.34-.3-3.12-1.09.53-2.19 1.05-3.28 1.58 1.34 1.64 2.89 3.09 4.51 4.45.1 1.77-.07 3.7 1.4 5 1-.81 2.01-1.61 3.03-2.4-1.46 3.4-1.95 7.34 2.09 9.07-.13-1-.26-2-.4-3 .71-.34 1.42-.69 2.13-1.03.91 2.51 1.85 5 2.85 7.48-3.36 2.5-5.19 6.66-4.6 10.83.37 0 1.1.01 1.47.01 1.63 4.13 2.88 8.35 2.33 12.94 7.98-2.82 1.9-11.17 4.76-16.97.46-.38 1.38-1.16 1.85-1.55-.9-7.21-4.43-12.74-6.94-19.15 1.29-1.01 2.04-2.45 2.56-3.97 1.11-.48 2.23-.94 3.35-1.4.45 1.04.92 2.07 1.41 3.1 2.15-1.01 4.5-1.31 6.85-1.2.87.77 1.74 1.54 2.62 2.31 5.91-6.43 8.24-15.59-2.2-18.07-2.95 1.34-6.16.99-8.94-.58-.14.37-.44 1.13-.59 1.51-3.55-4.04-9.92-7.08-14.86-3.67m107.73 82.29c.55.56.55.56 0 0z"/><path fill="#302e2f" d="M50.41 41.04c8.82-3 16.05-10.18 24.83-13.89a8.87 8.87 0 012.32 5.95c3.15-.72 6.26-1.66 9.48-1.99-.67 1.88-1.52 3.68-2.5 5.41-1.88.02-3.76.07-5.64.14-2.59 5.71-7.72 8.54-13.14 11l1.76 2.08c-6.12 2.83-10.51 13.06-.13 12.08.74 1.09 1.47 2.19 2.2 3.3-1.02 10.89-11.53 17.45-8.95 28.95 5.06 4.79 12.88 3.1 17.34 8.4-2.62.79-5.35.86-7.96 0 .88 3.66 3.83 6.53 6.79 2.62-.06.62-.17 1.86-.22 2.48-1.19.46-2.38.93-3.57 1.41-.73 1.34-1.46 2.68-2.19 4.03-.47-1.96-1.02-3.9-1.71-5.8-5.83 8.55 6.44 17.21 4.32 26.65-4.55-1.22-4.69-7.84-9.99-3.05.37-1.67.72-3.35 1.08-5.03-1.59-.99-3.19-1.98-4.81-2.93-.47-.27-1.39-.81-1.85-1.08.66-2.5-.66-4.71-3.31-4.89.01 1.35.02 2.69.04 4.04-1.68.45-3.4.66-5.14.73-.59-.69-1.19-1.37-1.79-2.05-1.36.61-2.72 1.23-4.08 1.84-.38 1.11-.76 2.22-1.13 3.33-1.01-.08-2.02-.17-3.02-.26-.43-3.7 2.17-6.71 2.51-10.3l-2.2.44c-.42 1.4-.84 2.79-1.25 4.19-8.09-4.69-5.55-16.27-9.07-23.83 3.04-7.21 5.92-15.55 2.03-23.07.69-7.51 7.02-13.32 8.73-20.6 2.41-4.11 6.5-7.01 9.91-10.27l.31-.03z"/><path fill="#555452" d="M13.56 129.05c-2.94-28.05 7.5-57.17 26.63-77.71-1.71 7.28-8.04 13.09-8.73 20.6 3.89 7.52 1.01 15.86-2.03 23.07 3.52 7.56.98 19.14 9.07 23.83.41-1.4.83-2.79 1.25-4.19l2.2-.44c-.34 3.59-2.94 6.6-2.51 10.3 1 .09 2.01.18 3.02.26.37-1.11.75-2.22 1.13-3.33 1.36-.61 2.72-1.23 4.08-1.84.6.68 1.2 1.36 1.79 2.05 1.74-.07 3.46-.28 5.14-.73-.02-1.35-.03-2.69-.04-4.04 2.65.18 3.97 2.39 3.31 4.89.46.27 1.38.81 1.85 1.08-1.45 3.19-.99 6.93-2.78 9.96-1.92-.57-3.85-1.1-5.77-1.62-5.81 3.95-6.51 15.58.91 17.69.56 4.33 4.97 5.97 6.48 9.74.79-3.9 4.13-6.39 5.62-9.94 1.56.67 3.12 1.34 4.69 2.02-.22-1.58-.45-3.15-.67-4.72 1.19.45 2.39.89 3.58 1.35.41 2.12.79 4.26 1.15 6.4-3.61-1.42-6.12.48-7.38 3.86-.54-.44-1.08-.88-1.62-1.31.21 2.04.47 4.08.83 6.1-.86 1.3-1.72 2.6-2.57 3.91-2.76-3.18-5.37-1.13-5.47 2.46-5.92 8.39 14.8 13.1 5.48 22.44.19.32.57.97.76 1.3 1.41-.04 2.82-.07 4.24-.07-4.16 6.15-10.08.17-14.95.3.58 1.74 1.15 3.48 1.7 5.23-2.88-.11-5.03-1.95-7.02-3.82 9.06 14.59 27.82 21.14 42.44 30.14-41.88-10.79-74.27-51.88-75.81-95.22m11.99-1.73c-.46.97-.92 1.94-1.39 2.91-1.05-.4-2.1-.8-3.14-1.2-.18.43-.55 1.29-.73 1.71 5.16 4.01 2.88 12.55 10.02 15.31.07-.47.22-1.4.29-1.87 1.79-.88 3.57-1.8 5.28-2.83-.34 1.88-.5 3.8-.05 5.68.75.11 2.24.34 2.99.45-.92 1.08-1.81 2.16-2.69 3.26 3.04 2.38 6.27 5.83 10.52 4.97l1.12 1.04c.6-2.52.86-5.08.95-7.66a69.81 69.81 0 01-4.52-1.19c-1.25-7.88-9.09-11.79-13.88-17.01.2-.51.62-1.52.83-2.03-.59-.09-1.78-.28-2.38-.37-.54.38-1.08.77-1.62 1.16-.53-.78-1.06-1.55-1.6-2.33z"/><path fill="#62615e" d="M142.44 57.04c1.49-.71 3.01-1.41 4.68-1.54.58 3.95 3.08 7.58 2.32 11.66 1.2.95 2.38 1.93 3.45 3.04.16 5.28-5.07 8.36-5.04 13.65-.89-.6-1.77-1.2-2.65-1.8.02 1.61.23 3.35-1.12 4.54-.72-1.21-1.42-2.44-2.1-3.68-.4-.19-1.21-.56-1.61-.75l.24 2.65c-1.14-.1-2.28-.19-3.42-.27-1.94 4.74-6.55.99-10.24 2.08-.37-1.18-.75-2.37-1.12-3.56-2.15-.9-6.3.18-6.86-2.69 1.71.15 3.42.33 5.13.51.69-.51 1.39-1 2.09-1.5 3.01.52 8.26-1.1 7.52-4.92.26-.28.78-.84 1.05-1.12-8.48-.51-9.44-10.94-.74-12.21.18.61.55 1.82.73 2.42 2.05.53 3.05-1.53 4.28-2.73l3.43-.51c-.01-1.09-.01-2.18-.02-3.27m3.34 15.63c.34-.8.68-1.6 1.03-2.39-2.45-2.29-5.26-4.12-7.87-6.2-3.78 2.79 2.31 11.58 6.84 8.59z"/><path fill="#484745" d="M145.78 72.67c-4.53 2.99-10.62-5.8-6.84-8.59 2.61 2.08 5.42 3.91 7.87 6.2-.35.79-.69 1.59-1.03 2.39z"/><path fill="#5e5c5a" d="M85.59 73.89c4.94-3.41 11.31-.37 14.86 3.67.15-.38.45-1.14.59-1.51 2.78 1.57 5.99 1.92 8.94.58 10.44 2.48 8.11 11.64 2.2 18.07-.88-.77-1.75-1.54-2.62-2.31-2.35-.11-4.7.19-6.85 1.2-.49-1.03-.96-2.06-1.41-3.1-1.12.46-2.24.92-3.35 1.4-.52 1.52-1.27 2.96-2.56 3.97 2.51 6.41 6.04 11.94 6.94 19.15-.47.39-1.39 1.17-1.85 1.55-2.86 5.8 3.22 14.15-4.76 16.97.55-4.59-.7-8.81-2.33-12.94-.37 0-1.1-.01-1.47-.01-.59-4.17 1.24-8.33 4.6-10.83-1-2.48-1.94-4.97-2.85-7.48-.71.34-1.42.69-2.13 1.03.14 1 .27 2 .4 3-4.04-1.73-3.55-5.67-2.09-9.07-1.02.79-2.03 1.59-3.03 2.4-1.47-1.3-1.3-3.23-1.4-5-1.62-1.36-3.17-2.81-4.51-4.45 1.09-.53 2.19-1.05 3.28-1.58.08.78.23 2.34.3 3.12 1.08-.8 2.15-1.6 3.24-2.39-1.2-4.21-5.16-7.41-4.33-12.17l3.21-.57-1.02-2.7z"/><g fill="#736f6e"><path d="M128.17 96.32c.55.38 1.11.76 1.67 1.15a18.35 18.35 0 016.35-1.12c.99 2.95 2.67 6.15 6.18 6.36.24 2.06 1.4 3.79 2.57 5.45-.19 1.17-.37 2.34-.56 3.51-13.79-5.68-6.05 17.73-14.86 13.48-.69 1.39-1.25 2.84-1.68 4.34.61.26 1.82.8 2.43 1.07.11.69.21 1.38.33 2.07 4.49 1.86 3.53 6.98-1.34 7.14-1.05-1.18-2.11-2.35-3.17-3.52.03 1.17.06 2.34.1 3.51.93 1.05 1.85 2.11 2.78 3.17-6.33.52-10.27 6.36-3.25 10.5-.19.33-.58.99-.77 1.32-4.51-4.76-9.85.79-11.17 5.46-.66.17-1.33.34-1.99.5-1.26-2.05-3.43-3.54-4.31-.28-6.36 2.7-13.14 3.53-18.82 7.69-1.84-1.81-2.29-4.36-2.84-6.76.74-1.11 1.47-2.22 2.21-3.32 1.54 1.5 2.99 3.09 4.37 4.74l2.24-.24c-.02-1.56-.04-3.11-.05-4.66 1.37.54 2.74 1.09 4.11 1.66.57-.42 1.16-.85 1.74-1.27.39.5 1.17 1.51 1.56 2.01 2.51-1.27 3.5-3.95 4.67-6.32-6.06-9.68 6.33-12.3 7.05-20.62-1.74.1-3.47.18-5.2.22-.11-1.88-.2-3.76-.21-5.64 1.04.51 1.91 1.29 2.78 2.05-1.09-6.34-4.8-11.82-5.91-18.21 3.13 3.2 7.59 2.77 11.68 2.88-4.69-7.88 7.99-3.08 8.91 1.96 3.05.48 5.39-1.78 7.81-3.22v-3.73c-5.42-2.02-11.45-8.3-5.41-13.33zM25.55 127.32c.54.78 1.07 1.55 1.6 2.33.54-.39 1.08-.78 1.62-1.16.6.09 1.79.28 2.38.37-.21.51-.63 1.52-.83 2.03 4.79 5.22 12.63 9.13 13.88 17.01 1.49.45 3 .84 4.52 1.19-.09 2.58-.35 5.14-.95 7.66l-1.12-1.04c-4.25.86-7.48-2.59-10.52-4.97.88-1.1 1.77-2.18 2.69-3.26-.75-.11-2.24-.34-2.99-.45-.45-1.88-.29-3.8.05-5.68-1.71 1.03-3.49 1.95-5.28 2.83-.07.47-.22 1.4-.29 1.87-7.14-2.76-4.86-11.3-10.02-15.31.18-.42.55-1.28.73-1.71 1.04.4 2.09.8 3.14 1.2.47-.97.93-1.94 1.39-2.91z"/></g><path fill="#545351" d="M211.74 100.91c2.63-1.5 5.46-2.57 8.37-3.44.21 2.2.05 4.41-.16 6.6.47-.46 1.41-1.36 1.88-1.81 3.62 8.01 4.14 18.79.09 26.69 5.64-1.66 3.39-9.13 4.92-13.5 2.47 30.51-9.69 63.79-33.05 83.66l-.52 2.19c-.54.11-1.62.32-2.16.43-5.66 5.15-12.17 10.27-19.23 12.97-2.88 1.79-5.6 4.49-9.28 3.85-1.05 1.06-2.07 2.39-3.76 2.01-1.14.99-2.53 1.23-4.17.72.87.4 1.75.79 2.63 1.19-17.6 5-36.71 9.72-54.74 4.69 12.13-2.62 26.21 1.55 37.2-5.14-.52-.71-1.04-1.43-1.56-2.14 2.12.92 4.31 1.66 6.59 2.05-.53-1.01-1.07-2.01-1.6-3.01.65-.47 1.29-.94 1.95-1.41 1.21-2.95 3.55-5.94 7.13-4.92.91-5.33 6.88-3.61 10.62-5.23 1.82-3.88 6.55-4.94 10.26-6.17l2.19 2.97c1.37-2.94 3.61-4.67 6.92-3.66.13-.72.27-1.44.41-2.15 1.07.12 2.14.25 3.22.37 2.89-1.72 5.8-3.48 8.24-5.84-1.54.19-3.07.39-4.61.6 3.69-1.77 6.67-4.77 6.34-9.16-1.44.13-2.88.26-4.31.4.03-.64.05-1.27.09-1.9-1.04-.45-2.08-.9-3.11-1.35.02-1.63.03-3.27.01-4.9-6.39.85-6.3-1.22-3.21-5.8-3.62 3.09-9.42 4.17-11 9.01-6.17-3.47 9.92-10.42-1-10.37-.16-.51-.47-1.53-.63-2.04-1.25 1.98-3.36 2.88-5.53 3.49-.21-2.78 1.07-5 3.48-6.33-.57-.32-1.69-.97-2.25-1.29-2.83-7.33 6.56-9.5 6.59-15.59-1.54.69-3.03 1.49-4.46 2.37.51-3.42.05-7.38-4.27-7.59.01-3.31.09-8.94 4.87-7.92-.25-1.94-.51-3.87-.8-5.8.4.1 1.18.31 1.57.42.7 2.17 1.24 4.38 1.78 6.6 1.73-.06 3.47-.13 5.2-.24-.2 4.28-3.43 8.3-1.2 12.73 1.92 1.17 3.82 2.37 5.72 3.59l.06 2.67c.39.46 1.15 1.38 1.53 1.84-1.58 3.49-8.2 13.26-.36 11.93.3-1.32.6-2.64.91-3.96.64-.03 1.92-.08 2.56-.11-.14 1.95-.94 3.73-1.94 5.39 3.34-.94 6.45-2.62 8.53-5.47-.16 1.05-.31 2.1-.46 3.16 1.39.06 2.77.09 4.16.08-1.01 1.34-2.05 2.65-3.07 3.98-1.57.12-3.14.23-4.7.36.3 1.76.6 3.51.93 5.27 11.77-3.87 9.23-20.17 21.11-22.7.93-3.19 1.52-6.5 2.97-9.51l2.31 2.25a20.54 20.54 0 001.01-6.78c-.39.49-1.16 1.47-1.55 1.96-3.28-3.4-7.76-6.55-7.59-11.83 2.75 2.42 5.29 5.22 8.84 6.5-.05-1.51-.08-3.01-.11-4.52-1.68-.99-3.36-1.97-5.04-2.95 1.12-6.93-3.78-12.59-4.55-19.3.71.86 1.41 1.73 2.12 2.6-.3-3.92-1.95-8.26.67-11.76z"/><path fill="#7f7b7a" d="M159.11 102.35c.92-2.82 3.44-4.09 6.28-4.04-.94.87-1.89 1.72-2.84 2.58.01.65.02 1.95.03 2.6-1.2.08-2.41.15-3.61.23 3.14 4.26.62 9.35.03 13.97.99-.55 2.05-.92 3.17-1.08.17 2.6.28 5.22.05 7.83 1.35.39 2.7.78 4.06 1.17.17.88.35 1.76.53 2.64 1.17.13 2.35.27 3.52.46.29 1.93.55 3.86.8 5.8-4.78-1.02-4.86 4.61-4.87 7.92 4.32.21 4.78 4.17 4.27 7.59 1.43-.88 2.92-1.68 4.46-2.37-.03 6.09-9.42 8.26-6.59 15.59.56.32 1.68.97 2.25 1.29-2.41 1.33-3.69 3.55-3.48 6.33 2.17-.61 4.28-1.51 5.53-3.49.16.51.47 1.53.63 2.04 10.92-.05-5.17 6.9 1 10.37 1.58-4.84 7.38-5.92 11-9.01-3.09 4.58-3.18 6.65 3.21 5.8.02 1.63.01 3.27-.01 4.9 1.03.45 2.07.9 3.11 1.35-.04.63-.06 1.26-.09 1.9 1.43-.14 2.87-.27 4.31-.4.33 4.39-2.65 7.39-6.34 9.16 1.54-.21 3.07-.41 4.61-.6-2.44 2.36-5.35 4.12-8.24 5.84-1.08-.12-2.15-.25-3.22-.37-.14.71-.28 1.43-.41 2.15-3.31-1.01-5.55.72-6.92 3.66l-2.19-2.97c-3.71 1.23-8.44 2.29-10.26 6.17-3.74 1.62-9.71-.1-10.62 5.23-3.58-1.02-5.92 1.97-7.13 4.92-.66.47-1.3.94-1.95 1.41.53 1 1.07 2 1.6 3.01-2.28-.39-4.47-1.13-6.59-2.05.52.71 1.04 1.43 1.56 2.14-10.99 6.69-25.07 2.52-37.2 5.14-1.77-.47-3.62-.61-5.38-1.14-1.01-.46-1.99-.95-2.97-1.44.39-.26 1.16-.77 1.54-1.03-4.32-1.36-8.3-3.54-12.39-5.44 2.45-8.36-10.45-10.85-9.62-19.35 2.57-3.47 3.15-7.36 1.27-11.38 1.71 1.04 3.42 2.08 5.12 3.14-.49 1.21-.87 2.46-1.26 3.7 2.93-1.06 3.86-4.47 6.86-5.43 1.06 8.78-7.03 21.57 4.53 25.81.28-.48.83-1.44 1.1-1.92l2.39-.27c-.13-1.96-.25-3.92-.34-5.88 1.63-1.08 3.13-2.36 4.28-3.96.48.42.95.85 1.43 1.28 1.45-8.09 11.97 3.67 14.92-5.13 1.75 1.23 4.27 2.98 5.99.68-1.57-.82-3.15-1.61-4.73-2.4 2.52-2.18 4.24-4.99 5.9-7.82 4.13-1.41 5.34 5.18 9.41 5.5.4-1.84.79-3.68 1.18-5.52-3.15-1.48-9.08.64-9.31-4.33 10.14-3.14 20.2-4.6 28.61-11.12-1.88-1.92-4.5-3.01-7.19-2.5.75.29 2.24.86 2.98 1.15-3.91 1.22-7.11 3.83-10.67 5.75-4.05-3.35-8.87 0-13.26.66.99-4.04 4.21-6.77 6.92-9.67.54.42 1.08.84 1.62 1.27.86-1.88 2.26-3.37 4.02-4.44l1.09 1.82c1.13-2.17 2.87-3.86 5.19-4.67-.16-.79-.31-1.57-.47-2.35-.83-.17-1.66-.34-2.48-.5-.37.97-.74 1.94-1.1 2.92-2.06.14-4.13.1-6.18-.09.12-.64.37-1.9.5-2.53-1.77.71-3.53 1.44-5.27 2.21-.82 1.96-1.05 6.02-4.19 4.51.11-.99.23-1.99.34-2.98-1.06-.76-2.12-1.52-3.18-2.27 1.11-1.4 2.22-2.81 3.3-4.23-3.34-1.1-6.2 1.63-9.28 2.44 1.32-4.67 6.66-10.22 11.17-5.46.19-.33.58-.99.77-1.32-7.02-4.14-3.08-9.98 3.25-10.5-.93-1.06-1.85-2.12-2.78-3.17-.04-1.17-.07-2.34-.1-3.51 1.06 1.17 2.12 2.34 3.17 3.52 4.87-.16 5.83-5.28 1.34-7.14-.12-.69-.22-1.38-.33-2.07-.61-.27-1.82-.81-2.43-1.07.43-1.5.99-2.95 1.68-4.34 8.81 4.25 1.07-19.16 14.86-13.48.19-1.17.37-2.34.56-3.51 1.29-.91 2.59-1.82 3.88-2.74 1.17.49 2.35.98 3.53 1.48.46-1.45.93-2.89 1.4-4.33 1.78-.06 3.57-.13 5.36-.22m-6.62 27.11c1.84 2.29 2.55 5.06 1.13 7.77-1.63.56-3.04 1.57-4.42 2.59-4.52-7.26-2.51 7.75.7 9.18 1.64-2.24 4.12-3.13 6.85-2.86-.21 2.39-1.21 4.57-2.41 6.61 3.51 2.63 4.52 7.92 8.69 9.6 3.17-1.64 5.21-6.97 3.88-10.54 1.07-2.41 1.68-5.27-.21-7.47-.42.38-1.25 1.13-1.66 1.51-1.53-1.92-2.68-4.09-3.57-6.37 1.02-3.47 3.47-4.9 6.61-6.06-1.7-1.21-3.21-2.66-4.3-4.45-2.55.36-5.33.17-7.62 1.54-1.21-.4-2.42-.79-3.67-1.05z"/><path fill="#747270" d="M178.88 135.49c1.02-3.48 4.91-4.93 6.1-8.38.87.81 1.73 1.63 2.59 2.45 1.09 3.85 5.79 4.38 8.07 7.36a53.163 53.163 0 01-4.16 2.97c1.53 1.38 2.65 3.11 3.44 5.01-1.59-.15-3.16-.31-4.74-.47.65 1.7 1.31 3.4 1.98 5.09-.77.08-1.54.17-2.3.26-.19.44-.56 1.32-.74 1.76l2.74-.39c1.21 1.11 2.42 2.22 3.61 3.36-1.54-.06-3.07-.13-4.6-.19.29 2.9 1.69 5.58 4.94 5.72-.2.8-.39 1.59-.59 2.39.47.02 1.42.08 1.89.1.61 1.55 1.5 3.08 1.28 4.81-1.39.01-2.77-.02-4.16-.08.15-1.06.3-2.11.46-3.16-2.08 2.85-5.19 4.53-8.53 5.47 1-1.66 1.8-3.44 1.94-5.39-.64.03-1.92.08-2.56.11-.31 1.32-.61 2.64-.91 3.96-7.84 1.33-1.22-8.44.36-11.93-.38-.46-1.14-1.38-1.53-1.84l-.06-2.67c-1.9-1.22-3.8-2.42-5.72-3.59-2.23-4.43 1-8.45 1.2-12.73z"/><path fill="#9a9896" d="M152.49 129.46c1.25.26 2.46.65 3.67 1.05 2.29-1.37 5.07-1.18 7.62-1.54 1.09 1.79 2.6 3.24 4.3 4.45-3.14 1.16-5.59 2.59-6.61 6.06.89 2.28 2.04 4.45 3.57 6.37.41-.38 1.24-1.13 1.66-1.51 1.89 2.2 1.28 5.06.21 7.47 1.33 3.57-.71 8.9-3.88 10.54-4.17-1.68-5.18-6.97-8.69-9.6 1.2-2.04 2.2-4.22 2.41-6.61-2.73-.27-5.21.62-6.85 2.86-3.21-1.43-5.22-16.44-.7-9.18 1.38-1.02 2.79-2.03 4.42-2.59 1.42-2.71.71-5.48-1.13-7.77z"/><path fill="#6e6b69" d="M79.18 151.87c1.34 2.44 2.56 4.93 3.86 7.38-.99-.32-1.97-.67-2.93-1.04.15 1.83.64 3.79-.34 5.49 4.77 1.43 7.49 14.25.09 9.51-.58 1-1.16 1.99-1.74 2.99 1.7.15 3.02 1.02 3.58 2.7-1.19.76-2.39 1.52-3.58 2.29l.36 2.1c1.82 1 3.52 2.2 5.06 3.6-1.15 1.2-2.31 2.39-3.41 3.63-1.7-1.06-3.41-2.1-5.12-3.14 1.88 4.02 1.3 7.91-1.27 11.38-.83 8.5 12.07 10.99 9.62 19.35 4.09 1.9 8.07 4.08 12.39 5.44-.38.26-1.15.77-1.54 1.03.98.49 1.96.98 2.97 1.44-2.6-.51-5.6-.02-7.81-1.75-14.62-9-33.38-15.55-42.44-30.14 1.99 1.87 4.14 3.71 7.02 3.82-.55-1.75-1.12-3.49-1.7-5.23 4.87-.13 10.79 5.85 14.95-.3-1.42 0-2.83.03-4.24.07-.19-.33-.57-.98-.76-1.3 9.32-9.34-11.4-14.05-5.48-22.44.1-3.59 2.71-5.64 5.47-2.46.85-1.31 1.71-2.61 2.57-3.91 2.4 1.09 4.66 2.46 6.81 3.99-.92-1.62-1.82-3.25-2.68-4.9 1.62-.07 2.67.99 3.59 2.17 1.08.28 2.16.56 3.25.84.96-1.47 1.75-3.05 2.21-4.75-8.96.13-6.52-7.29.38-2.7-.08-1.77.29-3.49.86-5.16z"/><path fill="#62615f" d="M193.32 156.18c.55.56.55.56 0 0z"/><path fill="#9b9997" d="M113.78 160.21c3.08-.81 5.94-3.54 9.28-2.44-1.08 1.42-2.19 2.83-3.3 4.23 1.06.75 2.12 1.51 3.18 2.27-.11.99-.23 1.99-.34 2.98 3.14 1.51 3.37-2.55 4.19-4.51 1.74-.77 3.5-1.5 5.27-2.21-.13.63-.38 1.89-.5 2.53 2.05.19 4.12.23 6.18.09.36-.98.73-1.95 1.1-2.92.82.16 1.65.33 2.48.5.16.78.31 1.56.47 2.35-2.32.81-4.06 2.5-5.19 4.67l-1.09-1.82c-1.76 1.07-3.16 2.56-4.02 4.44-.54-.43-1.08-.85-1.62-1.27-2.71 2.9-5.93 5.63-6.92 9.67 4.39-.66 9.21-4.01 13.26-.66 3.56-1.92 6.76-4.53 10.67-5.75-.74-.29-2.23-.86-2.98-1.15 2.69-.51 5.31.58 7.19 2.5-8.41 6.52-18.47 7.98-28.61 11.12.23 4.97 6.16 2.85 9.31 4.33-.39 1.84-.78 3.68-1.18 5.52-4.07-.32-5.28-6.91-9.41-5.5-1.66 2.83-3.38 5.64-5.9 7.82 1.58.79 3.16 1.58 4.73 2.4-1.72 2.3-4.24.55-5.99-.68-2.95 8.8-13.47-2.96-14.92 5.13-.48-.43-.95-.86-1.43-1.28-1.15 1.6-2.65 2.88-4.28 3.96.09 1.96.21 3.92.34 5.88l-2.39.27c-.27.48-.82 1.44-1.1 1.92-11.56-4.24-3.47-17.03-4.53-25.81-3 .96-3.93 4.37-6.86 5.43.39-1.24.77-2.49 1.26-3.7 1.1-1.24 2.26-2.43 3.41-3.63a26.42 26.42 0 00-5.06-3.6l-.36-2.1c1.19-.77 2.39-1.53 3.58-2.29-.56-1.68-1.88-2.55-3.58-2.7.58-1 1.16-1.99 1.74-2.99 7.4 4.74 4.68-8.08-.09-9.51.98-1.7.49-3.66.34-5.49.96.37 1.94.72 2.93 1.04.58.08 1.75.23 2.33.31.12.45.34 1.35.45 1.8.55 2.4 1 4.95 2.84 6.76 5.68-4.16 12.46-4.99 18.82-7.69.88-3.26 3.05-1.77 4.31.28.66-.16 1.33-.33 1.99-.5z"/></svg>