<svg xmlns="http://www.w3.org/2000/svg" viewBox="0 0 240 240"><path fill="#f05b05" d="M72.82 25.88c19.89-9.64 42.62-13.33 64.41-9.63-.6 1.16-1.21 2.33-1.81 3.5-4.99-2.05-10.57-.09-15.38-2.58-3.39 4.12-8.99 1.35-13.47 2.6.02-.96.03-1.92.04-2.88-4.11 4.55-9.93 3.69-15.39 5.02.29 1.91-.15 4.22 1.51 5.62-.2.77-.41 1.54-.61 2.3 1.06-.24 2.13-.48 3.2-.72.11.48.35 1.44.47 1.92 1.37-.52 2.73-1.05 4.1-1.58.67.66 1.33 1.32 2.01 1.98-1.79.2-3.7.23-5.24 1.3 3 3.08 7.29 2.44 9.08-1.51.07.62.19 1.86.25 2.48 2.93 1.92 5.79 1.03 7.41-2.01 2.8.56 5.46-.36 7.83-1.83.5.47 1 .94 1.5 1.43-1.02 1.2-1.98 2.44-2.81 3.78 2.33-.55 4.52-1.53 6.69-2.52-.45-1.03-.89-2.06-1.34-3.09l1.98-1.95c2.4 1.36 5.13 1.12 7.76.86-.57 2.23-1.69 4.07-4.31 3.6l-.32-1.98c-.49.01-1.47.02-1.96.03-.11.94-.23 1.88-.34 2.83 3.89.09 5.37 3.62 7.7 6.07.37-.91.74-1.82 1.11-2.74-.67-.13-2-.4-2.66-.54 2.38-.86 5.06-1.85 5.98-4.46-1.61.05-3.22.11-4.82.13 1.08-2.54 3.56-3.67 6.06-4.35l-.28 2.02c1.18-.22 2.36-.44 3.54-.67l-.21 3.28c1.78.05 3.57.12 5.36.2-.65-.98-1.29-1.97-1.91-2.96 4.73-.19 3.98 4.49 3.95 7.76-1.75-1.65-3.6-1.49-5.21.24.73.81 1.48 1.63 2.22 2.45-4.3 2.6-9.09-.11-13.67.65.57 1.39 1.15 2.77 1.74 4.14 2.14-.34 4.84-1.57 6.32.74-4.28 2.28-7.62-.85-11.06-2.94l-.32 3.23c-1-.22-2-.45-3-.69.5.71 1 1.41 1.51 2.11-.31 1.03-.6 2.06-.91 3.08-.73.41-1.46.81-2.19 1.21.38-3.38.58-6.91-1.2-9.97-5.25.82-12.66-.45-5.04 4.71-4.94 2.97-6.03-3.76-10.07-2.13.68-.84 1.35-1.69 2.03-2.54-1.65-.9-3.47-.61-5.21-.17.16.61.46 1.85.62 2.47-2.14-1.27-4.22-2.61-6.29-3.98 2 .05 7.13 1.54 5.61-2.17-7.04-2.48-15.61 1.79-21.67-3.79-1.22.5-2.42 1.29-3.79 1.01.87-1.67 1.73-3.39 1.84-5.31-1.26.89-2.49 1.82-3.71 2.76l-1.05-4.17c-1.28.06-2.57.13-3.85.19.01-.37.02-1.11.02-1.48l-2.75-.36z"/><path fill="#fa7c0d" d="M91.22 21.91c5.46-1.33 11.28-.47 15.39-5.02-.01.96-.02 1.92-.04 2.88 4.48-1.25 10.08 1.52 13.47-2.6 4.81 2.49 10.39.53 15.38 2.58.6-1.17 1.21-2.34 1.81-3.5l.47.14c.88 2.05 1.8 4.09 2.8 6.1 3.97-.57 7.99-1.01 11.62-2.83 7.15 3.44 14.74 5.9 21.55 10.02-.49.44-1.49 1.3-1.98 1.73-4.5-.36-9.05-.26-13.44.89.37 1.07.74 2.15 1.11 3.22 1.84.33 3.66.72 5.46 1.22-1.38 2.98-.56 7.6 2.9 8.63-.12-1.02-.24-2.05-.37-3.07.78-.24 1.56-.48 2.34-.71-3.7-.18-3.33-2.68-1.96-5.15 3.09-1.83 5.99-4.1 9.51-5.08 2.67 1.21 5.11 3.07 8.16 3.23.41 1.18.79 2.37 1.23 3.54 8.8 7.89 17.29 16.28 23.7 26.36 3.72 8.38 14.03 14.6 11.39 24.78-1.16-4.33-2.78-8.55-5.38-12.24-.12 1.86-.23 3.71-.35 5.57-.53-.02-1.59-.07-2.13-.09 1.31 1.5 2.63 3 3.95 4.5 0 1.35.01 2.69.02 4.04-.97-1.46-1.92-2.93-2.87-4.4-4.03.84-3.15 3.98.83 3.51.16.64.47 1.93.63 2.57 2.88-.02 8.22 4.52 4.52 6.6-1.6-2.67-2.72-6.09-6.65-4.95l-.08.03c-.92 1.08-1.83 2.15-2.82 3.15-.03.45-.08 1.34-.1 1.78l1.16.29c-.58 1.34-1.15 2.68-1.68 4.04-3.63 3.07-8.94-.15-11.57-3.25.86-.59 1.73-1.17 2.59-1.75-.62-.24-1.86-.73-2.48-.98 3.36-4.52 2.8-12.04-3.79-13.58-.22.58-.67 1.73-.9 2.31l-2.78-.03c1.36 1.76 2.9 3.37 4.28 5.11-.84.49-1.69.98-2.53 1.47.81 1.52 1.28 3.18 1.4 4.89l-3.16.16c-.55-2.59-.33-5.25-.66-7.86-1.06.22-2.12.45-3.17.68-4.59-1.99-8.4-8.57-13.96-5.31-.31-.37-.92-1.11-1.23-1.48.27-.52.81-1.57 1.08-2.1l1.63-.28c.76-.14 1.52-.3 2.28-.46 2.95 2.06 8.11-.52 9.09 3.88-.68.66-1.36 1.33-2.03 2 1.83.73 3.71.24 5.5-.31.08-.73.15-1.46.24-2.19 1.37-.62 2.75-1.22 4.12-1.82-1.94-2.94-2.87-7.1-6.43-8.5-2.45-2.47-4.61-5.3-5.52-8.72-2.9.74-5.8-.04-7.3-2.79 1.24-.15 2.47-.38 3.71-.52a7.825 7.825 0 00-4.4-1.88c-.51 1.76-1.04 3.52-1.57 5.27-1.92-1.02-3.69-2.61-5.96-2.69-.28.52-.83 1.58-1.1 2.11-.73-1.05-1.72-1.5-2.97-1.37 1.22 1.91 2.35 3.89 3.09 6.05-1.57.12-3.29-.12-4.59.94.74.77 1.48 1.54 2.23 2.3-.71.85-1.42 1.7-2.12 2.55 4.19-.88 7.34.89 6.56 5.52-4.16-.87-7.75-3.11-11.16-5.54-.25-1.58-.48-3.17-.54-4.77.28-.08.85-.22 1.13-.3-.98-1.34-1.91-2.73-2.75-4.17 1.25-.23 2.5-.47 3.76-.7-.02-.61-.05-1.81-.07-2.42-1.81-.48-3.66-.81-5.51-1.06.69.66 1.38 1.31 2.08 1.96-1.13 1.05-2.25 2.11-3.37 3.16-4.17-2.31-9.71-3.11-14.17-1.4.12 1 .25 2 .4 2.99.5 1.79 1.17 3.52 1.75 5.29-2.51-.87-2.2-4.24-4.34-5.57 1.65-2.54 1.18-5.99-.58-8.35-3.13-.4-7.13 1.14-4.22 4.62-1.88-.44-3.75-.87-5.63-1.31-.14-.44-.43-1.3-.58-1.74 1.15-1.81 1.61-3.87.59-5.87-2.35 1.8-6.7 1.08-6.87 4.84-1.03.06-2.06.11-3.08.16 1-1.94 2.1-3.82 3.34-5.62-.42-.58-.87-1.14-1.29-1.73.65-.82 1.28-1.67 1.89-2.53-3.66-.07-4.34 4.02-4.84 6.81-.49.08-1.47.23-1.95.3.21-.9.43-1.8.66-2.69-2.39 1.23-5.06 1.51-7.71 1.44 1.14-1.25 2.3-2.48 3.46-3.71-1.74-.97-3.89-1.57-4.84-3.48 1.08-.55 2.17-1.1 3.25-1.64-.76-.62-1.53-1.23-2.3-1.83-.63.7-1.27 1.41-1.9 2.12-1.78-.2-3.58-.33-5.37-.35 1.06 1.4 2.42 2.52 3.85 3.52-.7 1.72-1.23 3.5-1.62 5.32l3.12-.27c-.04.42-.13 1.27-.18 1.69-1.01.31-2.02.6-3.02.91.62 1.12 1.24 2.25 1.9 3.36-1.03 1.28-2.03 2.57-3.04 3.85.33.44.98 1.32 1.31 1.75-.47.61-.95 1.22-1.44 1.81.43.65.86 1.3 1.29 1.96 1.19-.96 2.54-1.67 4.05-1.98-.71 2.16-.66 4.4.1 6.55-1.99-.22-3.5-1.57-5.08-2.66-.04 2.8 5.69 8.59 6.89 3.41.48.26 1.44.76 1.92 1.02-.05 1.39-.12 2.78-.17 4.17.86.82 1.72 1.65 2.58 2.47-.99 2.18-1.77 4.61-3.78 6.1-.9-1.69-1.84-3.36-2.84-4.99a97.85 97.85 0 00-1.4 5.86c-2.48-.06-6.22 2.22-7.81-.68 1.36-1.87 1.96-4.1 2.31-6.35.83-.27 1.65-.54 2.48-.8-.36-1.92-.74-3.84-1.13-5.75-1.11-.67-2.21-1.34-3.32-2.01-.51.49-1.52 1.48-2.02 1.97l-2.34-2.25c2.23-1.54 6.19-2.2 5.87-5.63-1.96 1.48-4.35 1.5-6.68 1.18l-.92 2.23c-2.2-2.35-4.89-4.16-7.69-5.72-.18.82-.36 1.63-.53 2.45-1.1.15-2.2.3-3.3.44 2-3.35 4.48-6.88 3.27-11.01-2.98-.18-6.29.13-8.71-1.98 2.15-1.96 5.3-2.68 7.44-.27.88-.97 1.75-1.94 2.63-2.91-.43-1.2-.85-2.39-1.27-3.59 2.11-.53 4.25-1.04 6.21-2.02-2.53-1.29-5.79-2.03-6.64-5.15 1.38-.22 2.76-.4 4.14-.58-1.39-1.1-2.81-2.18-4.23-3.24.37-3.84-4.8-7.35-4.25-1.73-1.45.76-2.75 1.76-3.9 2.92-1.55.45-3.07.98-4.58 1.56-1.78-.3-3.65-.64-5.35.18.59 4.06-3.52 5.5-6.69 6.29 1.45.58 2.9 1.17 4.36 1.75-1.11.86-2.2 1.74-3.3 2.61 1.14-.08 2.28-.16 3.42-.25.9-1.67 1.18-4.19 3.4-4.58-.08 1.38-.21 2.76-.32 4.15.39-.21 1.15-.61 1.53-.82.22-7.52 8.08-4.19 11.5-.96-1.8.63-3.68.93-5.57 1.12l.36-2.57c-1.9 1.17-3.57 2.66-4.92 4.45l.69 1.25c-1.25 2.39.29 5.49-2.17 7.3-.64-.15-1.91-.44-2.54-.58.77-1.07 1.55-2.14 2.31-3.22-2.41-.42-4.84-.67-7.28-.84l.33 2.54c-.97 1.66-1.91 3.34-2.92 4.97-.73 1.11-1.48 2.21-2.22 3.3-1.7-.34-2.92-1.52-3.93-2.86 1.37.22 2.73.51 4.1.77 2.7-5.37 1.55-10.46-.22-15.74-2.25 2.68-4.59 5.3-6.8 8.02-1.42-.36-2.84-.72-4.17-1.35-1.26-.68-2.49-1.42-3.73-2.15 1.66-1.94 4.31-2.3 6.58-3.15.39-2.12.74-4.25 1.03-6.38 8.04-8.5 18.41-14.14 28.28-20.25l2.75.36c0 .37-.01 1.11-.02 1.48 1.28-.06 2.57-.13 3.85-.19l1.05 4.17c1.22-.94 2.45-1.87 3.71-2.76-.11 1.92-.97 3.64-1.84 5.31 1.37.28 2.57-.51 3.79-1.01 6.06 5.58 14.63 1.31 21.67 3.79 1.52 3.71-3.61 2.22-5.61 2.17 2.07 1.37 4.15 2.71 6.29 3.98-.16-.62-.46-1.86-.62-2.47 1.74-.44 3.56-.73 5.21.17-.68.85-1.35 1.7-2.03 2.54 4.04-1.63 5.13 5.1 10.07 2.13-7.62-5.16-.21-3.89 5.04-4.71 1.78 3.06 1.58 6.59 1.2 9.97.73-.4 1.46-.8 2.19-1.21.31-1.02.6-2.05.91-3.08-.51-.7-1.01-1.4-1.51-2.11 1 .24 2 .47 3 .69l.32-3.23c3.44 2.09 6.78 5.22 11.06 2.94-1.48-2.31-4.18-1.08-6.32-.74-.59-1.37-1.17-2.75-1.74-4.14 4.58-.76 9.37 1.95 13.67-.65-.74-.82-1.49-1.64-2.22-2.45 1.61-1.73 3.46-1.89 5.21-.24.03-3.27.78-7.95-3.95-7.76.62.99 1.26 1.98 1.91 2.96-1.79-.08-3.58-.15-5.36-.2l.21-3.28c-1.18.23-2.36.45-3.54.67l.28-2.02c-2.5.68-4.98 1.81-6.06 4.35 1.6-.02 3.21-.08 4.82-.13-.92 2.61-3.6 3.6-5.98 4.46.66.14 1.99.41 2.66.54-.37.92-.74 1.83-1.11 2.74-2.33-2.45-3.81-5.98-7.7-6.07.11-.95.23-1.89.34-2.83.49-.01 1.47-.02 1.96-.03l.32 1.98c2.62.47 3.74-1.37 4.31-3.6-2.63.26-5.36.5-7.76-.86l-1.98 1.95c.45 1.03.89 2.06 1.34 3.09-2.17.99-4.36 1.97-6.69 2.52.83-1.34 1.79-2.58 2.81-3.78-.5-.49-1-.96-1.5-1.43-2.37 1.47-5.03 2.39-7.83 1.83-1.62 3.04-4.48 3.93-7.41 2.01-.06-.62-.18-1.86-.25-2.48-1.79 3.95-6.08 4.59-9.08 1.51 1.54-1.07 3.45-1.1 5.24-1.3-.68-.66-1.34-1.32-2.01-1.98-1.37.53-2.73 1.06-4.1 1.58-.12-.48-.36-1.44-.47-1.92-1.07.24-2.14.48-3.2.72.2-.76.41-1.53.61-2.3-1.66-1.4-1.22-3.71-1.51-5.62m78.14 22.05c-.53 1.45-1.82 2.08-3.18 2.55 1.08.69 2.08 1.49 3.04 2.34-1.15.48-2.3.97-3.46 1.44.79 1.95 3.05 1.89 4.81 1.76-.1-.48-.32-1.42-.43-1.9.41-.09 1.23-.29 1.64-.38-.23-1.23-.46-2.46-.67-3.69 1.46 1.13 2.89 2.37 4.64 3.04-.03-.72-.08-2.15-.11-2.87-2-1.01-4.08-1.84-6.28-2.29m-34.88 3.41c-.93 1.54-1.84 3.09-2.7 4.66-1.5.16-3 .31-4.49.43-.4 1.03-.78 2.06-1.12 3.1 2.7 2.04 6.56.63 8.19-2.09 2.29.36 5.69.75 6.57-2.04-3.12 1.35-4.84-1.26-4.41-4.19-.51.03-1.53.1-2.04.13m64.43 21.67c-.17.94-.34 1.88-.5 2.82-1.44.3-3.22 1.4-4.02-.5-.44.15-1.3.46-1.74.62.91 1.2 1.86 2.37 2.84 3.52 3.02-1.77 6.49.5 5.94 4 .97.72 1.95 1.42 2.96 2.11.03-1.45-.11-2.88-.29-4.31l1.8.32c-.06-.57-.17-1.72-.23-2.29-1.73-.54-3.26-1.44-3.92-3.21l2.75-.36c-1.63-1.33-3.72-1.84-5.59-2.72m8.22 10.91c.19 1.54.57 3.04 1.07 4.51-2.26-.1-4.37-.95-6.55-1.43.1 1.9 1.73 3.16 2.77 4.6l3.43-.3c.13.63.41 1.89.55 2.52.54-1.3 1.08-2.59 1.62-3.88-.3-1.21-1.28-2.61-.27-3.77.69.97 1.38 1.94 2.08 2.91-.05-.62-.13-1.88-.18-2.51-1.45-.98-2.93-1.92-4.52-2.65z"/><path fill="#ef5603" d="M137.7 16.39c3.04.49 6.08 1 9.05 1.82 1.79.48 3.6.91 5.37 1.45-3.63 1.82-7.65 2.26-11.62 2.83-1-2.01-1.92-4.05-2.8-6.1z"/><path fill="#ee5405" d="M173.67 29.68c1.16.63 2.37 1.14 3.57 1.68-3.52.98-6.42 3.25-9.51 5.08-1.37 2.47-1.74 4.97 1.96 5.15-.78.23-1.56.47-2.34.71.13 1.02.25 2.05.37 3.07-3.46-1.03-4.28-5.65-2.9-8.63-1.8-.5-3.62-.89-5.46-1.22-.37-1.07-.74-2.15-1.11-3.22 4.39-1.15 8.94-1.25 13.44-.89.49-.43 1.49-1.29 1.98-1.73z"/><path fill="#f66d09" d="M75.54 38.4c-.55-5.62 4.62-2.11 4.25 1.73 1.42 1.06 2.84 2.14 4.23 3.24-1.38.18-2.76.36-4.14.58.85 3.12 4.11 3.86 6.64 5.15-1.96.98-4.1 1.49-6.21 2.02.42 1.2.84 2.39 1.27 3.59-.88.97-1.75 1.94-2.63 2.91-2.14-2.41-5.29-1.69-7.44.27 2.42 2.11 5.73 1.8 8.71 1.98 1.21 4.13-1.27 7.66-3.27 11.01 1.1-.14 2.2-.29 3.3-.44.17-.82.35-1.63.53-2.45 2.8 1.56 5.49 3.37 7.69 5.72l.92-2.23c2.33.32 4.72.3 6.68-1.18.32 3.43-3.64 4.09-5.87 5.63-2.05.85-3.85 2.16-5.87 3.06-.56-.93-1.12-1.86-1.69-2.78l-1.58.89c1.49 2.34 2.96 4.7 4.38 7.08-2.46.31-4.92.66-7.37 1.06l-.16 2.89c3.1 2.77 7.44-4.56 8.66 1.21 1.25-1.05 1.61-2.69 2.14-4.15 1.08.23 2.17.45 3.26.69-.7 4.21.76 9.24 5.67 9.72-1.65 2.72-2.97 5.62-4.07 8.6 1.37.56 2.75 1.12 4.13 1.68.1-1.52.21-3.03.31-4.55 1.17.42 2.35.84 3.5 1.31 5.03 3.09 9.15 6.88 14.41 9.29l.68 1.93c-1.88-.24-3.79-.16-5.45.87-.18-.54-.53-1.61-.71-2.14-1.84-.74-3.69-1.48-5.57-2.12l.36-.48c.16-.26.48-.79.65-1.05-.43-.9-.86-1.8-1.31-2.69-2.79.42-5.51 1.22-7.94 2.68-.08-.36-.23-1.08-.31-1.44-1.1-.05-2.19-.09-3.29-.14-1.52-2.08-4.47-4.41-6.48-1.38-.27.29-.79.87-1.06 1.15.76 1.83.87 3.81.89 5.78-2.32-.6-4.65-1.2-7.04-1.47-2.99-.37-5.97-.83-8.96-1.25-.45 1.85-.91 3.71-1.39 5.55 1.26-.57 2.52-1.15 3.79-1.7 3.01 4.53-7.43 16.98 1.62 14.27.7.44 1.4.87 2.1 1.31 1.21-.95 2.41-1.91 3.61-2.87-1.77-1.85-3.94-1.08-5.94-.08.29-3.53-.04-8.54 4.76-8.52-.13.98-.27 1.97-.41 2.95 1.9-.2 3.24-1.44 4.25-2.97 1.29-.33 2.58-.64 3.88-.94-.04.84-.13 2.53-.17 3.37.5-.54 1-1.07 1.52-1.6.52-.1 1.56-.3 2.09-.39-2.69 2.29-1.99 6.32 1.56 7.23-.2.23-.6.71-.79.95-1.71.11-3.41.21-5.12.33.63 2.3 1.5 4.52 2.28 6.78l-2.33-2.33c-2.34 2-4.39-2.17-6.64-2.82-.32 3.64-.08 7.29.73 10.85-1.46-.37-2.93-.73-4.4-1.09.13-1.21.24-2.42.35-3.63-2.36.7-3.36 3.02-4.55 4.94 1.74 1.17 3.96.51 5.8 1.45-.64 1-1.3 1.99-1.94 3 3.44 1.77 3.95-4.59 7.93-3.98.26 1.49.5 2.98.74 4.48 1.16.23 2.33.48 3.49.73-3.78.98-7.21 2.25-9.97 5.1.25 1 .52 2.01.8 3.02.49-.41 1.47-1.22 1.96-1.63 1.76 1.58-.34 3.08-1.28 4.39.77 1.09 1.53 2.19 2.28 3.29 1.63-.11 3.1-.78 4.47-1.61.48 1.58.96 3.16 1.45 4.74-1.22.18-2.43.36-3.64.55.03.69.08 2.06.11 2.75.05 1.46.08 2.92.11 4.38.56.02 1.68.06 2.23.07.08 1.63.18 3.26.23 4.89-.06 1.55-.1 3.11-.13 4.67 2.32-1.14 4.59-2.38 6.72-3.86 1.04.56 2.08 1.13 3.13 1.67.26 2.65.26 5.36-.51 7.94-1.33-.49-2.65-.97-3.97-1.45l-.75 4.02c-1.81.73-3.4 1.84-4.14 3.72 3.22 3.77-.7 5.67-4.25 6.09-.93-1.29-1.92-2.54-3.11-3.6-.11 2.22-.01 4.45.19 6.66-1.67.73-3.35 1.44-5.03 2.15.68.29 2.05.88 2.74 1.17-1.76 1.45-3.5 2.92-5.24 4.39 2.17 3.2 6.51 4.07 10 2.7.7-3.17-1.56-5.67-3.19-8.13.84-1.14 1.67-2.29 2.52-3.43 5.91 2.19 13.06-3.09 7.03-8.36 1.09.29 2.18.57 3.27.85.1.73.2 1.46.29 2.19.88.4 1.76.8 2.64 1.21.67 3.81-1.65 6.93-3.33 10.1-1.67-.57-3.35-1.1-5.06-1.55.75 1.32 1.53 2.62 2.31 3.93-.93.14-2.78.44-3.7.58 1.6 1.9 4 3.22 4.77 5.7-1.19-.55-2.36-1.12-3.54-1.69.31 5.35 5.22 4.37 6.46-.01.87.48 1.73.96 2.59 1.44 1.5-1.45 2.63-3.2 3.64-5.01 3.46.78 8.16-.3 9.15-4.17-.52 0-1.55-.01-2.07-.02-.63-.85-1.26-1.69-1.89-2.54.55-.87 1.09-1.74 1.62-2.62-.65.02-1.94.05-2.58.06-1 1.82-2.02 3.63-3.04 5.44-.88-.76-1.76-1.51-2.64-2.26-.89.09-1.77.19-2.66.28 1.1-4.2 3.81-1.2 6.22-.25.48-3.32-2.38-3.5-4.54-4.74 1.55-.19 3.11-.31 4.67-.43.33-1.54.71-3.07 1.13-4.59-1.85 1.16-3.79 2.29-6.04 2.4.05-2.43-.81-4.66-2.2-6.61 1.73-2.01 3.68-3.81 5.65-5.57-.2-1.63-.46-3.3-.03-4.92 3.13 1.63 2.86 4.97 1.63 7.79-1.56.99-4.11 1.49-3.94 3.81 2.42.17 4.83.4 7.24.65l.93-4.44c1.35.78 2.72 1.57 4.11 2.31-.23-1.58-.91-3.01-1.76-4.34.58.1 1.75.29 2.33.39.82.8 1.64 1.61 2.46 2.43.84-1.1 1.63-2.22 2.47-3.31.77.82 1.55 1.65 2.33 2.47-.98.56-1.96 1.12-2.93 1.69.67.63 1.34 1.27 2.01 1.91.73-1.03 1.46-2.05 2.2-3.07 4.39-.06 6.21-5.42 10.76-4.12-1.54 1.72-3.83 2.76-5 4.79 3.49-.83 7.31-1.78 9.59-4.8l-2.23-1.87c3.74-.47 7.79-1.04 10.45 2.3-1.69 3.4-5.06 2.11-5.3-1.42-1.27 2.06-2.2 4.32-2.35 6.76 2.66.15 5.31-.15 7.9-.77-1.97 4.52-4.93 8.43-10.29 8.71l1.43 2.06c5.34-.84 12.51-4.41 12.44-10.61 2.16-.92 4.3-2.02 5.49-4.15.36 1.66.78 3.31 1.24 4.94 3.7-1.79 1.31-4.3.7-6.99 2.47-2.29 8.35-1.49 6.99-6.66-2.63.26-5.29.16-7.83-.61 3.67-2.24 8.23-6.63 12.72-4.61-1.06.54-2.12 1.09-3.18 1.63.75 2.71 1.66 5.37 2.67 7.99l2.88 1.53c.21.66.43 1.33.64 2 .41.17 1.22.52 1.62.69-.79-2.36-.42-4.82 2.1-5.86.6.8 1.2 1.6 1.8 2.41 1.52.44 3.05.89 4.57 1.34.08-1.29.17-2.57.25-3.86 2.12-1.31 4.55-1.75 7.01-1.43.9.01 1.8.02 2.7.02-.12 1.03-.24 2.06-.35 3.1 2.73-1.2 5.36-.23 7.67 1.36-.71.73-1.41 1.47-2.12 2.2-3.29-5.78-11.94 3.11-4.02.03 1.38 2.59 4.36 3.44 6.84 4.63 1.26-1.46 1.76-3.28 1.87-5.17 1.97-.04 3.79-.74 5.39-1.88 1.49.53 2.99 1.09 4.48 1.66.92-.78 1.84-1.54 2.74-2.35-1.05 3.74-2.58 7.32-4.07 10.9-5.25 5.9-14.16 7.31-18.33 14.74-6.69 4.07-13.11 8.63-19.78 12.77l-.56.01c-.61.27-1.22.56-1.83.86-2.56-1.66-4.99-.11-7.03 1.55-2.16-.55-4.25-1.33-6.27-2.24-4.22 1.76-7.86-3.56-8.6 3.82 1.7.29 3.4.59 5.1.91-1.97 1.29-4.2 1.1-6.23.07l-.48-1.2c-5.08.95-14.72-3.14-16.09 3.9-1.43-2.33-3.07-4.53-5.06-6.42-.42-.81-.84-1.62-1.25-2.43 2.41-.17 4.83-.34 7.23-.73-4.64-.63-12.08-2.55-7.45-8.58-1.28-.82-2.55-1.63-3.84-2.42-.65 2.54.51 5.61-1.62 7.6-.92-1.07-1.84-2.14-2.75-3.21-.43.92-.85 1.85-1.28 2.78-2.07-2.3-4.7-1.97-7.21-.62.3.91.6 1.81.9 2.72 1.85-.28 3.75-.49 5.57.1.13.5.4 1.52.53 2.03h-1.82c-.45.03-1.34.1-1.78.14-.6 1.46-1.13 2.94-1.67 4.42l-2.49.28c.61-.76 1.23-1.51 1.84-2.27-1.44-1.43-3.48-1.47-5.38-1.51-.1.39-.31 1.18-.42 1.58-3.17.84-6.4 1.66-9.7 1.65l.3 2.29c-.54.23-1.62.67-2.16.89-6.58-2.76-13.19-5.45-19.3-9.16 4.11-2.68.57-6.98-3.35-4.67-1.49-1.89-2.23-4.17-2.73-6.49-4.04-4.32-4.72-10.53-6.18-16.02-1.08-2.01-.93-4.28-.26-6.39.66.18 1.98.54 2.64.71.36-.33 1.07-1 1.43-1.34.88 1.23 1.82 2.42 2.82 3.55-.46.22-1.4.66-1.87.87 1.55-.03 3.11-.07 4.66-.09l-.24-2.93c.71-.3 2.12-.89 2.83-1.19 1.01 1.14 2.03 2.3 3.04 3.45a73.73 73.73 0 004.3-3.4c.79-.06 2.37-.17 3.15-.22.66-1.97.49-3.89-1.31-5.13 1.75-.01 3.5-.03 5.25-.05l1.24 1.52c.71-.46 1.42-.92 2.14-1.37-.82-3.6-4.54-4.5-7.71-3.71-2.16-1.82-.38-4.16 1.67-1.99-.2-2.81-.27-5.63-.18-8.45-1.2.18-2.4.35-3.6.53-.05-1.24-.09-2.47-.14-3.71-.82.09-2.48.26-3.3.35.59 1.15 1.22 2.29 1.87 3.41-1.49.16-2.97.32-4.45.5.55.59 1.1 1.19 1.65 1.78l-2.24.36c-.87.1-1.74.2-2.61.31-2.15-.34-4.24-.98-6.35-1.55.75-.78 1.5-1.57 2.25-2.35l2.75.12c.15-1.52.3-3.05.46-4.57-2.32.31-4.65.54-6.97.73.95 3.53.17 7.89-4.39 6.54-.56 3.54-2.76 5.69-4.43 1.44.18 2.04-.19 4.05-.95 5.95 1.1 1.4 2.21 2.79 3.33 4.19-1.36.93-1.26 2.44-1.13 3.89-.54-.08-1.61-.25-2.14-.33-.61-1.84-1.55-3.51-3.47-4.23-.25.59-.76 1.78-1.02 2.38.69 1.07 1.37 2.14 2.04 3.23-2.26-.57-4.32-1.71-5.6-3.72-.18 1.34-.37 2.68-.57 4.02-.81-1.3-1.62-2.61-2.42-3.92l-1.64.08-.33 3.68c-1.21.63-2.43 1.26-3.65 1.89-2.32-2.53-4.54-5.15-6.96-7.58-2.62-10.85-7.59-21.03-10.68-31.59-6.61 1.47-6.37-3.65-.61-3.69-.18-10.61-1.6-21.17.72-31.71 2.07-1.64 3.67-3.76 5.53-5.62 1.06 1.74.87 3.74.6 5.67 1.44 0 2.87.01 4.3.01.06.92.12 1.85.19 2.78 1.07.36 2.1.82 3.05 1.43.9-1.51.93-3.28 1.06-4.98-1.01.68-2.02 1.37-3.02 2.07.15-1.46.3-2.91.44-4.36-2.3-.16-3.88-1.78-5.3-3.4 1.58-1.14 3.61-.93 5.44-1.3.07-1.17.15-2.34.23-3.5 5.02.74 5.32 5.81 2.09 8.94 2.43-1.16 4.14-3.26 6.04-5.08.5.76 1.01 1.53 1.52 2.3.92-.52 1.84-1.04 2.76-1.57 1.91.99 3.43 2.53 3.22 4.85-.94.77-1.83 1.59-2.67 2.46 1.31-.08 2.61-.28 3.68-1.1-.17-1.35-.3-2.7-.36-4.06 1.17.18 2.32.4 3.49.59-.19-.79-.56-2.38-.74-3.17 2.45.18 3.5 1.83 3.04 4.12 1.3.82 2.62 1.61 3.96 2.36.29-2.85-.63-5.54-2-8 .53-.24 1.59-.73 2.12-.97-.19-1.88-.14-3.76.14-5.62.4.23 1.2.7 1.6.93.76-.35 1.52-.7 2.29-1.05.6.93 1.21 1.86 1.82 2.8 1.9-1.91 2.42-4.63.91-6.94-.31-.85-.92-2.55-1.22-3.4 2.42-1.28 5.21-.59 7.81-.58.34-2.61.25-5.25.13-7.87.95.45 1.91.9 2.87 1.34-.01-2.18-1.06-4.16-1.77-6.17-1.16.16-2.32.32-3.48.49.22-2.01.45-4.02.65-6.03a13.137 13.137 0 01-3.14-4.68c.63.14 1.9.43 2.54.58 2.46-1.81.92-4.91 2.17-7.3l-.69-1.25c1.35-1.79 3.02-3.28 4.92-4.45l-.36 2.57c1.89-.19 3.77-.49 5.57-1.12-3.42-3.23-11.28-6.56-11.5.96-.38.21-1.14.61-1.53.82.11-1.39.24-2.77.32-4.15-2.22.39-2.5 2.91-3.4 4.58-1.14.09-2.28.17-3.42.25 1.1-.87 2.19-1.75 3.3-2.61-1.46-.58-2.91-1.17-4.36-1.75 3.17-.79 7.28-2.23 6.69-6.29 1.7-.82 3.57-.48 5.35-.18 1.51-.58 3.03-1.11 4.58-1.56 1.15-1.16 2.45-2.16 3.9-2.92m-21.38 77.05c2 1.38 3.85 2.95 5.89 4.28-1.24-.05-2.29.3-3.16 1.04 2.02.44 4.06.81 6.09 1.18.25-.83.49-1.66.74-2.49-.63-.12-1.87-.38-2.49-.5-.98-2.06-1.61-4.24-1.84-6.51-2.64-1.2-4.13.96-5.23 3m-16.22 13.61c-.74.05-2.2.16-2.93.22 1.28 3.22-.55 8.34 3.2 9.97-.05-1.7-.13-3.4-.2-5.1 1.54-.08 3.09-.18 4.63-.34.04-1.46.09-2.92.13-4.38l-1.57.24-.4-2.97c-.98.75-1.94 1.54-2.86 2.36m20.42 14.11c-.26.2-.76.61-1.01.81.26 1.64.19 3.31-.15 4.94 1.59 4.29 4.74 1.03 7.8 1.58.14.58.43 1.72.58 2.3.52-1.25 1.04-2.49 1.56-3.74-.88-.56-1.76-1.12-2.63-1.68.11-1.86.41-3.79-.43-5.53-1.47 1.23-4.54 4.5-5.72 1.32m-30.55 16.85c.54.21 1.64.64 2.19.85.66-3.44 2.36-6.91 6.55-5.43.1-1.56-.38-3.05-.77-4.53-4.49 1.23-8.48 1.45-7.97 9.11m4.82 5.18c2.83-.38 3.66 1.7 3.08 4.09 1.08-.05 2.15-.09 3.23-.13 3.65-3.76.2-9.98-5.01-7.79-.5 1.25-1.14 2.47-1.3 3.83m42.81 19.36c-.42.94-.84 1.87-1.26 2.81.59.14 1.76.43 2.35.57-.25 2.28 1.35 3.97 2.77 5.53 4.9 2.3 7.52 2.84 4.98-3.73-2.18-2.61-10.73-1.51-5.32-5.25-1.18 0-2.35.03-3.52.07m50.19 5.32c1.51 1.43 3.27 4.06-.19 4.04l-.4-3.15c-.77.01-2.32.03-3.1.03.07 1.53-.37 3.48 1.69 3.73-.9 1.16-1.79 2.33-2.67 3.51.53.57 1.06 1.16 1.59 1.74.82-1.06 1.89-2.06 2.02-3.47l1.94.27c1.92-1.92 4.62-2.8 6.44-4.86-.53-1.89-2.26-2.29-2.63.01-.28-.25-.83-.74-1.1-.99.91-1.2 1.83-2.4 2.74-3.61-2.38.2-4.37 1.52-6.33 2.75m-18.81 3.28l1.89 2.31c-1.27 2.38-2.19 4.91-2.85 7.52 2.67 1.93 5.42-1.85 8.27-2.14-.49-2.26-2.22-3.65-4.13-4.75.63-.66 1.26-1.33 1.9-1.99-.71-.6-1.42-1.19-2.13-1.79-.99.28-1.97.56-2.95.84m33.7 7.13c-1.12-.1-2.23-.15-3.34-.14.43 1.99.7 4.01.86 6.04 2.68.18 5.53-.7 8.02.63 2.68-2.39 6.74-2.84 8.97-5.65-1.49-.49-3.03-.8-4.59-.8-.94 1.46-1.95 2.9-3.36 3.94-1-.73-1.99-1.46-2.99-2.17-1.17 1.02-3.22 2.93-4.51.94 1.57-1.17 3.09-2.41 4.41-3.85-1.29-.14-2.54.08-3.47 1.06m28.88 4c-1.11 1.59-2.54 2.89-4.11 4.02-.02 2.5 1.29 5.81 4.03 3.24 1.14.12 2.28.27 3.43.4l.64-2.48c1.99-.36 3.2-1.83 3.97-3.6-.99-2.32-2.79-1.34-4.3-.16-1.22-.5-2.43-.97-3.66-1.42z"/><path fill="#fd9124" d="M169.36 43.96c2.2.45 4.28 1.28 6.28 2.29.03.72.08 2.15.11 2.87-1.75-.67-3.18-1.91-4.64-3.04.21 1.23.44 2.46.67 3.69-.41.09-1.23.29-1.64.38.11.48.33 1.42.43 1.9-1.76.13-4.02.19-4.81-1.76 1.16-.47 2.31-.96 3.46-1.44-.96-.85-1.96-1.65-3.04-2.34 1.36-.47 2.65-1.1 3.18-2.55z"/><path fill="#f36708" d="M102.96 48.3c.63-.71 1.27-1.42 1.9-2.12.77.6 1.54 1.21 2.3 1.83-1.08.54-2.17 1.09-3.25 1.64.95 1.91 3.1 2.51 4.84 3.48-1.16 1.23-2.32 2.46-3.46 3.71 2.65.07 5.32-.21 7.71-1.44-.23.89-.45 1.79-.66 2.69.48-.07 1.46-.22 1.95-.3.5-2.79 1.18-6.88 4.84-6.81-.61.86-1.24 1.71-1.89 2.53.42.59.87 1.15 1.29 1.73-1.24 1.8-2.34 3.68-3.34 5.62 1.02-.05 2.05-.1 3.08-.16.17-3.76 4.52-3.04 6.87-4.84 1.02 2 .56 4.06-.59 5.87.15.44.44 1.3.58 1.74 1.88.44 3.75.87 5.63 1.31-2.91-3.48 1.09-5.02 4.22-4.62 1.76 2.36 2.23 5.81.58 8.35 2.14 1.33 1.83 4.7 4.34 5.57-.58-1.77-1.25-3.5-1.75-5.29 2.61-1.84 5.98-1.07 8.96-1.63.33.83.66 1.66.99 2.5-2.17-.1-6.56-2.34-6.33 1.33 5.05.86 10.13-2.63 14.88-.26.06 1.6.29 3.19.54 4.77 3.41 2.43 7 4.67 11.16 5.54 1.82.46 3.67.75 5.54.91-.27.53-.81 1.58-1.08 2.1.31.37.92 1.11 1.23 1.48 5.56-3.26 9.37 3.32 13.96 5.31 1.05-.23 2.11-.46 3.17-.68.33 2.61.11 5.27.66 7.86l3.16-.16c-.12-1.71-.59-3.37-1.4-4.89.84-.49 1.69-.98 2.53-1.47-1.38-1.74-2.92-3.35-4.28-5.11l2.78.03c.23-.58.68-1.73.9-2.31 6.59 1.54 7.15 9.06 3.79 13.58.62.25 1.86.74 2.48.98-.86.58-1.73 1.16-2.59 1.75 2.63 3.1 7.94 6.32 11.57 3.25 1.29 2.92 2.94 5.67 5.36 7.8.34-.49 1.01-1.47 1.34-1.96 3.07.97-.01 9.58-1.36 4.66-.49 0-1.48.01-1.97.01.55 1.69 1.09 3.38 1.61 5.08-.85-.62-1.69-1.24-2.52-1.86-2.03.64-3.94 1.56-5.7 2.73 2.08.98 4.79.94 6.26 2.93-.72 1.28-1.44 2.57-2.13 3.87 3.64 4.29 10.75 15.37 4.83 19.21.94 1.82 1.57 3.78 1.69 5.84-.45-.36-1.34-1.08-1.79-1.45-.99 2.1-2.34 4.07-4.72 4.65-.94-4.42 1.38-9.9-1.42-13.51-.21 1.47-.41 2.95-.6 4.43-.35-.95-.71-1.89-1.06-2.84-.68.71-1.35 1.42-2.02 2.13 1.67 1.98 1.42 4.32-.64 5.92-3.66-5.57-.65-11.53-.27-17.32 1.36.93 2.73 1.85 4.11 2.78l1.86-1.95c-.5-.7-1-1.39-1.5-2.08 4.54.02 2.77-5.15-1.06-4.35-3.33-3.94-1.13-10.34-4.39-13.54.88 5.61-2.06 11.39-6.3 14.98-1.55-3.02-3.3-6.73-7.41-5.94 1.49.96 2.89 2.07 4.15 3.33-1.25.36-2.5.72-3.74 1.07.64 1.7 1.97 3.5.83 5.3-.55-1.06-1.08-2.13-1.59-3.2-3.99-1-8.14 2.86-6.76 6.88 2.76-2.39 6.67-5.12 6.09.68-.35.39-1.04 1.16-1.38 1.55 1.17 1.95 1.67 4.17 1.44 6.45-2.32-.09-4.64-.12-6.95-.08-.25 4.09-4.37 5.95-2.63.63-1.8-.42-3.6-.91-5.19-1.88-.3.21-.91.63-1.21.84-2.6-1.86-5.09-3.86-7.61-5.82-.31.04-.92.11-1.22.15l-1.47-3.21c.27-.8.54-1.6.81-2.39-1.62-2.07-3.13-4.85-6.08-5.01-.14 1.95-.16 3.92-.13 5.88-2.44-2.31-4.31-6.99-8.43-5.08-.27-.79-.54-1.57-.8-2.36.75-.24 2.25-.73 3-.97-.3-.47-.89-1.4-1.19-1.86-1.69.62-3.31 1.42-4.86 2.34.57 1 1.15 2 1.72 2.99-.21.43-.62 1.28-.83 1.71-1.17-.66-2.35-1.3-3.51-1.95.27-1.34.54-2.67.82-4l-3.27-.51c2.29-4.71-1.69-9.11-2.82-2.41-3.2-.73-2.91-4.6-1.45-6.79l-2.28.28c-.97.92-1.97 1.81-3.02 2.64-.39-.94-.78-1.89-1.16-2.83.74-.68 1.49-1.35 2.24-2.02 2.85-1.45-.12-2.39-1.84-2.78-.48-1.33-1.01-2.64-1.9-3.75-.08 1.11-.15 2.22-.2 3.34-1.96-.03-3.14-1.64-4.39-2.89.37-.45 1.1-1.36 1.47-1.81l-1.65-1.62c-1.3 3.67-4 9.67-7.79 4.47-.07.69-.2 2.05-.27 2.73-5.26-2.41-9.38-6.2-14.41-9.29-.42-2.08.52-3.91 1.75-5.52.57-.13 1.72-.4 2.3-.53-.29-.2-.88-.61-1.18-.81-.26-1.17-.54-2.34-.83-3.5l-1.52-.48c.41-1.97.87-3.92 1.4-5.86 1 1.63 1.94 3.3 2.84 4.99 2.01-1.49 2.79-3.92 3.78-6.1-.86-.82-1.72-1.65-2.58-2.47.05-1.39.12-2.78.17-4.17-.48-.26-1.44-.76-1.92-1.02-1.2 5.18-6.93-.61-6.89-3.41 1.58 1.09 3.09 2.44 5.08 2.66-.76-2.15-.81-4.39-.1-6.55-1.51.31-2.86 1.02-4.05 1.98-.43-.66-.86-1.31-1.29-1.96.49-.59.97-1.2 1.44-1.81-.33-.43-.98-1.31-1.31-1.75 1.01-1.28 2.01-2.57 3.04-3.85-.66-1.11-1.28-2.24-1.9-3.36 1-.31 2.01-.6 3.02-.91.05-.42.14-1.27.18-1.69l-3.12.27c.39-1.82.92-3.6 1.62-5.32-1.43-1-2.79-2.12-3.85-3.52 1.79.02 3.59.15 5.37.35m21.1 17.6c1.79 4.08 2.08 10.91-3.5 5.59-2.34.83-4.95 1.76-5.76 4.37 2.7.32 5.59.45 7.87 2.14.15 1.29.32 2.58.5 3.87.99-.1 1.86-.47 2.38-1.36 1.12.41 2.25.78 3.4 1.11-4.21 3.41-2.66 6.84 2.64 4.35.02-1.03.06-2.06.13-3.09 2.29-.09 4.58-.14 6.88-.14l-.12-1.65c.72.4 1.44.79 2.15 1.18-.46 1.32-.93 2.63-1.41 3.94-1.3.71-3.44.86-3.15 2.86-.52.23-1.57.67-2.09.89-.58-.38-1.73-1.14-2.31-1.52.76 4-2.83 8.29-6.83 5.54 1.09-1.32 2.43-2.47 3.14-4.07-.99.19-1.97.39-2.95.61-2.43-3.07-4.76-6.71-5.26-10.66l-2.22 1.68c-1.17-.22-2.34-.43-3.51-.64 1.54-2.18.85-4.64-1.59-5.73-.79 2.57-1.82 5.07-2.44 7.7 2.46-.11 4.93-.15 7.4.02-.41 2.71-4.55.99-4.7 3.48 1.64-.24 3.28-.48 4.91-.73-.3 2.56-1.43 4.91-2.85 7.02-1.32-.1-2.65-.02-3.96.15 2.43 2.32 1.74 5.27.97 8.15l3.08.28c-.48-1.31-.85-2.67-.81-4.08.84-.53 1.68-1.07 2.51-1.61-.18-.41-.53-1.24-.71-1.65.95-1.94 2.74-2.74 4.75-1.75-.11.8-.2 1.6-.3 2.41.77-.11 1.55-.23 2.32-.34 1.43 2.25 2.53 4.96 5.07 6.18.09 4.88 3.27 1.84 3.13-1.3-.71-.15-2.15-.45-2.87-.6.6-2.11 2.73-2.53 4.63-2.88.13-.61.38-1.85.51-2.47 1.71-1.52 6.17-1.39 4.86-4.63 2.19-.5 4.11 1.25 6.21 1.61-2.4-1.97-3.37-5.18.79-5.61-.81-.69-1.62-1.37-2.43-2.06l1.03-.87c-.34-1.26-.67-2.51-.99-3.77 3.69-.28 2.63 5.45 3.95 7.88-.64.8-1.28 1.59-1.92 2.38 1.56 1.02 3.21 1.99 4.26 3.59-.4.39-1.2 1.18-1.6 1.58.2 1.16.41 2.32.62 3.49-.38 0-1.13-.01-1.5-.02-.08-2.23-.26-4.45-.53-6.67-1.46 3.04-4.27 2.8-7.04 1.86.6 1.02 1.23 2.02 1.87 3.01-1.57-.56-3.13-1.1-4.71-1.62.24 1.2.5 2.41.83 3.6-.3.53-.89 1.61-1.19 2.15 4.65 2.52 4.68 8.86 3.05 13.1-.99-1.07-2.27-1.48-3.82-1.21-.11 1.68 1.19 2.43 2.68 2.6 1.47 3.2 12.56-3.55 7.59 2.18 3.06 1.09 5.9-1.05 9-.22l1.38.12c1.05 1.95 2.92 2.81 5.1 2.37-.21-.9-.42-1.8-.63-2.69 1.41-.16 2.38-1.04 3.11-2.2-2-.5-3.8.35-5.4 1.45-.89-.87-1.76-1.75-2.65-2.62 2.26-2.38 3.56-5.41 4.94-8.33-4.22-.78-.29-3.05 1.91-2.81-.03-.73-.1-2.19-.13-2.92.6-.29 1.8-.88 2.4-1.17-.39-2.19-2.21-3.62-3.55-5.24-.4.35-1.19 1.05-1.59 1.4-1.09-3.69 4.3-6.34.3-9.98 4.52-6.23-3.9-.74-7.06-1.06.4-.29 1.19-.86 1.58-1.15-1.92-5.48-4.44.72-7.8-.93 1.58-1.45 3.92-2.72 2.38-5.14-1.36.9-2.59 2.09-4.23 2.42.39-1.14.81-2.27 1.24-3.38-.56-.12-1.68-.35-2.25-.47-.77 1.44-1.27 2.99-1.63 4.58-1.79-1.07-3.64-2.03-5.51-2.93.66 1.52 1.28 3.05 1.88 4.6-1.53.34-3.05.71-4.56 1.1l-1.14-2.49c.89-.27 1.79-.49 2.7-.67.15-1.78-1.28-2.71-2.51-3.66.45-.4 1.35-1.2 1.79-1.61-2.29-.96-4.78-1.15-7.24-1.15-.56-1.86-.19-4.96-2.87-5.04m51.85 25.87c-1.46 1.2-3.33 2.16-3.99 4.05 1.02-.19 2.03-.39 3.05-.59.14.57.44 1.71.58 2.28l2.55.4c.39.45 1.18 1.33 1.57 1.78.29-.23.87-.68 1.16-.9-.11-3.18-6.48-4.38-2.23-7.17.4-5.82-3.98-5.66-2.69.15m8.25-.63c-.57 2.1 3.03 3.85.25 5.27.43.56.87 1.12 1.31 1.69l-.56 2.01c1.91.81 4.58.69 5.67-1.37-2.33-2.54-2.79-6.93-6.67-7.6m.03 11.79c.56 1.7 1.09 3.4 1.59 5.12-2.27.63-1.67-1.83-2-3.24-1.53 4.82 3.42 12.35-6.91 10.99.21 2.44.14 5.89-3.4 5.01l.32 2.58c1.15-.32 2.3-.65 3.46-.97 1.15 1.21 2.49 2.2 4 2.93 1.32-2.52.11-5.44-.58-7.55 3.81-.18 8.41-4.15 5.12-7.88.61-1.2 1.21-2.4 1.79-3.6 1.38 3.01 1.16 6.38 1.86 9.56.5-.12 1.5-.34 2-.45 0-1.03-.01-2.07-.01-3.1 1.7-.97 3.57-1.85 4.39-3.76-3.11-.85-5.44-3.24-8.51-4.13.07-.8.15-1.59.23-2.38-1.14.19-2.29.4-3.35.87m-12.76 3.56c-1.49 1.47-2.93 3.19-5.11 3.58-.71 1.94-.97 4-.95 6.06 1.17 0 2.34 0 3.52.01-1.05-1.4-1.46-3.02-1.22-4.75 1.52 1.91 3.43 3.44 5.77 4.2 1.09-1.54 2.24-3.03 3.44-4.49-.4-.97-.81-1.95-1.22-2.93-1.41-.55-2.82-1.12-4.23-1.68m22 9.13c-.73 1.24-.88 3.07-2.59 3.42-.32-.36-.96-1.08-1.28-1.43-.28.62-.55 1.25-.82 1.88.51.69 1.03 1.38 1.55 2.07 1.44-.1 3.2-1.07 4.13.57.69-1.91 2.37.05 3.21.74-.09-1.25-.16-2.51-.2-3.77-.73 1.7-2.27 1.83-3.95 1.53-.05-1.08-.16-3.24-.21-4.32.57 0 1.71-.01 2.28-.01l.04-.68h-2.16z"/><path fill="#e44a05" d="M32.47 57.86c3.48-4.41 8.05-7.82 12.07-11.73-.29 2.13-.64 4.26-1.03 6.38-2.27.85-4.92 1.21-6.58 3.15 1.24.73 2.47 1.47 3.73 2.15-3.13 3.67.93 5.43 3.4 7.63-1.74.32-3.49.6-5.23.88 1.17.38 2.35.77 3.53 1.15l.2 1.63c1.62-.33 3.24-.67 4.86-1.01-.2 1-.4 2-.59 3 1.03-.27 2.07-.54 3.11-.8-.09.48-.25 1.46-.34 1.95a532.61 532.61 0 00-5.28 4.12c.67.75 1.33 1.5 2 2.25 1.56-2.83 4.52-3.54 7.52-2.96.3-1.23.59-2.46.88-3.69-.38-.61-.76-1.22-1.13-1.82.2-.91.41-1.81.61-2.71 1.09 2.47 2.27.57 2.89-.96l-3.19-.8c1.01-1.63 1.95-3.31 2.92-4.97l-.33-2.54c2.44.17 4.87.42 7.28.84-.76 1.08-1.54 2.15-2.31 3.22.7 1.77 1.76 3.36 3.14 4.68-.2 2.01-.43 4.02-.65 6.03 1.16-.17 2.32-.33 3.48-.49.71 2.01 1.76 3.99 1.77 6.17-.96-.44-1.92-.89-2.87-1.34.12 2.62.21 5.26-.13 7.87-2.6-.01-5.39-.7-7.81.58.3.85.91 2.55 1.22 3.4-3.13 1.97-6.68 3.05-10.26 3.83-.3-.45-.89-1.36-1.18-1.81.49 3.18.66 6.4.35 9.61.74-.25 1.48-.51 2.21-.78 1.37 2.46 2.29 5.15 2 8-1.34-.75-2.66-1.54-3.96-2.36.46-2.29-.59-3.94-3.04-4.12.18.79.55 2.38.74 3.17-1.17-.19-2.32-.41-3.49-.59.06 1.36.19 2.71.36 4.06-1.07.82-2.37 1.02-3.68 1.1.84-.87 1.73-1.69 2.67-2.46.21-2.32-1.31-3.86-3.22-4.85-.92.53-1.84 1.05-2.76 1.57-.51-.77-1.02-1.54-1.52-2.3 1.25-.67 2.53-1.26 3.81-1.86l.2-2.05c-1.56.57-3.13 1.14-4.69 1.72-3.35-3.47-3.61-9.34-9.36-9.99.84-.68 1.68-1.36 2.53-2.04.05.44.17 1.33.23 1.78 1.16.34 2.31.68 3.47 1.03.71 1.84.76 4.27 2.72 5.3.53-1.31 1.05-2.63 1.58-3.95-.74-2.05-1.52-4.09-2.33-6.12-.88.66-1.77 1.31-2.66 1.96-.4-2.19 1.08-4.14 1.42-6.26-1.04-.13-2.08-.24-3.12-.36-.46-.55-.91-1.1-1.36-1.65 4.29-1.05 3.61-5.99 5.61-9.08 2.4-1.42 3.67-3.88 4.43-6.48-.58.1-1.72.28-2.29.38.49-2.13 1.07-4.23 1.7-6.32-1.42.21-2.84.41-4.25.66z"/><path fill="#ed5706" d="M134.48 47.37c.51-.03 1.53-.1 2.04-.13-.43 2.93 1.29 5.54 4.41 4.19-.88 2.79-4.28 2.4-6.57 2.04-1.63 2.72-5.49 4.13-8.19 2.09.34-1.04.72-2.07 1.12-3.1 1.49-.12 2.99-.27 4.49-.43.86-1.57 1.77-3.12 2.7-4.66z"/><path fill="#f86f07" d="M44.83 59.16c2.21-2.72 4.55-5.34 6.8-8.02 1.77 5.28 2.92 10.37.22 15.74-1.37-.26-2.73-.55-4.1-.77 1.01 1.34 2.23 2.52 3.93 2.86.74-1.09 1.49-2.19 2.22-3.3l3.19.8c-.62 1.53-1.8 3.43-2.89.96-.2.9-.41 1.8-.61 2.71.37.6.75 1.21 1.13 1.82-.29 1.23-.58 2.46-.88 3.69-3-.58-5.96.13-7.52 2.96-.67-.75-1.33-1.5-2-2.25 1.75-1.38 3.51-2.76 5.28-4.12.09-.49.25-1.47.34-1.95-1.04.26-2.08.53-3.11.8.19-1 .39-2 .59-3-1.62.34-3.24.68-4.86 1.01l-.2-1.63c-1.18-.38-2.36-.77-3.53-1.15 1.74-.28 3.49-.56 5.23-.88-2.47-2.2-6.53-3.96-3.4-7.63 1.33.63 2.75.99 4.17 1.35z"/><path fill="#fb8214" d="M32.47 57.86c1.41-.25 2.83-.45 4.25-.66-.63 2.09-1.21 4.19-1.7 6.32.57-.1 1.71-.28 2.29-.38-.76 2.6-2.03 5.06-4.43 6.48-2 3.09-1.32 8.03-5.61 9.08.45.55.9 1.1 1.36 1.65 1.04.12 2.08.23 3.12.36-.34 2.12-1.82 4.07-1.42 6.26.89-.65 1.78-1.3 2.66-1.96.81 2.03 1.59 4.07 2.33 6.12-.53 1.32-1.05 2.64-1.58 3.95-1.96-1.03-2.01-3.46-2.72-5.3-1.16-.35-2.31-.69-3.47-1.03-.06-.45-.18-1.34-.23-1.78-.85.68-1.69 1.36-2.53 2.04 5.75.65 6.01 6.52 9.36 9.99 1.56-.58 3.13-1.15 4.69-1.72l-.2 2.05c-1.28.6-2.56 1.19-3.81 1.86-1.9 1.82-3.61 3.92-6.04 5.08 3.23-3.13 2.93-8.2-2.09-8.94-.08 1.16-.16 2.33-.23 3.5-1.83.37-3.86.16-5.44 1.3 1.42 1.62 3 3.24 5.3 3.4-.14 1.45-.29 2.9-.44 4.36 1-.7 2.01-1.39 3.02-2.07-.13 1.7-.16 3.47-1.06 4.98-.95-.61-1.98-1.07-3.05-1.43-.07-.93-.13-1.86-.19-2.78-1.43 0-2.86-.01-4.3-.01.27-1.93.46-3.93-.6-5.67-1.86 1.86-3.46 3.98-5.53 5.62.54-13.22 5.31-25.77 11.79-37.17-.68.34-2.02 1.03-2.7 1.37-.12-1.67.52-3.06 1.93-4.18.26-.07.76-.22 1.02-.29-.63-4.06 2.84-6.27 4.47-9.36.33.13 1.01.38 1.35.51.11-.39.32-1.16.43-1.55z"/><path fill="#fc9a33" d="M174.78 60.36c1.64.16 3.15.8 4.4 1.88-1.24.14-2.47.37-3.71.52 1.5 2.75 4.4 3.53 7.3 2.79.91 3.42 3.07 6.25 5.52 8.72-2.99-1.14-5.59-3.04-8.43-4.48-1.08.23-2.16.45-3.24.68.02-.82.05-1.64.08-2.46l-2.21-.04c-.47 1.3-1.34 2.19-2.61 2.66.34-3.05-1.54-4.91-3.1-1.26-.88-1.44-1.74-2.89-2.63-4.32.27-.53.82-1.59 1.1-2.11 2.27.08 4.04 1.67 5.96 2.69.53-1.75 1.06-3.51 1.57-5.27z"/><path fill="#fc9a2f" d="M153.21 62.08c1.85.25 3.7.58 5.51 1.06.02.61.05 1.81.07 2.42-1.26.23-2.51.47-3.76.7.84 1.44 1.77 2.83 2.75 4.17-.28.08-.85.22-1.13.3-4.75-2.37-9.83 1.12-14.88.26-.23-3.67 4.16-1.43 6.33-1.33-.33-.84-.66-1.67-.99-2.5-2.98.56-6.35-.21-8.96 1.63-.15-.99-.28-1.99-.4-2.99 4.46-1.71 10-.91 14.17 1.4 1.12-1.05 2.24-2.11 3.37-3.16-.7-.65-1.39-1.3-2.08-1.96z"/><path fill="#fab060" d="M163.18 63.68c1.25-.13 2.24.32 2.97 1.37.89 1.43 1.75 2.88 2.63 4.32 1.56-3.65 3.44-1.79 3.1 1.26 1.27-.47 2.14-1.36 2.61-2.66l2.21.04c-.03.82-.06 1.64-.08 2.46 1.08-.23 2.16-.45 3.24-.68 2.84 1.44 5.44 3.34 8.43 4.48 3.56 1.4 4.49 5.56 6.43 8.5-1.37.6-2.75 1.2-4.12 1.82-.09.73-.16 1.46-.24 2.19-1.79.55-3.67 1.04-5.5.31.67-.67 1.35-1.34 2.03-2-.98-4.4-6.14-1.82-9.09-3.88.26-.33.8-.98 1.07-1.3-3.18-2.63-5.86-7.14-10.62-6.44.12-1.39.64-2.65 1.54-3.78-1.91 1.17-3.48 2.74-4.49 4.76l4.08.12c-.73 4.17 3.02 5.76 6.14 7.1l-1.63.28c-1.87-.16-3.72-.45-5.54-.91.78-4.63-2.37-6.4-6.56-5.52.7-.85 1.41-1.7 2.12-2.55-.75-.76-1.49-1.53-2.23-2.3 1.3-1.06 3.02-.82 4.59-.94-.74-2.16-1.87-4.14-3.09-6.05m14.47 10.24c1.37 4.13 6.51 4.41 8.32 8.11 1.15.46 2.35.76 3.6.61.02-2.07-.34-4.11-1.18-6.02-3.41-1.47-7.21-1.57-10.74-2.7z"/><path fill="#ed5403" d="M210.33 64.49c5.36 1.14 5.73 8.19 11.16 9.14 1.63 2.97 2.11 6.32 2 9.67.57.24 1.71.73 2.28.98-4.15 5.69 5.67 11.06-.51 17.04-.21-.64-.62-1.93-.82-2.57.11-3.43-1.81-6.3-2.72-9.48 2.64-10.18-7.67-16.4-11.39-24.78z"/><path fill="#f97e12" d="M124.06 65.9c2.68.08 2.31 3.18 2.87 5.04 2.46 0 4.95.19 7.24 1.15-.44.41-1.34 1.21-1.79 1.61 1.23.95 2.66 1.88 2.51 3.66-.91.18-1.81.4-2.7.67l1.14 2.49c1.51-.39 3.03-.76 4.56-1.1-.6-1.55-1.22-3.08-1.88-4.6 1.87.9 3.72 1.86 5.51 2.93.36-1.59.86-3.14 1.63-4.58.57.12 1.69.35 2.25.47-.43 1.11-.85 2.24-1.24 3.38 1.64-.33 2.87-1.52 4.23-2.42 1.54 2.42-.8 3.69-2.38 5.14 3.36 1.65 5.88-4.55 7.8.93-.39.29-1.18.86-1.58 1.15 3.16.32 11.58-5.17 7.06 1.06 4 3.64-1.39 6.29-.3 9.98.4-.35 1.19-1.05 1.59-1.4 1.34 1.62 3.16 3.05 3.55 5.24-.6.29-1.8.88-2.4 1.17.03.73.1 2.19.13 2.92-2.2-.24-6.13 2.03-1.91 2.81-1.38 2.92-2.68 5.95-4.94 8.33.89.87 1.76 1.75 2.65 2.62 1.6-1.1 3.4-1.95 5.4-1.45-.73 1.16-1.7 2.04-3.11 2.2.21.89.42 1.79.63 2.69-2.18.44-4.05-.42-5.1-2.37l-1.38-.12c.01-.7.04-2.1.05-2.8-1.54.24-3.07.48-4.6.73-.96-.96-1.9-1.93-2.85-2.89-.8.22-1.59.44-2.38.66.24-2.67-2.46-2.63-4.33-3.11 1.18 1.11 2.37 2.19 3.57 3.27-1.77 1.32-3.93 1.8-6.05 2.18-1.49-.17-2.79-.92-2.68-2.6 1.55-.27 2.83.14 3.82 1.21 1.63-4.24 1.6-10.58-3.05-13.1.3-.54.89-1.62 1.19-2.15-.33-1.19-.59-2.4-.83-3.6 1.58.52 3.14 1.06 4.71 1.62-.64-.99-1.27-1.99-1.87-3.01 2.77.94 5.58 1.18 7.04-1.86.27 2.22.45 4.44.53 6.67.37.01 1.12.02 1.5.02-.21-1.17-.42-2.33-.62-3.49.4-.4 1.2-1.19 1.6-1.58-1.05-1.6-2.7-2.57-4.26-3.59.64-.79 1.28-1.58 1.92-2.38-1.32-2.43-.26-8.16-3.95-7.88.32 1.26.65 2.51.99 3.77l-1.03.87c.81.69 1.62 1.37 2.43 2.06-4.16.43-3.19 3.64-.79 5.61-2.1-.36-4.02-2.11-6.21-1.61-.47.14-1.41.42-1.88.55-.29-2 1.85-2.15 3.15-2.86.48-1.31.95-2.62 1.41-3.94-.71-.39-1.43-.78-2.15-1.18l.12 1.65c-2.3 0-4.59.05-6.88.14-.07 1.03-.11 2.06-.13 3.09-5.3 2.49-6.85-.94-2.64-4.35-1.15-.33-2.28-.7-3.4-1.11-.52.89-1.39 1.26-2.38 1.36a170.6 170.6 0 01-.5-3.87c-2.28-1.69-5.17-1.82-7.87-2.14.81-2.61 3.42-3.54 5.76-4.37 5.58 5.32 5.29-1.51 3.5-5.59z"/><path fill="#fba139" d="M198.91 69.04c1.87.88 3.96 1.39 5.59 2.72l-2.75.36c.66 1.77 2.19 2.67 3.92 3.21.06.57.17 1.72.23 2.29l-1.8-.32c.18 1.43.32 2.86.29 4.31a92.45 92.45 0 01-2.96-2.11c.55-3.5-2.92-5.77-5.94-4-.98-1.15-1.93-2.32-2.84-3.52.44-.16 1.3-.47 1.74-.62.8 1.9 2.58.8 4.02.5.16-.94.33-1.88.5-2.82z"/><path fill="#fce4c5" d="M165.3 74.45c1.01-2.02 2.58-3.59 4.49-4.76-.9 1.13-1.42 2.39-1.54 3.78 4.76-.7 7.44 3.81 10.62 6.44-.27.32-.81.97-1.07 1.3-.76.16-1.52.32-2.28.46-3.12-1.34-6.87-2.93-6.14-7.1l-4.08-.12z"/><path fill="#fde3c2" d="M177.65 73.92c3.53 1.13 7.33 1.23 10.74 2.7.84 1.91 1.2 3.95 1.18 6.02-1.25.15-2.45-.15-3.6-.61-1.81-3.7-6.95-3.98-8.32-8.11z"/><path fill="#fb8e1f" d="M112.45 75.17c2.44 1.09 3.13 3.55 1.59 5.73 1.17.21 2.34.42 3.51.64l2.22-1.68c.5 3.95 2.83 7.59 5.26 10.66.98-.22 1.96-.42 2.95-.61-.71 1.6-2.05 2.75-3.14 4.07 4 2.75 7.59-1.54 6.83-5.54.58.38 1.73 1.14 2.31 1.52.52-.22 1.57-.66 2.09-.89.47-.13 1.41-.41 1.88-.55 1.31 3.24-3.15 3.11-4.86 4.63-.13.62-.38 1.86-.51 2.47-1.9.35-4.03.77-4.63 2.88.72.15 2.16.45 2.87.6.14 3.14-3.04 6.18-3.13 1.3-2.54-1.22-3.64-3.93-5.07-6.18-.77.11-1.55.23-2.32.34.1-.81.19-1.61.3-2.41-2.01-.99-3.8-.19-4.75 1.75.18.41.53 1.24.71 1.65-.83.54-1.67 1.08-2.51 1.61-.04 1.41.33 2.77.81 4.08l-3.08-.28c.77-2.88 1.46-5.83-.97-8.15 1.31-.17 2.64-.25 3.96-.15 1.42-2.11 2.55-4.46 2.85-7.02-1.63.25-3.27.49-4.91.73.15-2.49 4.29-.77 4.7-3.48-2.47-.17-4.94-.13-7.4-.02.62-2.63 1.65-5.13 2.44-7.7z"/><path fill="#ec5b06" d="M81.06 77.1l1.58-.89c.57.92 1.13 1.85 1.69 2.78 2.02-.9 3.82-2.21 5.87-3.06l2.34 2.25c.5-.49 1.51-1.48 2.02-1.97 1.11.67 2.21 1.34 3.32 2.01.39 1.91.77 3.83 1.13 5.75-.83.26-1.65.53-2.48.8-.35 2.25-.95 4.48-2.31 6.35 1.59 2.9 5.33.62 7.81.68l1.52.48c.29 1.16.57 2.33.83 3.5.3.2.89.61 1.18.81-.58.13-1.73.4-2.3.53-1.23 1.61-2.17 3.44-1.75 5.52-1.15-.47-2.33-.89-3.5-1.31-.1 1.52-.21 3.03-.31 4.55-1.38-.56-2.76-1.12-4.13-1.68 1.1-2.98 2.42-5.88 4.07-8.6-4.91-.48-6.37-5.51-5.67-9.72-1.09-.24-2.18-.46-3.26-.69-.53 1.46-.89 3.1-2.14 4.15-1.22-5.77-5.56 1.56-8.66-1.21l.16-2.89c2.45-.4 4.91-.75 7.37-1.06-1.42-2.38-2.89-4.74-4.38-7.08z"/><path fill="#fd9e34" d="M216.34 77.03c2.6 3.69 4.22 7.91 5.38 12.24.91 3.18 2.83 6.05 2.72 9.48-2.18 3.17-4.02 6.85-3.82 10.79-.85-.29-1.71-.56-2.57-.83-.14.2-.43.6-.58.8-.33.49-1 1.47-1.34 1.96-2.42-2.13-4.07-4.88-5.36-7.8.53-1.36 1.1-2.7 1.68-4.04 1.85 2.3 3.49 4.77 4.96 7.33 1.14-1.92 1.57-4.13 2.12-6.27-2.09-1.79-3.88-3.91-5.24-6.31 3.93-1.14 5.05 2.28 6.65 4.95 3.7-2.08-1.64-6.62-4.52-6.6-.16-.64-.47-1.93-.63-2.57-3.98.47-4.86-2.67-.83-3.51.95 1.47 1.9 2.94 2.87 4.4-.01-1.35-.02-2.69-.02-4.04-1.32-1.5-2.64-3-3.95-4.5.54.02 1.6.07 2.13.09.12-1.86.23-3.71.35-5.57z"/><path fill="#f9aa50" d="M207.13 79.95c1.59.73 3.07 1.67 4.52 2.65.05.63.13 1.89.18 2.51-.7-.97-1.39-1.94-2.08-2.91-1.01 1.16-.03 2.56.27 3.77-.54 1.29-1.08 2.58-1.62 3.88-.14-.63-.42-1.89-.55-2.52l-3.43.3c-1.04-1.44-2.67-2.7-2.77-4.6 2.18.48 4.29 1.33 6.55 1.43-.5-1.47-.88-2.97-1.07-4.51z"/><path fill="#fc851b" d="M175.91 91.77c-1.29-5.81 3.09-5.97 2.69-.15-4.25 2.79 2.12 3.99 2.23 7.17-.29.22-.87.67-1.16.9-.39-.45-1.18-1.33-1.57-1.78l-2.55-.4c-.14-.57-.44-1.71-.58-2.28-1.02.2-2.03.4-3.05.59.66-1.89 2.53-2.85 3.99-4.05z"/><path fill="#fd8a1d" d="M59.61 89.12c1.51 2.31.99 5.03-.91 6.94-.61-.94-1.22-1.87-1.82-2.8-.77.35-1.53.7-2.29 1.05-.4-.23-1.2-.7-1.6-.93-.28 1.86-.33 3.74-.14 5.62-.53.24-1.59.73-2.12.97-.73.27-1.47.53-2.21.78.31-3.21.14-6.43-.35-9.61.29.45.88 1.36 1.18 1.81 3.58-.78 7.13-1.86 10.26-3.83z"/><path fill="#fdab4e" d="M184.16 91.14c3.88.67 4.34 5.06 6.67 7.6-1.09 2.06-3.76 2.18-5.67 1.37l.56-2.01c-.44-.57-.88-1.13-1.31-1.69 2.78-1.42-.82-3.17-.25-5.27z"/><path fill="#fee6c0" d="M214.21 94.41l.08-.03c1.36 2.4 3.15 4.52 5.24 6.31-.55 2.14-.98 4.35-2.12 6.27-1.47-2.56-3.11-5.03-4.96-7.33l-1.16-.29c.02-.44.07-1.33.1-1.78.99-1 1.9-2.07 2.82-3.15z"/><path fill="#f9770c" d="M224.44 98.75c.2.64.61 1.93.82 2.57 1.71 7.47 1.4 15.2 1.96 22.8.38 19.61-6.83 38.99-16.82 56.1-.9.81-1.82 1.57-2.74 2.35-1.49-.57-2.99-1.13-4.48-1.66-1.6 1.14-3.42 1.84-5.39 1.88-.11 1.89-.61 3.71-1.87 5.17-2.48-1.19-5.46-2.04-6.84-4.63-7.92 3.08.73-5.81 4.02-.03.71-.73 1.41-1.47 2.12-2.2-2.31-1.59-4.94-2.56-7.67-1.36.11-1.04.23-2.07.35-3.1-.9 0-1.8-.01-2.7-.02.24-1.54.3-3.09.28-4.64 2.08.79 4.08 1.8 6 2.95.8-2.89 2.27-5.82 5.31-6.84.56 1.24 1.12 2.49 1.69 3.74 1.85-2.44 3.43-5.19 3.2-8.36-.65-.25-1.95-.75-2.6-1.01 2.37-2.02 5.32-3.16 7.81-5 .63 1.12 1.25 2.25 1.88 3.37.46-.25 1.38-.75 1.84-1.01-.51-2-.56-4.39-2.49-5.61-2.09 1.65-4.47 3.07-7.26 2.56.88-1.31 2.12-2.29 3.32-3.29-4.67 1.31-8.43-1.05-10.47-5.22 1.29-.36 2.59-.72 3.89-1.07.24-3.04-1.84-5.51-3.07-8.12.21-.39.63-1.17.83-1.56.81-.07 1.61-.15 2.42-.23.37-.67.75-1.33 1.12-2-11.87-3.68-2.79 10.24-10.03 13.75l1.97 1.29c-2.28 6.71 3.07 11.87 8.51 14.67-2.34 2.41-6.33 1.73-7.1-1.75-.87 1.08-1.74 2.15-2.6 3.23 2.24 6.37-3.4.08-4.08-2.77-.73.08-1.46.17-2.18.25-.21-1.71-.42-3.44-.64-5.15-2.02-.24-3.61-1.66-3.09-3.83-1.66-.54-3.32-1.09-4.96-1.67l-1.24-1.43c1.91-.15 4.98-.08 4.68-2.83-2.03-.17-4.06-.33-6.08-.5.63-1.05 1.26-2.09 1.97-3.08.3-.21.91-.63 1.21-.84 1.59.97 3.39 1.46 5.19 1.88-1.74 5.32 2.38 3.46 2.63-.63 2.31-.04 4.63-.01 6.95.08.23-2.28-.27-4.5-1.44-6.45.34-.39 1.03-1.16 1.38-1.55.58-5.8-3.33-3.07-6.09-.68-1.38-4.02 2.77-7.88 6.76-6.88.51 1.07 1.04 2.14 1.59 3.2 1.14-1.8-.19-3.6-.83-5.3 1.24-.35 2.49-.71 3.74-1.07a25.042 25.042 0 00-4.15-3.33c4.11-.79 5.86 2.92 7.41 5.94 4.24-3.59 7.18-9.37 6.3-14.98 3.26 3.2 1.06 9.6 4.39 13.54 3.83-.8 5.6 4.37 1.06 4.35.5.69 1 1.38 1.5 2.08l-1.86 1.95c-1.38-.93-2.75-1.85-4.11-2.78-.38 5.79-3.39 11.75.27 17.32 2.06-1.6 2.31-3.94.64-5.92.67-.71 1.34-1.42 2.02-2.13.35.95.71 1.89 1.06 2.84.19-1.48.39-2.96.6-4.43 2.8 3.61.48 9.09 1.42 13.51 2.38-.58 3.73-2.55 4.72-4.65.45.37 1.34 1.09 1.79 1.45-.12-2.06-.75-4.02-1.69-5.84 5.92-3.84-1.19-14.92-4.83-19.21.69-1.3 1.41-2.59 2.13-3.87-1.47-1.99-4.18-1.95-6.26-2.93 1.76-1.17 3.67-2.09 5.7-2.73.83.62 1.67 1.24 2.52 1.86-.52-1.7-1.06-3.39-1.61-5.08.49 0 1.48-.01 1.97-.01 1.35 4.92 4.43-3.69 1.36-4.66.15-.2.44-.6.58-.8.86.27 1.72.54 2.57.83-.2-3.94 1.64-7.62 3.82-10.79z"/><path fill="#fc8c1d" d="M184.19 102.93c1.06-.47 2.21-.68 3.35-.87-.08.79-.16 1.58-.23 2.38 3.07.89 5.4 3.28 8.51 4.13-.82 1.91-2.69 2.79-4.39 3.76 0 1.03.01 2.07.01 3.1-.5.11-1.5.33-2 .45-.7-3.18-.48-6.55-1.86-9.56-.58 1.2-1.18 2.4-1.79 3.6 3.29 3.73-1.31 7.7-5.12 7.88.69 2.11 1.9 5.03.58 7.55-1.51-.73-2.85-1.72-4-2.93-1.16.32-2.31.65-3.46.97l-.32-2.58c3.54.88 3.61-2.57 3.4-5.01 10.33 1.36 5.38-6.17 6.91-10.99.33 1.41-.27 3.87 2 3.24-.5-1.72-1.03-3.42-1.59-5.12z"/><path fill="#f06009" d="M86.55 105.97c2.01-3.03 4.96-.7 6.48 1.38 1.1.05 2.19.09 3.29.14.08.36.23 1.08.31 1.44 2.43-1.46 5.15-2.26 7.94-2.68.45.89.88 1.79 1.31 2.69-.17.26-.49.79-.65 1.05-2.47-1.98-6.66-2.39-6.1 2-2.76 3.35-13.87 7.78-9.57-.01-2.02-1.36-2.27-3.89-3.01-6.01z"/><path fill="#f16506" d="M116.19 109.2c3.79 5.2 6.49-.8 7.79-4.47l1.65 1.62c-.37.45-1.1 1.36-1.47 1.81 1.25 1.25 2.43 2.86 4.39 2.89.05-1.12.12-2.23.2-3.34.89 1.11 1.42 2.42 1.9 3.75 1.72.39 4.69 1.33 1.84 2.78-2.36-.52-4.77-.77-7.18-.44-.23-.57-.67-1.72-.9-2.3-1.62.62-3.24 1.25-4.85 1.88.55 1.14 1.1 2.27 1.66 3.41-1.04-.07-2.07-.13-3.1-.19-1 1.13-1.96 2.43-3.56 2.67-.01-.63-.03-1.9-.05-2.53a67.5 67.5 0 00-5.59 2.28c-.11-.68-.34-2.05-.45-2.73-1.97-1.57-4.03-3.05-5.74-4.92.53-.22 1.6-.67 2.14-.9 1.88.64 3.73 1.38 5.57 2.12.18.53.53 1.6.71 2.14 1.66-1.03 3.57-1.11 5.45-.87l-.68-1.93c.07-.68.2-2.04.27-2.73z"/><path fill="#fea03a" d="M85.49 107.12c.27-.28.79-.86 1.06-1.15.74 2.12.99 4.65 3.01 6.01-4.3 7.79 6.81 3.36 9.57.01-.56-4.39 3.63-3.98 6.1-2l-.36.48c-.54.23-1.61.68-2.14.9 1.71 1.87 3.77 3.35 5.74 4.92.11.68.34 2.05.45 2.73-1.26-1.12-2.54-2.29-4.18-2.83.14.56.43 1.67.57 2.23-2.05.7-2.36 2.43-1.74 4.28-.53-.02-1.6-.07-2.13-.09-.02-1.23-.03-2.46-.04-3.69-.55-.13-1.67-.38-2.22-.51 1.43.1 2.86.2 4.3.31 1.91-3.82-1.91-5.18-4.8-6.26-2.42 1.34-3.39 4.13-5.63 5.7.85.76 1.71 1.52 2.56 2.29-1.35-.01-2.7-.01-4.05-.01.19-.51.58-1.55.77-2.07-.56.05-1.68.14-2.24.19-.53.09-1.57.29-2.09.39-.52.53-1.02 1.06-1.52 1.6.04-.84.13-2.53.17-3.37-1.3.3-2.59.61-3.88.94-.3-.47-.9-1.41-1.2-1.89.81-1.22 1.62-2.45 2.41-3.69-1.93-.26-3.62.72-5.33 1.4-.02.72-.08 2.16-.11 2.87-.51-.73-1.02-1.46-1.52-2.2-.7.01-2.1.02-2.8.03 1.84-.83 3.59-1.87 5.12-3.21 2.39.27 4.72.87 7.04 1.47-.02-1.97-.13-3.95-.89-5.78z"/><path fill="#fea343" d="M171.43 106.49c1.41.56 2.82 1.13 4.23 1.68.41.98.82 1.96 1.22 2.93-1.2 1.46-2.35 2.95-3.44 4.49-2.34-.76-4.25-2.29-5.77-4.2-.24 1.73.17 3.35 1.22 4.75-1.18-.01-2.35-.01-3.52-.01-.02-2.06.24-4.12.95-6.06 2.18-.39 3.62-2.11 5.11-3.58z"/><g fill="#fab15b"><path d="M139.99 108.09c1.87.48 4.57.44 4.33 3.11.79-.22 1.58-.44 2.38-.66.95.96 1.89 1.93 2.85 2.89 1.53-.25 3.06-.49 4.6-.73-.01.7-.04 2.1-.05 2.8-3.1-.83-5.94 1.31-9 .22 4.97-5.73-6.12 1.02-7.59-2.18 2.12-.38 4.28-.86 6.05-2.18-1.2-1.08-2.39-2.16-3.57-3.27zM193.43 115.62h2.16l-.04.68c-.57 0-1.71.01-2.28.01.05 1.08.16 3.24.21 4.32 1.68.3 3.22.17 3.95-1.53.04 1.26.11 2.52.2 3.77-.84-.69-2.52-2.65-3.21-.74-.93-1.64-2.69-.67-4.13-.57-.52-.69-1.04-1.38-1.55-2.07.27-.63.54-1.26.82-1.88.32.35.96 1.07 1.28 1.43 1.71-.35 1.86-2.18 2.59-3.42z"/></g><path fill="#e84e04" d="M70.38 110.18c2.99.42 5.97.88 8.96 1.25-1.53 1.34-3.28 2.38-5.12 3.21.7-.01 2.1-.02 2.8-.03.5.74 1.01 1.47 1.52 2.2.03-.71.09-2.15.11-2.87 1.71-.68 3.4-1.66 5.33-1.4-.79 1.24-1.6 2.47-2.41 3.69.3.48.9 1.42 1.2 1.89-1.01 1.53-2.35 2.77-4.25 2.97.14-.98.28-1.97.41-2.95-4.8-.02-4.47 4.99-4.76 8.52 2-1 4.17-1.77 5.94.08-1.2.96-2.4 1.92-3.61 2.87-.7-.44-1.4-.87-2.1-1.31-9.05 2.71 1.39-9.74-1.62-14.27-1.27.55-2.53 1.13-3.79 1.7.48-1.84.94-3.7 1.39-5.55z"/><path fill="#f7760d" d="M119.56 113.38c1.61-.63 3.23-1.26 4.85-1.88.23.58.67 1.73.9 2.3 2.41-.33 4.82-.08 7.18.44-.75.67-1.5 1.34-2.24 2.02.38.94.77 1.89 1.16 2.83 1.05-.83 2.05-1.72 3.02-2.64l2.28-.28c-1.46 2.19-1.75 6.06 1.45 6.79 1.13-6.7 5.11-2.3 2.82 2.41l3.27.51c-.28 1.33-.55 2.66-.82 4 1.16.65 2.34 1.29 3.51 1.95.21-.43.62-1.28.83-1.71-.57-.99-1.15-1.99-1.72-2.99 1.55-.92 3.17-1.72 4.86-2.34.3.46.89 1.39 1.19 1.86-.75.24-2.25.73-3 .97.26.79.53 1.57.8 2.36 4.12-1.91 5.99 2.77 8.43 5.08-.03-1.96-.01-3.93.13-5.88 2.95.16 4.46 2.94 6.08 5.01-.27.79-.54 1.59-.81 2.39l1.47 3.21c-3.26 1.28-5.42-1.5-7.28-3.67-.47.35-.93.71-1.4 1.06 1.84 2.98 1.62 6.57 1.38 9.92-.44-.81-.87-1.62-1.3-2.43-4.02-.56-7.91-2.95-9.28-6.94-1.12-.58-2.23-1.14-3.35-1.71.25.98.51 1.96.77 2.94-1.07.21-2.14.43-3.2.65-.29.52-.86 1.56-1.15 2.08-1.48-.55-2.96-1.08-4.45-1.59.16 1.43.82 2.7 1.61 3.88-.98.97-1.97 1.93-2.94 2.9-3.27 8.73 3.25-.73 7.3 2.54.22-1.83.44-3.66.67-5.49 2.48.05 4.34 1.31 5.04 3.73.61-.81 1.22-1.63 1.84-2.43 2.63 1.39 4.97 3.28 6.74 5.69-.45 1.01-.91 2.03-1.36 3.04-1.45.53-2.91 1.05-4.37 1.58-.39.84-.78 1.68-1.16 2.53.01-3.36-2.51-5.45-4.84-7.44-5.4.31-6.18 5.66-4.95 9.96 1.42.55 2.83 1.09 4.25 1.64.35.89.72 1.78 1.08 2.66 1.27.62 2.3 1.55 3.06 2.74 1.39-.55 2.79-1.11 4.18-1.68-.09-1.85-2.11-4.6.4-5.57-.5-.42-.99-.84-1.47-1.25l2.8-.04c1.92 6.11-3.84 10.05-6.85 14.5 1.02-.05 2.05-.1 3.07-.14.43 1.49.78 3.01 1 4.55-2.8 1.2-4.31-2.6-6.91-1.18l-.18 4.18c-.65-.01-1.96-.01-2.61-.02 1.16-1.13 2.14-2.42 2.09-4.14-3.31-2.18-8.02-2.3-10.56-5.43 2.09.32 4.16.76 6.23 1.18.23-2.24-2.47-2.21-3.91-3.02.21-.36.64-1.07.85-1.43.78-.07 2.33-.21 3.11-.27.39 2.09.77 4.18 1.16 6.27 1.47-1.17 2.91-2.38 4.31-3.63-1.55-1.83-2.51-4-2.25-6.44-3.64-.33-6.9 3.26-8.86-2.08-.8-.85-1.65-1.61-2.51-2.39 1.1-.1 2.2-.19 3.29-.29-.51-1.31-1.02-2.62-1.52-3.92-.51.17-1.51.53-2.01.71 2.69-8.3-5.74-13.16-9.45-19.24-.01-3.25 3.45-1.88 4.71-.18-.13-1.07-.24-2.13-.35-3.19-1.06-.49-2.12-.97-3.18-1.44.15-1.34.5-2.64.98-3.89-.59-1.5-1.81-2.47-3.21-3.15-.5 3.27 1.08 6.28 1.34 9.47-3.87 1.45-5.6-5.57-10.48-4.42l-2.19 1.71c-1.28-.32-2.56-.64-3.83-.95-.23-1.19-.46-2.38-.68-3.57 1.02-.54 2.04-1.08 3.07-1.61-.38-.4-1.15-1.2-1.53-1.59 1.48-1.36 2.84-2.92 2.96-5.03a67.5 67.5 0 015.59-2.28c.02.63.04 1.9.05 2.53 1.6-.24 2.56-1.54 3.56-2.67 1.03.06 2.06.12 3.1.19-.56-1.14-1.11-2.27-1.66-3.41z"/><path fill="#fc8c1f" d="M54.16 115.45c1.1-2.04 2.59-4.2 5.23-3 .23 2.27.86 4.45 1.84 6.51.62.12 1.86.38 2.49.5-.25.83-.49 1.66-.74 2.49-2.03-.37-4.07-.74-6.09-1.18.87-.74 1.92-1.09 3.16-1.04-2.04-1.33-3.89-2.9-5.89-4.28z"/><path fill="#f16207" d="M93.05 118.16c2.24-1.57 3.21-4.36 5.63-5.7 2.89 1.08 6.71 2.44 4.8 6.26-1.44-.11-2.87-.21-4.3-.31.55.13 1.67.38 2.22.51.01 1.23.02 2.46.04 3.69.53.02 1.6.07 2.13.09-.62-1.85-.31-3.58 1.74-4.28-.14-.56-.43-1.67-.57-2.23 1.64.54 2.92 1.71 4.18 2.83-.12 2.11-1.48 3.67-2.96 5.03.38.39 1.15 1.19 1.53 1.59-1.03.53-2.05 1.07-3.07 1.61.22 1.19.45 2.38.68 3.57 1.27.31 2.55.63 3.83.95l2.19-1.71c4.88-1.15 6.61 5.87 10.48 4.42-.26-3.19-1.84-6.2-1.34-9.47 1.4.68 2.62 1.65 3.21 3.15-.48 1.25-.83 2.55-.98 3.89 1.06.47 2.12.95 3.18 1.44.11 1.06.22 2.12.35 3.19-1.26-1.7-4.72-3.07-4.71.18 3.71 6.08 12.14 10.94 9.45 19.24.01 1.24-.9 1.99-1.8 2.68-.87-.47-1.75-.92-2.62-1.38a96.05 96.05 0 00-3.79 4.03c.72 2.83.07 5.65-.92 8.33-1.23.02-2.46.05-3.69.11.23-1.3.45-2.6.66-3.89-3.47 1.42-5.75 4.76-9.45 5.74-1.22-2.49-2.87-4.73-5.01-6.51-1.3.58-2.59 1.16-3.89 1.75.49 1.38.97 2.76 1.44 4.15-3.58-.34-8-3.71-8.39-7.4 2.07-.81 4.03-1.9 5.4-3.69.63.96 1.24 1.93 1.88 2.9.71.03 2.14.08 2.86.1-.79-.98-1.58-1.95-2.36-2.93.27-.55.83-1.66 1.1-2.21-1.09-1.94-1.92-4-2.66-6.08-2.47 6.3-7.89 8.88-13.16 3.4-.23.7-.67 2.1-.9 2.81-1.37.83-2.84 1.5-4.47 1.61-.75-1.1-1.51-2.2-2.28-3.29.94-1.31 3.04-2.81 1.28-4.39-.49.41-1.47 1.22-1.96 1.63-.28-1.01-.55-2.02-.8-3.02 2.76-2.85 6.19-4.12 9.97-5.1-1.16-.25-2.33-.5-3.49-.73-.24-1.5-.48-2.99-.74-4.48-3.98-.61-4.49 5.75-7.93 3.98.64-1.01 1.3-2 1.94-3-1.84-.94-4.06-.28-5.8-1.45 1.19-1.92 2.19-4.24 4.55-4.94-.11 1.21-.22 2.42-.35 3.63 1.47.36 2.94.72 4.4 1.09a35.01 35.01 0 01-.73-10.85c2.25.65 4.3 4.82 6.64 2.82l2.33 2.33c-.78-2.26-1.65-4.48-2.28-6.78 1.71-.12 3.41-.22 5.12-.33.19-.24.59-.72.79-.95-3.55-.91-4.25-4.94-1.56-7.23.56-.05 1.68-.14 2.24-.19-.19.52-.58 1.56-.77 2.07 1.35 0 2.7 0 4.05.01-.85-.77-1.71-1.53-2.56-2.29m10.56 16.42c-.39.67-.77 1.34-1.16 2.01 3.04-.77 2.4 4.13 5.55 3.58a134.2 134.2 0 002.3 3.55c1.14-.77 2.29-1.53 3.45-2.27.14-1.31-.35-2.23-1.72-2.47.13-.53.39-1.6.53-2.13-1.94.96-3.55 2.75-5.92 2.36l-.24-3.47c-.93-.39-1.86-.77-2.79-1.16m12.1 7.71c-.28 1.29-1.05 2.06-2.33 2.33.13 2.04.05 4.1-1.22 5.81-.73-.01-2.19-.04-2.92-.05.04.34.12 1.02.15 1.36.93-.33 1.86-.65 2.79-.98l.2 2.36c.16-.65.49-1.94.66-2.59.36.27 1.08.8 1.44 1.06.47-2.68.82-5.6 3.33-7.21 1.3 3.27 4.52 3.93 7.05 1.58.4.42 1.22 1.26 1.62 1.67 2.09-2.92-7.7-3.93-10.77-5.34z"/><path fill="#fd8927" d="M37.94 129.06c.92-.82 1.88-1.61 2.86-2.36l.4 2.97 1.57-.24c-.04 1.46-.09 2.92-.13 4.38-1.54.16-3.09.26-4.63.34.07 1.7.15 3.4.2 5.1-3.75-1.63-1.92-6.75-3.2-9.97.73-.06 2.19-.17 2.93-.22z"/><path fill="#fd9530" d="M103.61 134.58c.93.39 1.86.77 2.79 1.16l.24 3.47c2.37.39 3.98-1.4 5.92-2.36-.14.53-.4 1.6-.53 2.13 1.37.24 1.86 1.16 1.72 2.47-1.16.74-2.31 1.5-3.45 2.27a134.2 134.2 0 01-2.3-3.55c-3.15.55-2.51-4.35-5.55-3.58.39-.67.77-1.34 1.16-2.01z"/><path fill="#ef5d07" d="M188.87 149.03c7.24-3.51-1.84-17.43 10.03-13.75-.37.67-.75 1.33-1.12 2-.81.08-1.61.16-2.42.23-.2.39-.62 1.17-.83 1.56 1.23 2.61 3.31 5.08 3.07 8.12-1.3.35-2.6.71-3.89 1.07 2.04 4.17 5.8 6.53 10.47 5.22-1.2 1-2.44 1.98-3.32 3.29 2.79.51 5.17-.91 7.26-2.56 1.93 1.22 1.98 3.61 2.49 5.61-.46.26-1.38.76-1.84 1.01-.63-1.12-1.25-2.25-1.88-3.37-2.49 1.84-5.44 2.98-7.81 5 .65.26 1.95.76 2.6 1.01.23 3.17-1.35 5.92-3.2 8.36-.57-1.25-1.13-2.5-1.69-3.74-3.04 1.02-4.51 3.95-5.31 6.84-1.92-1.15-3.92-2.16-6-2.95.02 1.55-.04 3.1-.28 4.64-2.46-.32-4.89.12-7.01 1.43-.08 1.29-.17 2.57-.25 3.86-1.52-.45-3.05-.9-4.57-1.34-.6-.81-1.2-1.61-1.8-2.41-2.52 1.04-2.89 3.5-2.1 5.86-.4-.17-1.21-.52-1.62-.69-.21-.67-.43-1.34-.64-2l-2.88-1.53c-1.01-2.62-1.92-5.28-2.67-7.99 1.06-.54 2.12-1.09 3.18-1.63-4.49-2.02-9.05 2.37-12.72 4.61 2.54.77 5.2.87 7.83.61 1.36 5.17-4.52 4.37-6.99 6.66.61 2.69 3 5.2-.7 6.99a82.93 82.93 0 01-1.24-4.94c-1.19 2.13-3.33 3.23-5.49 4.15.07 6.2-7.1 9.77-12.44 10.61l-1.43-2.06c5.36-.28 8.32-4.19 10.29-8.71-2.59.62-5.24.92-7.9.77.15-2.44 1.08-4.7 2.35-6.76.24 3.53 3.61 4.82 5.3 1.42-2.66-3.34-6.71-2.77-10.45-2.3l2.23 1.87c-2.28 3.02-6.1 3.97-9.59 4.8 1.17-2.03 3.46-3.07 5-4.79-4.55-1.3-6.37 4.06-10.76 4.12.14-1.52.27-3.02.43-4.53.6-.34 1.81-1.01 2.41-1.35l-.69-.65c-.27-.26-.8-.77-1.07-1.02-1.16-.18-2.33-.28-3.5-.34 1.3-.77 2.59-1.57 3.98-2.17 1.12 1.83 2.13 3.8 3.88 5.13-.92-4.7.81-8.81 6.35-7.92-.41-.64-.81-1.28-1.21-1.92.26-.45.53-.9.79-1.35l-2.3-1.85 1.64-1.6c-2.23-2.26-4.41-4.34-1.94-7.5 2.07 1.24 4.02 2.67 5.95 4.12.17-.58.49-1.72.66-2.29 1.96 5.34 5.22 1.75 8.86 2.08-.26 2.44.7 4.61 2.25 6.44-1.4 1.25-2.84 2.46-4.31 3.63-.39-2.09-.77-4.18-1.16-6.27-.78.06-2.33.2-3.11.27-.21.36-.64 1.07-.85 1.43 1.44.81 4.14.78 3.91 3.02-2.07-.42-4.14-.86-6.23-1.18 2.54 3.13 7.25 3.25 10.56 5.43.05 1.72-.93 3.01-2.09 4.14.65.01 1.96.01 2.61.02l.18-4.18c2.6-1.42 4.11 2.38 6.91 1.18-.22-1.54-.57-3.06-1-4.55-1.02.04-2.05.09-3.07.14 3.01-4.45 8.77-8.39 6.85-14.5l-2.8.04c.48.41.97.83 1.47 1.25-2.51.97-.49 3.72-.4 5.57-1.39.57-2.79 1.13-4.18 1.68a7.496 7.496 0 00-3.06-2.74c-.36-.88-.73-1.77-1.08-2.66-1.42-.55-2.83-1.09-4.25-1.64-1.23-4.3-.45-9.65 4.95-9.96 2.33 1.99 4.85 4.08 4.84 7.44.38-.85.77-1.69 1.16-2.53 1.46-.53 2.92-1.05 4.37-1.58.45-1.01.91-2.03 1.36-3.04-1.77-2.41-4.11-4.3-6.74-5.69-.62.8-1.23 1.62-1.84 2.43-.7-2.42-2.56-3.68-5.04-3.73-.23 1.83-.45 3.66-.67 5.49-4.05-3.27-10.57 6.19-7.3-2.54.97-.97 1.96-1.93 2.94-2.9-.79-1.18-1.45-2.45-1.61-3.88 1.49.51 2.97 1.04 4.45 1.59.29-.52.86-1.56 1.15-2.08 1.06-.22 2.13-.44 3.2-.65-.26-.98-.52-1.96-.77-2.94 1.12.57 2.23 1.13 3.35 1.71 1.37 3.99 5.26 6.38 9.28 6.94.43.81.86 1.62 1.3 2.43.24-3.35.46-6.94-1.38-9.92.47-.35.93-.71 1.4-1.06 1.86 2.17 4.02 4.95 7.28 3.67.3-.04.91-.11 1.22-.15 2.52 1.96 5.01 3.96 7.61 5.82-.71.99-1.34 2.03-1.97 3.08 2.02.17 4.05.33 6.08.5.3 2.75-2.77 2.68-4.68 2.83-2.65-.28-5.89-.12-7.02-3.13l-4.35-.48c3.12 2.04 6.35 4.84 4.28 8.85 1.1-.19 1.71-1.05 2.29-1.92.21 1.53.46 3.16 2.46 2.92-.26-1.49-.54-2.97-.82-4.45 1.46-.14 2.93-.27 4.4-.36 1.64.58 3.3 1.13 4.96 1.67-.52 2.17 1.07 3.59 3.09 3.83.22 1.71.43 3.44.64 5.15.72-.08 1.45-.17 2.18-.25.68 2.85 6.32 9.14 4.08 2.77.86-1.08 1.73-2.15 2.6-3.23.77 3.48 4.76 4.16 7.1 1.75-5.44-2.8-10.79-7.96-8.51-14.67l-1.97-1.29z"/><path fill="#e04504" d="M58.36 143.17c1.18 3.18 4.25-.09 5.72-1.32.84 1.74.54 3.67.43 5.53.87.56 1.75 1.12 2.63 1.68-.52 1.25-1.04 2.49-1.56 3.74-.15-.58-.44-1.72-.58-2.3-3.06-.55-6.21 2.71-7.8-1.58.34-1.63.41-3.3.15-4.94.25-.2.75-.61 1.01-.81z"/><path fill="#fca242" d="M115.71 142.29c3.07 1.41 12.86 2.42 10.77 5.34-.4-.41-1.22-1.25-1.62-1.67-2.53 2.35-5.75 1.69-7.05-1.58-2.51 1.61-2.86 4.53-3.33 7.21-.36-.26-1.08-.79-1.44-1.06-.17.65-.5 1.94-.66 2.59l-.2-2.36c-.93.33-1.86.65-2.79.98-.03-.34-.11-1.02-.15-1.36.73.01 2.19.04 2.92.05 1.27-1.71 1.35-3.77 1.22-5.81 1.28-.27 2.05-1.04 2.33-2.33z"/><path fill="#dc4303" d="M162.09 148.26l4.35.48c1.13 3.01 4.37 2.85 7.02 3.13l1.24 1.43c-1.47.09-2.94.22-4.4.36.28 1.48.56 2.96.82 4.45-2 .24-2.25-1.39-2.46-2.92-.58.87-1.19 1.73-2.29 1.92 2.07-4.01-1.16-6.81-4.28-8.85z"/><path fill="#fe9d37" d="M27.81 160.02c-.51-7.66 3.48-7.88 7.97-9.11.39 1.48.87 2.97.77 4.53-4.19-1.48-5.89 1.99-6.55 5.43-.55-.21-1.65-.64-2.19-.85z"/><path fill="#fa8418" d="M86.36 155.2c5.27 5.48 10.69 2.9 13.16-3.4.74 2.08 1.57 4.14 2.66 6.08-.27.55-.83 1.66-1.1 2.21.78.98 1.57 1.95 2.36 2.93-.72-.02-2.15-.07-2.86-.1-.64-.97-1.25-1.94-1.88-2.9-1.37 1.79-3.33 2.88-5.4 3.69.39 3.69 4.81 7.06 8.39 7.4-.47-1.39-.95-2.77-1.44-4.15 1.3-.59 2.59-1.17 3.89-1.75 2.14 1.78 3.79 4.02 5.01 6.51 3.7-.98 5.98-4.32 9.45-5.74-.21 1.29-.43 2.59-.66 3.89-1.75.03-2.48 1.38-2.63 2.93.8 1.27 1.42 2.65 1.7 4.13-2.37-.27-4.23-1.7-5.8-3.39-1.44.09-2.87.19-4.3.3-.44.92-.89 1.84-1.33 2.77-3.32-.29-7.02-.85-9.91 1.26-1.05-.54-2.09-1.11-3.13-1.67-2.13 1.48-4.4 2.72-6.72 3.86.03-1.56.07-3.12.13-4.67.74-1.64 1.52-3.29 1.69-5.11 1 .06 2 .13 3.01.2 1.06-.84 2.13-1.66 3.2-2.48-.79-.91-1.59-1.82-2.39-2.72-2.7.17-5.42.17-8.08.77-.03-.69-.08-2.06-.11-2.75 1.21-.19 2.42-.37 3.64-.55-.49-1.58-.97-3.16-1.45-4.74.23-.71.67-2.11.9-2.81z"/><path fill="#e84e05" d="M130.76 156.1c.5-.18 1.5-.54 2.01-.71.5 1.3 1.01 2.61 1.52 3.92-1.09.1-2.19.19-3.29.29.86.78 1.71 1.54 2.51 2.39-.17.57-.49 1.71-.66 2.29-1.93-1.45-3.88-2.88-5.95-4.12-2.47 3.16-.29 5.24 1.94 7.5l-1.64 1.6c-.88-.73-1.77-1.46-2.65-2.19-.27.49-.81 1.46-1.09 1.95.93.72 1.87 1.44 2.8 2.16-.18.58-.56 1.74-.74 2.32-1.08.3-2.16.6-3.23.91-.25.51-.76 1.53-1.01 2.05-.4.17-1.19.53-1.59.71-1.39.6-2.68 1.4-3.98 2.17-.84.33-1.67.67-2.5 1-.37-.46-1.11-1.39-1.48-1.85-2.89.4-5.95.53-8.39 2.32 1.29.72 2.6 1.44 3.91 2.14.14-.39.41-1.19.55-1.58.56-.34 1.13-.68 1.7-1.01.63 1.22 1.27 2.44 1.9 3.66 2.91-1.24 5.78-2.63 8.88-3.32l.69.65c-.6.34-1.81 1.01-2.41 1.35-.16 1.51-.29 3.01-.43 4.53-.74 1.02-1.47 2.04-2.2 3.07-.67-.64-1.34-1.28-2.01-1.91.97-.57 1.95-1.13 2.93-1.69-.78-.82-1.56-1.65-2.33-2.47-.84 1.09-1.63 2.21-2.47 3.31-.82-.82-1.64-1.63-2.46-2.43-.58-.1-1.75-.29-2.33-.39.85 1.33 1.53 2.76 1.76 4.34-1.39-.74-2.76-1.53-4.11-2.31l-.93 4.44c-2.41-.25-4.82-.48-7.24-.65-.17-2.32 2.38-2.82 3.94-3.81 1.23-2.82 1.5-6.16-1.63-7.79-.43 1.62-.17 3.29.03 4.92-1.97 1.76-3.92 3.56-5.65 5.57 1.39 1.95 2.25 4.18 2.2 6.61 2.25-.11 4.19-1.24 6.04-2.4-.42 1.52-.8 3.05-1.13 4.59-1.56.12-3.12.24-4.67.43 2.16 1.24 5.02 1.42 4.54 4.74-2.41-.95-5.12-3.95-6.22.25.89-.09 1.77-.19 2.66-.28.88.75 1.76 1.5 2.64 2.26 1.02-1.81 2.04-3.62 3.04-5.44.64-.01 1.93-.04 2.58-.06-.53.88-1.07 1.75-1.62 2.62.63.85 1.26 1.69 1.89 2.54.52.01 1.55.02 2.07.02-.99 3.87-5.69 4.95-9.15 4.17-1.01 1.81-2.14 3.56-3.64 5.01-.86-.48-1.72-.96-2.59-1.44-1.24 4.38-6.15 5.36-6.46.01 1.18.57 2.35 1.14 3.54 1.69-.77-2.48-3.17-3.8-4.77-5.7.92-.14 2.77-.44 3.7-.58-.78-1.31-1.56-2.61-2.31-3.93 1.71.45 3.39.98 5.06 1.55 1.68-3.17 4-6.29 3.33-10.1-.88-.41-1.76-.81-2.64-1.21-.09-.73-.19-1.46-.29-2.19-1.09-.28-2.18-.56-3.27-.85 6.03 5.27-1.12 10.55-7.03 8.36-.85 1.14-1.68 2.29-2.52 3.43 1.63 2.46 3.89 4.96 3.19 8.13-3.49 1.37-7.83.5-10-2.7 1.74-1.47 3.48-2.94 5.24-4.39-.69-.29-2.06-.88-2.74-1.17 1.68-.71 3.36-1.42 5.03-2.15-.2-2.21-.3-4.44-.19-6.66 1.19 1.06 2.18 2.31 3.11 3.6 3.55-.42 7.47-2.32 4.25-6.09.74-1.88 2.33-2.99 4.14-3.72l.75-4.02c1.32.48 2.64.96 3.97 1.45.77-2.58.77-5.29.51-7.94 2.89-2.11 6.59-1.55 9.91-1.26.44-.93.89-1.85 1.33-2.77 1.43-.11 2.86-.21 4.3-.3 1.57 1.69 3.43 3.12 5.8 3.39-.28-1.48-.9-2.86-1.7-4.13.15-1.55.88-2.9 2.63-2.93 1.23-.06 2.46-.09 3.69-.11.99-2.68 1.64-5.5.92-8.33a96.05 96.05 0 013.79-4.03c.87.46 1.75.91 2.62 1.38.9-.69 1.81-1.44 1.8-2.68z"/><path fill="#fb9f3e" d="M58.08 158.01c2.32-.19 4.65-.42 6.97-.73-.16 1.52-.31 3.05-.46 4.57l-2.75-.12c-.75.78-1.5 1.57-2.25 2.35 2.11.57 4.2 1.21 6.35 1.55.19 1.39.36 2.79.49 4.19-1.29.73-2.57 1.45-3.86 2.18-.13-.85-.4-2.54-.53-3.38l-.36-2.4c-1.12-.33-2.24-.66-3.35-.98l-1.35 2.82c-8.89.55.42 9.22-5.89 13.21-.73.08-2.19.25-2.92.33 2.05 2.04 4.51 2.11 6.73.27-.67 2.11-.82 4.38.26 6.39-.02.45-.05 1.36-.07 1.82-1.23.35-2.47.65-3.71.96-1.83-1.8-3.71-3.55-5.69-5.19-.35 1.5-.4 3.04-.33 4.59l-2.68-.08c-.11.3-.33.92-.44 1.22-.81.17-2.43.49-3.24.66-2.79-2.77-4.5-6.39-7.29-9.14 1.22-.63 2.44-1.26 3.65-1.89l.33-3.68 1.64-.08c.8 1.31 1.61 2.62 2.42 3.92.2-1.34.39-2.68.57-4.02 1.28 2.01 3.34 3.15 5.6 3.72-.67-1.09-1.35-2.16-2.04-3.23.26-.6.77-1.79 1.02-2.38 1.92.72 2.86 2.39 3.47 4.23.53.08 1.6.25 2.14.33-.13-1.45-.23-2.96 1.13-3.89-1.12-1.4-2.23-2.79-3.33-4.19.76-1.9 1.13-3.91.95-5.95 1.67 4.25 3.87 2.1 4.43-1.44 4.56 1.35 5.34-3.01 4.39-6.54z"/><path fill="#fb8716" d="M71.72 159.27c.82-.09 2.48-.26 3.3-.35.05 1.24.09 2.47.14 3.71 1.2-.18 2.4-.35 3.6-.53-.09 2.82-.02 5.64.18 8.45-2.05-2.17-3.83.17-1.67 1.99 3.17-.79 6.89.11 7.71 3.71-.72.45-1.43.91-2.14 1.37l-1.24-1.52c-1.75.02-3.5.04-5.25.05 1.8 1.24 1.97 3.16 1.31 5.13-.27-.72-.82-2.16-1.1-2.88-.88-.42-1.77-.84-2.65-1.26-.56-1.02-1.11-2.04-1.66-3.06 1.36-2.45 1.73-5.27 2.53-7.92-2.08-.2-4.16-.47-6.23-.84l2.24-.36c-.55-.59-1.1-1.19-1.65-1.78 1.48-.18 2.96-.34 4.45-.5-.65-1.12-1.28-2.26-1.87-3.41z"/><path fill="#fec583" d="M32.63 165.2c.16-1.36.8-2.58 1.3-3.83 5.21-2.19 8.66 4.03 5.01 7.79-1.08.04-2.15.08-3.23.13.58-2.39-.25-4.47-3.08-4.09z"/><path fill="#fbc27f" d="M58.33 165.24c1.11.32 2.23.65 3.35.98l.36 2.4c-1.64.61-3.26 1.23-4.89 1.85.23 1.35.48 2.71.72 4.07-.72.06-2.15.17-2.86.23 2.11 3.55 6.88 1.86 10 .77.61.9 1.22 1.79 1.83 2.69 1.43.17 2.85.36 4.27.56.32 1.03.95 1.78 1.89 2.25-1.13-3.64-5.31-4.7-6.79-8.13.1-1.03.19-2.06.22-3.09-.13-1.4-.3-2.8-.49-4.19.87-.11 1.74-.21 2.61-.31 2.07.37 4.15.64 6.23.84-.8 2.65-1.17 5.47-2.53 7.92.55 1.02 1.1 2.04 1.66 3.06.88.42 1.77.84 2.65 1.26.28.72.83 2.16 1.1 2.88-.78.05-2.36.16-3.15.22a73.73 73.73 0 01-4.3 3.4c-1.01-1.15-2.03-2.31-3.04-3.45-.71.3-2.12.89-2.83 1.19l.24 2.93c-1.55.02-3.11.06-4.66.09.47-.21 1.41-.65 1.87-.87-1-1.13-1.94-2.32-2.82-3.55-.36.34-1.07 1.01-1.43 1.34-.66-.17-1.98-.53-2.64-.71-2.22 1.84-4.68 1.77-6.73-.27.73-.08 2.19-.25 2.92-.33 6.31-3.99-3-12.66 5.89-13.21l1.35-2.82z"/><path fill="#fdce9b" d="M83.38 166.05c2.66-.6 5.38-.6 8.08-.77.8.9 1.6 1.81 2.39 2.72-1.07.82-2.14 1.64-3.2 2.48-1.01-.07-2.01-.14-3.01-.2-.17 1.82-.95 3.47-1.69 5.11-.05-1.63-.15-3.26-.23-4.89-.55-.01-1.67-.05-2.23-.07-.03-1.46-.06-2.92-.11-4.38z"/><path fill="#fa811b" d="M123.46 169.02c.28-.49.82-1.46 1.09-1.95.88.73 1.77 1.46 2.65 2.19l2.3 1.85c-.26.45-.53.9-.79 1.35.4.64.8 1.28 1.21 1.92-5.54-.89-7.27 3.22-6.35 7.92-1.75-1.33-2.76-3.3-3.88-5.13.4-.18 1.19-.54 1.59-.71.25-.52.76-1.54 1.01-2.05 1.07-.31 2.15-.61 3.23-.91.18-.58.56-1.74.74-2.32-.93-.72-1.87-1.44-2.8-2.16z"/><path fill="#fcf1e1" d="M57.15 170.47c1.63-.62 3.25-1.24 4.89-1.85.13.84.4 2.53.53 3.38 1.29-.73 2.57-1.45 3.86-2.18-.03 1.03-.12 2.06-.22 3.09 1.48 3.43 5.66 4.49 6.79 8.13-.94-.47-1.57-1.22-1.89-2.25-1.42-.2-2.84-.39-4.27-.56-.61-.9-1.22-1.79-1.83-2.69-3.12 1.09-7.89 2.78-10-.77.71-.06 2.14-.17 2.86-.23-.24-1.36-.49-2.72-.72-4.07z"/><path fill="#fa7f17" d="M103.34 180.81c2.44-1.79 5.5-1.92 8.39-2.32.37.46 1.11 1.39 1.48 1.85.83-.33 1.66-.67 2.5-1 1.17.06 2.34.16 3.5.34.27.25.8.76 1.07 1.02-3.1.69-5.97 2.08-8.88 3.32-.63-1.22-1.27-2.44-1.9-3.66-.57.33-1.14.67-1.7 1.01-.14.39-.41 1.19-.55 1.58-1.31-.7-2.62-1.42-3.91-2.14z"/><path fill="#d83702" d="M75.44 184.56c1.17-.04 2.34-.07 3.52-.07-5.41 3.74 3.14 2.64 5.32 5.25 2.54 6.57-.08 6.03-4.98 3.73-1.42-1.56-3.02-3.25-2.77-5.53-.59-.14-1.76-.43-2.35-.57.42-.94.84-1.87 1.26-2.81z"/><path fill="#fb7e0c" d="M45.69 185.85c1.98 1.64 3.86 3.39 5.69 5.19 1.24-.31 2.48-.61 3.71-.96.02-.46.05-1.37.07-1.82 1.46 5.49 2.14 11.7 6.18 16.02.5 2.32 1.24 4.6 2.73 6.49 3.92-2.31 7.46 1.99 3.35 4.67-1.22-3.61-4.72-3.11-7.37-1.54-1.25-4.71-5.42-8.81-10.56-8.28-.21-1.28-.35-2.63-1.23-3.66-3.12-3.2-6.82-5.9-9.26-9.72.81-.17 2.43-.49 3.24-.66.11-.3.33-.92.44-1.22l2.68.08c-.07-1.55-.02-3.09.33-4.59z"/><path fill="#e54d03" d="M125.63 189.88c1.96-1.23 3.95-2.55 6.33-2.75-.91 1.21-1.83 2.41-2.74 3.61.27.25.82.74 1.1.99.37-2.3 2.1-1.9 2.63-.01-1.82 2.06-4.52 2.94-6.44 4.86l-1.94-.27c-.13 1.41-1.2 2.41-2.02 3.47-.53-.58-1.06-1.17-1.59-1.74.88-1.18 1.77-2.35 2.67-3.51-2.06-.25-1.62-2.2-1.69-3.73.78 0 2.33-.02 3.1-.03l.4 3.15c3.46.02 1.7-2.61.19-4.04z"/><path fill="#f15908" d="M106.82 193.16c.98-.28 1.96-.56 2.95-.84.71.6 1.42 1.19 2.13 1.79-.64.66-1.27 1.33-1.9 1.99 1.91 1.1 3.64 2.49 4.13 4.75-2.85.29-5.6 4.07-8.27 2.14.66-2.61 1.58-5.14 2.85-7.52l-1.89-2.31z"/><path fill="#e75004" d="M140.52 200.29c.93-.98 2.18-1.2 3.47-1.06-1.32 1.44-2.84 2.68-4.41 3.85 1.29 1.99 3.34.08 4.51-.94 1 .71 1.99 1.44 2.99 2.17 1.41-1.04 2.42-2.48 3.36-3.94 1.56 0 3.1.31 4.59.8-2.23 2.81-6.29 3.26-8.97 5.65-2.49-1.33-5.34-.45-8.02-.63-.16-2.03-.43-4.05-.86-6.04 1.11-.01 2.22.04 3.34.14z"/><path fill="#e14803" d="M48.26 201.96c.88 1.03 1.02 2.38 1.23 3.66 5.14-.53 9.31 3.57 10.56 8.28 2.65-1.57 6.15-2.07 7.37 1.54-1.03-.4-2.05-.78-3.08-1.16.04.85.11 2.54.14 3.38-7.53-.41-11.45-10.95-18.59-8.11.51-1.18 1-2.37 1.47-3.56.36-1.33.61-2.69.9-4.03z"/><path fill="#ed5505" d="M169.4 204.29c1.23.45 2.44.92 3.66 1.42 1.51-1.18 3.31-2.16 4.3.16-.77 1.77-1.98 3.24-3.97 3.6l-.64 2.48c-1.15-.13-2.29-.28-3.43-.4-2.74 2.57-4.05-.74-4.03-3.24 1.57-1.13 3-2.43 4.11-4.02z"/><path fill="#e94e05" d="M115.86 205.73c1.29.79 2.56 1.6 3.84 2.42-4.63 6.03 2.81 7.95 7.45 8.58-2.4.39-4.82.56-7.23.73.41.81.83 1.62 1.25 2.43-.14.45-.42 1.33-.56 1.78-.54.06-1.61.17-2.15.23-.26-1.24-.51-2.48-.77-3.71-1.83.79-3.57 1.76-5.07 3.08-1.27-1.1-2.1-2.56-2.62-4.14-.13-.51-.4-1.53-.53-2.03-1.82-.59-3.72-.38-5.57-.1-.3-.91-.6-1.81-.9-2.72 2.51-1.35 5.14-1.68 7.21.62.43-.93.85-1.86 1.28-2.78.91 1.07 1.83 2.14 2.75 3.21 2.13-1.99.97-5.06 1.62-7.6z"/><path fill="#e74c04" d="M106.4 217.27c.44-.04 1.33-.11 1.78-.14.04 2.13-.03 4.27-.22 6.4-5.58 1.26-9.65-.08-14.82-1.5-.46 1.02-.92 2.04-1.39 3.06-1.24.02-2.48.03-3.72.02-.33-.12-.98-.38-1.31-.51.54-.22 1.62-.66 2.16-.89l-.3-2.29c3.3.01 6.53-.81 9.7-1.65.11-.4.32-1.19.42-1.58 1.9.04 3.94.08 5.38 1.51-.61.76-1.23 1.51-1.84 2.27l2.49-.28c.54-1.48 1.07-2.96 1.67-4.42z"/><path fill="#d63604" d="M108.18 217.13H110c.52 1.58 1.35 3.04 2.62 4.14 1.5-1.32 3.24-2.29 5.07-3.08.26 1.23.51 2.47.77 3.71.54-.06 1.61-.17 2.15-.23.14-.45.42-1.33.56-1.78 1.99 1.89 3.63 4.09 5.06 6.42 1.37-7.04 11.01-2.95 16.09-3.9l.48 1.2c2.03 1.03 4.26 1.22 6.23-.07-1.7-.32-3.4-.62-5.1-.91.74-7.38 4.38-2.06 8.6-3.82 2.02.91 4.11 1.69 6.27 2.24 2.04-1.66 4.47-3.21 7.03-1.55-4.11 3.3-9.61 4.18-14.57 5.61-.01.39-.03 1.18-.05 1.58-.87.16-1.73.36-2.58.56-18.33 2.52-37.2 4.47-55.38-.6-1.76-.43-3.51-.92-5.22-1.54 1.24.01 2.48 0 3.72-.02.47-1.02.93-2.04 1.39-3.06 5.17 1.42 9.24 2.76 14.82 1.5.19-2.13.26-4.27.22-6.4z"/></svg>