<svg xmlns="http://www.w3.org/2000/svg" viewBox="0 0 72 72"><path fill="#b3b3b3" d="M26 60.75c21.74 0 33.63-18.28 33.63-34.1V25.1a24.39 24.39 0 005.9-6.21 23.81 23.81 0 01-6.8 1.89 12 12 0 005.21-6.64A23.37 23.37 0 0156.42 17a11.73 11.73 0 00-8.62-3.79A11.92 11.92 0 0036 25.24a13.77 13.77 0 00.3 2.74 33.38 33.38 0 01-24.39-12.53 12.15 12.15 0 003.66 16A11.88 11.88 0 0110.22 30v.17a12 12 0 009.48 11.72 11.39 11.39 0 01-3.11.42 11.61 11.61 0 01-2.22-.21 11.86 11.86 0 0011 8.32 23.51 23.51 0 01-14.68 5.14 21.86 21.86 0 01-2.81-.17A33.24 33.24 0 0026 60.75"/></svg>