<svg xmlns="http://www.w3.org/2000/svg" fill="none" viewBox="0 0 24 24"><path fill="#fff" fill-rule="evenodd" d="M23 18c0 2.7614-2.2386 5-5 5s-5-2.2386-5-5c0-2.7586 2.193-5 5-5 2.7614 0 5 2.2386 5 5zm-5.5263 3.9657L17 21c-.5263 0-1-.3793-1-.9828V19.5l-1.9284-2.2572C14.0246 17.488 14 17.7411 14 18c0 2.0307 1.5133 3.708 3.4737 3.9657zm3.4788-1.267C21.6031 19.9873 22 19.04 22 18c0-1.682-1.0382-3.1216-2.5088-3.7128v.6783c0 .5173-.4386 1.0345-1.0526 1.0345h-.9123v.4483c0 .2586-.2631.5517-.5263.5517h-1v1h2.9649c.2632 0 .5263.2586.5263.5172L19.5 20h.5263c.4273 0 .7302.3825.9262.6987z" clip-rule="evenodd"/><path fill="#fff" fill-rule="evenodd" d="M4 4h15v8.083c.7179.1204 1.3926.3683 2 .7197V4c0-1.10457-.8954-2-2-2H4c-1.10457 0-2 .89543-2 2v15c0 1.1046.89543 2 2 2h8.8027c-.3514-.6074-.5993-1.2821-.7197-2H4V4z" clip-rule="evenodd"/><path stroke="#fff" d="M3.5 5c0-.82843.67157-1.5 1.5-1.5s1.5.67157 1.5 1.5S5.82843 6.5 5 6.5 3.5 5.82843 3.5 5zM6.5 5c0-.82843.67157-1.5 1.5-1.5s1.5.67157 1.5 1.5S8.82843 6.5 8 6.5 6.5 5.82843 6.5 5zM9.5 3.5h10v3h-10z"/></svg>