<svg xmlns="http://www.w3.org/2000/svg" fill="none" viewBox="0 0 24 24"><path fill="#fff" fill-rule="evenodd" d="M23 18c0 2.7614-2.2386 5-5 5s-5-2.2386-5-5c0-2.7586 2.193-5 5-5 2.7614 0 5 2.2386 5 5zm-5.5263 3.9657L17 21c-.5263 0-1-.3793-1-.9828V19.5l-1.9284-2.2572A4.0191 4.0191 0 0014 18c0 2.0307 1.5133 3.708 3.4737 3.9657zm3.4788-1.267C21.6031 19.9873 22 19.04 22 18c0-1.682-1.0382-3.1216-2.5088-3.7128v.6783c0 .5173-.4386 1.0345-1.0526 1.0345h-.9123v.4483c0 .2586-.2631.5517-.5263.5517h-1v1h2.9649c.2632 0 .5263.2586.5263.5172L19.5 20h.5263c.4273 0 .7302.3825.9262.6987z" clip-rule="evenodd"/><path fill="#fff" fill-rule="evenodd" d="M19 8v4.083a5.9585 5.9585 0 012 .7197V4c0-1.1046-.8954-2-2-2H4c-1.1046 0-2 .8954-2 2v15c0 1.1046.8954 2 2 2h8.8027a5.9585 5.9585 0 01-.7197-2H4V8h15zm-9-2V4h9v2h-9zM8 6c-.5523 0-1-.4477-1-1s.4477-1 1-1 1 .4477 1 1-.4477 1-1 1zM5 6c-.5522 0-.9999-.448-1-1.0002C4.0001 4.4476 4.4478 4 5 4c.5523 0 1 .4477 1 1s-.4477 1-1 1z" clip-rule="evenodd"/></svg>