<svg width="500" height="250" viewBox="0 0 500 250" fill="none" xmlns="http://www.w3.org/2000/svg">
<g filter="url(#filter0_d)">
<rect width="500" height="250" fill="white"/>
</g>
<path fill-rule="evenodd" clip-rule="evenodd" d="M389.087 198C383.522 198 379 202.457 379 207.943C379 212.4 381.957 216.171 385.957 217.371C386.478 217.543 386.652 217.2 386.652 216.857C386.652 216.686 386.652 216 386.652 215.143C383.87 215.829 383.174 213.771 383.174 213.771C382.652 212.571 382.13 212.229 382.13 212.229C381.261 211.543 382.13 211.543 382.13 211.543C383.174 211.543 383.696 212.571 383.696 212.571C384.565 214.114 386.13 213.6 386.652 213.429C386.826 212.743 387 212.4 387.348 212.057C385.087 211.886 382.652 211.029 382.652 207.086C382.652 206.057 383 205.029 383.696 204.343C383.522 204.171 383.174 203.143 383.87 201.771C383.87 201.771 384.739 201.429 386.652 202.8C387.522 202.629 388.391 202.457 389.261 202.457C390.13 202.457 391 202.629 391.87 202.8C393.783 201.429 394.652 201.771 394.652 201.771C395.174 203.143 394.826 204.171 394.826 204.343C395.522 205.029 395.87 205.886 395.87 207.086C395.87 210.857 393.435 211.714 391.174 212.057C391.522 212.4 391.87 212.914 391.87 213.943C391.87 215.314 391.87 216.343 391.87 216.686C391.87 217.029 392.043 217.2 392.565 217.2C396.565 215.829 399.522 212.057 399.522 207.771C399.174 202.457 394.652 198 389.087 198Z" fill="#C4C4C4"/>
<path d="M349.168 216.855C356.832 216.855 360.944 210.591 360.944 205.063C360.944 204.879 360.944 204.695 360.944 204.511C361.692 203.958 362.439 203.221 363 202.3C362.252 202.668 361.505 202.852 360.57 203.037C361.505 202.484 362.065 201.747 362.439 200.826C361.692 201.378 360.757 201.563 359.822 201.747C359.075 201.01 357.953 200.457 356.832 200.457C354.589 200.457 352.72 202.3 352.72 204.511C352.72 204.879 352.72 205.063 352.907 205.432C349.542 205.248 346.364 203.589 344.308 201.194C343.935 201.747 343.748 202.484 343.748 203.221C343.748 204.695 344.495 205.985 345.617 206.722C344.869 206.722 344.308 206.537 343.748 206.169C343.748 208.195 345.243 209.854 347.112 210.222C346.738 210.406 346.364 210.406 345.991 210.406C345.804 210.406 345.43 210.406 345.243 210.406C345.804 212.065 347.299 213.17 349.168 213.354C347.673 214.46 345.991 215.197 343.935 215.197C343.561 215.197 343.187 215.197 343 215.197C344.682 216.118 346.738 216.855 349.168 216.855Z" fill="#C4C4C4"/>
<path d="M317 198C311.386 198 307 202.483 307 208C307 213.517 311.561 218 317 218C322.439 218 327 213.517 327 208C327 202.483 322.439 198 317 198ZM315.947 216.448C311.561 215.931 308.404 212.31 308.404 207.828C308.404 207.138 308.403 206.448 308.579 205.931L313.842 211.103V212.138C313.842 213.345 314.895 214.379 315.947 214.379V216.448ZM323.14 213.862C322.789 213 322.088 212.31 321.035 212.31H319.982V209.034C319.982 208.517 319.456 208 318.93 208H312.614V205.931H314.719C315.246 205.931 315.772 205.414 315.772 204.897V202.828H317.877C319.105 202.828 319.982 201.793 319.982 200.759V200.241C323.14 201.448 325.421 204.552 325.421 208.172C325.421 210.241 324.544 212.31 323.14 213.862Z" fill="#C4C4C4"/>
<path d="M126.506 207.138C127.377 207.138 128.084 206.443 128.084 205.586C128.084 204.729 127.377 204.035 126.506 204.035C125.634 204.035 124.927 204.729 124.927 205.586C124.927 206.443 125.634 207.138 126.506 207.138Z" fill="#C4C4C4"/>
<path d="M119.49 207.138C120.361 207.138 121.068 206.443 121.068 205.586C121.068 204.729 120.361 204.035 119.49 204.035C118.618 204.035 117.911 204.729 117.911 205.586C117.911 206.443 118.618 207.138 119.49 207.138Z" fill="#C4C4C4"/>
<path d="M122.998 198C117.385 198 113 202.483 113 208C113 213.517 117.56 218 122.998 218C128.61 218 132.995 213.517 132.995 208C133.17 202.483 128.61 198 122.998 198ZM122.998 216.448C118.437 216.448 114.579 212.655 114.579 208C114.579 203.345 118.262 199.552 122.998 199.552C127.733 199.552 131.417 203.345 131.417 208C131.417 212.655 127.733 216.448 122.998 216.448ZM122.998 213.69C125.453 213.69 127.558 212.138 128.435 209.897H126.681C125.979 211.103 124.576 211.966 122.998 211.966C121.419 211.966 120.016 211.103 119.314 209.897H117.56C118.437 212.138 120.542 213.69 122.998 213.69Z" fill="#C4C4C4"/>
<path fill-rule="evenodd" clip-rule="evenodd" d="M260 37C260 36.4477 259.552 36 259 36H241C240.448 36 240 36.4477 240 37V51C240 51.5523 240.448 52 241 52H259C259.552 52 260 51.5523 260 51V37ZM242 39.4472C242 38.7823 242.7 38.3499 243.294 38.6472L249.553 41.7764C249.834 41.9172 250.166 41.9172 250.447 41.7764L256.706 38.6472C257.3 38.3499 258 38.7823 258 39.4472C258 39.786 257.809 40.0957 257.506 40.2472L250.447 43.7764C250.166 43.9172 249.834 43.9172 249.553 43.7764L242.494 40.2472C242.191 40.0957 242 39.786 242 39.4472Z" fill="#C4C4C4"/>
<path d="M50 146.375V103.87H52.9669V143.795H72.5746V146.375H50Z" fill="#323232"/>
<path d="M89.3463 147.149C86.1214 147.149 83.7564 146.181 82.2514 144.246C80.7465 142.311 79.994 139.323 79.994 135.281V115.415H82.8319V134.894C82.8319 138.205 83.3694 140.656 84.4444 142.247C85.5624 143.795 87.3683 144.569 89.8623 144.569C91.7113 144.569 93.3882 144.074 94.8932 143.085C96.3982 142.053 98.0536 140.441 99.8596 138.248V115.415H102.698V146.375H100.311L99.9886 141.215H99.8596C98.3546 143.021 96.7637 144.461 95.0867 145.536C93.4097 146.611 91.4963 147.149 89.3463 147.149Z" fill="#323232"/>
<path d="M127.355 147.149C125.334 147.149 123.464 146.783 121.744 146.052C120.067 145.321 118.583 144.268 117.293 142.892C116.046 141.516 115.057 139.839 114.326 137.861C113.638 135.84 113.294 133.539 113.294 130.959C113.294 128.379 113.681 126.079 114.455 124.058C115.229 121.994 116.261 120.274 117.551 118.898C118.841 117.522 120.325 116.469 122.002 115.738C123.722 115.007 125.528 114.641 127.42 114.641C129.57 114.641 131.354 115.028 132.773 115.802C134.192 116.576 135.439 117.458 136.514 118.447L134.837 120.446C133.848 119.5 132.752 118.726 131.548 118.124C130.344 117.479 128.989 117.157 127.484 117.157C125.893 117.157 124.41 117.501 123.034 118.189C121.701 118.834 120.518 119.78 119.486 121.027C118.497 122.231 117.702 123.671 117.1 125.348C116.541 127.025 116.261 128.895 116.261 130.959C116.261 132.98 116.519 134.829 117.035 136.506C117.594 138.183 118.347 139.624 119.293 140.828C120.282 142.032 121.464 142.978 122.84 143.666C124.259 144.311 125.807 144.633 127.484 144.633C129.118 144.633 130.623 144.289 131.999 143.601C133.418 142.913 134.665 142.075 135.74 141.086L137.224 143.085C135.891 144.246 134.407 145.214 132.773 145.988C131.139 146.762 129.333 147.149 127.355 147.149Z" fill="#323232"/>
<path d="M152.281 147.149C151.034 147.149 149.873 146.977 148.798 146.633C147.723 146.289 146.777 145.773 145.96 145.085C145.143 144.397 144.498 143.515 144.025 142.44C143.552 141.365 143.316 140.097 143.316 138.635C143.316 135.195 144.907 132.593 148.089 130.83C151.314 129.024 156.387 127.734 163.31 126.961C163.31 125.8 163.224 124.639 163.052 123.478C162.88 122.274 162.515 121.22 161.956 120.317C161.397 119.371 160.644 118.619 159.698 118.06C158.752 117.458 157.505 117.157 155.957 117.157C153.893 117.157 152.002 117.565 150.282 118.382C148.562 119.199 147.164 119.995 146.089 120.769L144.799 118.64C145.358 118.253 146.025 117.823 146.799 117.35C147.616 116.877 148.519 116.447 149.508 116.06C150.497 115.673 151.572 115.351 152.733 115.093C153.893 114.792 155.097 114.641 156.344 114.641C158.15 114.641 159.677 114.964 160.924 115.609C162.171 116.211 163.181 117.049 163.955 118.124C164.729 119.199 165.288 120.468 165.632 121.93C165.976 123.349 166.148 124.897 166.148 126.574V146.375H163.697L163.439 142.376H163.246C161.655 143.623 159.935 144.741 158.086 145.73C156.28 146.676 154.345 147.149 152.281 147.149ZM152.797 144.698C154.603 144.698 156.323 144.268 157.957 143.408C159.591 142.548 161.375 141.301 163.31 139.667V129.153C160.128 129.54 157.441 130.013 155.248 130.572C153.055 131.131 151.292 131.798 149.959 132.572C148.626 133.346 147.659 134.227 147.057 135.216C146.498 136.205 146.218 137.302 146.218 138.506C146.218 139.624 146.39 140.57 146.734 141.344C147.078 142.118 147.551 142.763 148.153 143.279C148.755 143.752 149.443 144.117 150.217 144.375C151.034 144.59 151.894 144.698 152.797 144.698Z" fill="#323232"/>
<path d="M185.963 147.149C183.641 147.149 181.513 146.74 179.578 145.923C177.643 145.063 175.987 144.053 174.611 142.892L176.288 140.763C177.621 141.881 179.04 142.827 180.545 143.601C182.05 144.332 183.921 144.698 186.156 144.698C188.607 144.698 190.435 144.096 191.639 142.892C192.886 141.645 193.509 140.204 193.509 138.57C193.509 137.624 193.273 136.786 192.8 136.055C192.37 135.324 191.789 134.7 191.058 134.184C190.327 133.668 189.51 133.217 188.607 132.83C187.747 132.443 186.866 132.077 185.963 131.733C184.802 131.303 183.62 130.852 182.416 130.379C181.255 129.906 180.201 129.347 179.255 128.702C178.309 128.014 177.535 127.219 176.933 126.316C176.374 125.37 176.095 124.23 176.095 122.897C176.095 121.779 176.31 120.726 176.74 119.737C177.17 118.705 177.815 117.823 178.675 117.092C179.535 116.318 180.567 115.716 181.771 115.286C183.018 114.856 184.458 114.641 186.092 114.641C187.726 114.641 189.317 114.942 190.865 115.544C192.456 116.146 193.81 116.92 194.928 117.866L193.38 119.866C192.348 119.092 191.252 118.447 190.091 117.931C188.93 117.372 187.554 117.092 185.963 117.092C184.759 117.092 183.727 117.264 182.867 117.608C182.007 117.909 181.276 118.318 180.674 118.834C180.115 119.35 179.685 119.952 179.384 120.64C179.126 121.328 178.997 122.016 178.997 122.704C178.997 123.607 179.191 124.381 179.578 125.026C180.008 125.628 180.567 126.165 181.255 126.638C181.943 127.111 182.717 127.541 183.577 127.928C184.48 128.272 185.383 128.616 186.285 128.96C187.489 129.433 188.693 129.906 189.897 130.379C191.101 130.852 192.176 131.432 193.122 132.12C194.111 132.808 194.907 133.668 195.509 134.7C196.111 135.689 196.412 136.936 196.412 138.441C196.412 139.602 196.175 140.72 195.702 141.795C195.272 142.827 194.606 143.752 193.703 144.569C192.8 145.343 191.703 145.966 190.413 146.439C189.123 146.912 187.64 147.149 185.963 147.149Z" fill="#323232"/>
<path d="M268.117 146.375L254.056 103.87H257.217L265.085 128.702C265.902 131.282 266.633 133.668 267.278 135.861C267.966 138.011 268.74 140.376 269.6 142.956H269.858C270.288 141.666 270.675 140.441 271.019 139.28C271.406 138.119 271.772 136.979 272.116 135.861C272.46 134.7 272.804 133.539 273.148 132.378C273.535 131.217 273.922 129.992 274.309 128.702L282.178 103.87H285.209L271.277 146.375H268.117Z" fill="#323232"/>
<path d="M303.173 147.149C301.324 147.149 299.561 146.783 297.884 146.052C296.207 145.321 294.724 144.268 293.434 142.892C292.187 141.516 291.176 139.839 290.402 137.861C289.671 135.84 289.306 133.539 289.306 130.959C289.306 128.379 289.671 126.079 290.402 124.058C291.176 121.994 292.187 120.274 293.434 118.898C294.724 117.522 296.207 116.469 297.884 115.738C299.561 115.007 301.324 114.641 303.173 114.641C305.022 114.641 306.785 115.007 308.462 115.738C310.182 116.469 311.665 117.522 312.912 118.898C314.202 120.274 315.213 121.994 315.944 124.058C316.718 126.079 317.105 128.379 317.105 130.959C317.105 133.539 316.718 135.84 315.944 137.861C315.213 139.839 314.202 141.516 312.912 142.892C311.665 144.268 310.182 145.321 308.462 146.052C306.785 146.783 305.022 147.149 303.173 147.149ZM303.173 144.633C304.721 144.633 306.161 144.311 307.494 143.666C308.87 142.978 310.031 142.032 310.977 140.828C311.966 139.624 312.74 138.183 313.299 136.506C313.858 134.829 314.138 132.98 314.138 130.959C314.138 128.895 313.858 127.025 313.299 125.348C312.74 123.671 311.966 122.231 310.977 121.027C310.031 119.78 308.87 118.834 307.494 118.189C306.161 117.501 304.721 117.157 303.173 117.157C301.625 117.157 300.185 117.501 298.852 118.189C297.519 118.834 296.358 119.78 295.369 121.027C294.423 122.231 293.67 123.671 293.111 125.348C292.552 127.025 292.273 128.895 292.273 130.959C292.273 132.98 292.552 134.829 293.111 136.506C293.67 138.183 294.423 139.624 295.369 140.828C296.358 142.032 297.519 142.978 298.852 143.666C300.185 144.311 301.625 144.633 303.173 144.633Z" fill="#323232"/>
<path d="M331.498 147.149C328.961 147.149 327.693 145.515 327.693 142.247V100H330.531V142.634C330.531 143.322 330.66 143.838 330.918 144.182C331.176 144.483 331.498 144.633 331.885 144.633C332.014 144.633 332.143 144.633 332.272 144.633C332.444 144.633 332.702 144.59 333.046 144.504L333.562 146.826C333.261 146.912 332.96 146.977 332.659 147.02C332.358 147.106 331.971 147.149 331.498 147.149Z" fill="#323232"/>
<path d="M348.094 147.149C345.557 147.149 344.288 145.515 344.288 142.247V100H347.126V142.634C347.126 143.322 347.255 143.838 347.513 144.182C347.771 144.483 348.094 144.633 348.481 144.633C348.61 144.633 348.739 144.633 348.868 144.633C349.04 144.633 349.298 144.59 349.642 144.504L350.158 146.826C349.857 146.912 349.556 146.977 349.255 147.02C348.954 147.106 348.567 147.149 348.094 147.149Z" fill="#323232"/>
<path d="M372.623 147.149C370.645 147.149 368.775 146.783 367.012 146.052C365.292 145.321 363.787 144.268 362.497 142.892C361.207 141.473 360.175 139.774 359.401 137.796C358.67 135.775 358.304 133.496 358.304 130.959C358.304 128.422 358.67 126.144 359.401 124.123C360.175 122.102 361.185 120.403 362.432 119.027C363.722 117.608 365.163 116.533 366.754 115.802C368.388 115.028 370.065 114.641 371.785 114.641C375.483 114.641 378.385 115.888 380.492 118.382C382.599 120.876 383.652 124.402 383.652 128.96C383.652 129.347 383.652 129.734 383.652 130.121C383.652 130.508 383.609 130.895 383.523 131.282H361.207C361.25 133.217 361.551 135.023 362.11 136.7C362.669 138.334 363.443 139.753 364.432 140.957C365.464 142.118 366.689 143.042 368.108 143.73C369.527 144.375 371.118 144.698 372.881 144.698C374.558 144.698 376.063 144.461 377.396 143.988C378.772 143.472 380.04 142.784 381.201 141.924L382.362 144.117C381.115 144.848 379.739 145.536 378.234 146.181C376.772 146.826 374.902 147.149 372.623 147.149ZM361.207 128.96H380.943C380.943 124.961 380.126 121.994 378.492 120.059C376.858 118.081 374.644 117.092 371.849 117.092C370.516 117.092 369.248 117.372 368.044 117.931C366.84 118.447 365.743 119.221 364.754 120.253C363.808 121.285 363.013 122.532 362.368 123.994C361.766 125.456 361.379 127.111 361.207 128.96Z" fill="#323232"/>
<path d="M394.514 147.149C393.783 147.149 393.138 146.891 392.579 146.375C392.02 145.859 391.74 145.149 391.74 144.246C391.74 143.3 392.02 142.569 392.579 142.053C393.138 141.537 393.783 141.279 394.514 141.279C395.245 141.279 395.868 141.537 396.384 142.053C396.943 142.569 397.223 143.3 397.223 144.246C397.223 145.149 396.943 145.859 396.384 146.375C395.868 146.891 395.245 147.149 394.514 147.149Z" fill="#323232"/>
<path d="M408.752 146.375V115.415H411.59V146.375H408.752ZM410.235 107.933C409.504 107.933 408.881 107.697 408.365 107.224C407.892 106.751 407.656 106.149 407.656 105.418C407.656 104.601 407.892 103.977 408.365 103.547C408.881 103.074 409.504 102.838 410.235 102.838C410.966 102.838 411.568 103.074 412.041 103.547C412.557 103.977 412.815 104.601 412.815 105.418C412.815 106.149 412.557 106.751 412.041 107.224C411.568 107.697 410.966 107.933 410.235 107.933Z" fill="#323232"/>
<path d="M436.068 147.149C434.219 147.149 432.456 146.783 430.779 146.052C429.102 145.321 427.619 144.268 426.329 142.892C425.082 141.516 424.071 139.839 423.297 137.861C422.566 135.84 422.201 133.539 422.201 130.959C422.201 128.379 422.566 126.079 423.297 124.058C424.071 121.994 425.082 120.274 426.329 118.898C427.619 117.522 429.102 116.469 430.779 115.738C432.456 115.007 434.219 114.641 436.068 114.641C437.917 114.641 439.68 115.007 441.357 115.738C443.077 116.469 444.561 117.522 445.808 118.898C447.098 120.274 448.108 121.994 448.839 124.058C449.613 126.079 450 128.379 450 130.959C450 133.539 449.613 135.84 448.839 137.861C448.108 139.839 447.098 141.516 445.808 142.892C444.561 144.268 443.077 145.321 441.357 146.052C439.68 146.783 437.917 147.149 436.068 147.149ZM436.068 144.633C437.616 144.633 439.057 144.311 440.39 143.666C441.766 142.978 442.927 142.032 443.873 140.828C444.862 139.624 445.636 138.183 446.195 136.506C446.754 134.829 447.033 132.98 447.033 130.959C447.033 128.895 446.754 127.025 446.195 125.348C445.636 123.671 444.862 122.231 443.873 121.027C442.927 119.78 441.766 118.834 440.39 118.189C439.057 117.501 437.616 117.157 436.068 117.157C434.52 117.157 433.08 117.501 431.747 118.189C430.414 118.834 429.253 119.78 428.264 121.027C427.318 122.231 426.565 123.671 426.006 125.348C425.447 127.025 425.168 128.895 425.168 130.959C425.168 132.98 425.447 134.829 426.006 136.506C426.565 138.183 427.318 139.624 428.264 140.828C429.253 142.032 430.414 142.978 431.747 143.666C433.08 144.311 434.52 144.633 436.068 144.633Z" fill="#323232"/>
<path d="M225.672 155.245C222.576 155.245 219.695 154.729 217.029 153.697C214.406 152.708 212.127 151.246 210.192 149.311C208.257 147.419 206.73 145.097 205.612 142.345C204.537 139.55 204 136.368 204 132.799C204 128.585 204.688 124.78 206.064 121.383C207.483 117.943 209.353 115.019 211.675 112.611C214.04 110.16 216.771 108.289 219.867 106.999C222.963 105.666 226.209 105 229.606 105C232.702 105 235.497 105.494 237.991 106.483C240.528 107.472 242.656 108.87 244.376 110.676C246.139 112.439 247.494 114.589 248.44 117.126C249.386 119.62 249.859 122.393 249.859 125.446C249.859 128.198 249.493 130.628 248.762 132.734C248.031 134.798 247.085 136.54 245.924 137.959C244.763 139.378 243.473 140.453 242.054 141.184C240.678 141.872 239.324 142.216 237.991 142.216C236.271 142.216 234.83 141.829 233.669 141.055C232.551 140.238 231.906 138.991 231.734 137.314H231.605C230.488 138.561 229.262 139.636 227.929 140.539C226.639 141.399 225.242 141.829 223.737 141.829C222.748 141.829 221.802 141.657 220.899 141.313C219.996 140.926 219.2 140.367 218.512 139.636C217.867 138.905 217.351 138.002 216.964 136.927C216.577 135.809 216.384 134.519 216.384 133.057C216.384 131.509 216.642 129.875 217.158 128.155C217.717 126.435 218.512 124.866 219.544 123.447C220.576 122.028 221.823 120.867 223.285 119.964C224.79 119.018 226.489 118.545 228.381 118.545C230.66 118.545 232.444 119.577 233.734 121.641H233.863L234.443 119.061H236.636L234.314 131.251C232.852 137.056 234.142 139.958 238.184 139.958C239.216 139.958 240.27 139.636 241.345 138.991C242.463 138.346 243.452 137.421 244.312 136.217C245.215 134.97 245.946 133.465 246.505 131.703C247.107 129.94 247.408 127.919 247.408 125.64C247.408 122.888 246.978 120.372 246.118 118.093C245.301 115.814 244.118 113.879 242.57 112.288C241.022 110.697 239.13 109.472 236.894 108.612C234.701 107.709 232.207 107.257 229.413 107.257C226.446 107.257 223.586 107.859 220.834 109.063C218.082 110.267 215.631 111.987 213.481 114.223C211.374 116.416 209.676 119.082 208.386 122.221C207.096 125.317 206.451 128.779 206.451 132.605C206.451 135.744 206.924 138.582 207.87 141.119C208.816 143.613 210.127 145.72 211.804 147.44C213.524 149.203 215.567 150.558 217.932 151.504C220.34 152.45 222.984 152.923 225.865 152.923C228.015 152.923 229.972 152.643 231.734 152.084C233.497 151.525 235.153 150.773 236.701 149.827L237.733 151.762C234.035 154.084 230.015 155.245 225.672 155.245ZM224.124 139.507C226.274 139.507 228.596 138.066 231.09 135.185L233.089 124.027C232.315 122.823 231.562 122.006 230.832 121.576C230.144 121.103 229.305 120.867 228.316 120.867C226.854 120.867 225.543 121.254 224.382 122.028C223.221 122.759 222.232 123.705 221.415 124.866C220.641 126.027 220.039 127.317 219.609 128.736C219.179 130.155 218.964 131.531 218.964 132.863C218.964 135.314 219.458 137.034 220.447 138.023C221.436 139.012 222.662 139.507 224.124 139.507Z" fill="#C4C4C4"/>
<path d="M124 185C124 184.448 124.448 184 125 184H195C195.552 184 196 183.552 196 183V172H194V181C194 181.552 193.552 182 193 182H53C52.4477 182 52 181.552 52 181V172H50V183C50 183.552 50.4477 184 51 184H121C121.552 184 122 184.448 122 185V192H124V185Z" fill="#C4C4C4"/>
<path d="M251 60H249V67C249 67.5523 248.552 68 248 68H51C50.4477 68 50 68.4477 50 69V80H52V71C52 70.4477 52.4477 70 53 70H447C447.552 70 448 70.4477 448 71V80H450V69C450 68.4477 449.552 68 449 68H252C251.448 68 251 67.5523 251 67V60Z" fill="#C4C4C4"/>
<path d="M390 185C390 184.448 390.448 184 391 184H449C449.552 184 450 183.552 450 183V172H448V181C448 181.552 447.552 182 447 182H259C258.448 182 258 181.552 258 181V172H256V183C256 183.552 256.448 184 257 184H315C315.552 184 316 184.448 316 185V192H318V185C318 184.448 318.448 184 319 184H351C351.552 184 352 184.448 352 185V192H354V185C354 184.448 354.448 184 355 184H387C387.552 184 388 184.448 388 185V192H390V185Z" fill="#C4C4C4"/>
<defs>
<filter id="filter0_d" x="-3" y="-2" width="506" height="256" filterUnits="userSpaceOnUse" color-interpolation-filters="sRGB">
<feFlood flood-opacity="0" result="BackgroundImageFix"/>
<feColorMatrix in="SourceAlpha" type="matrix" values="0 0 0 0 0 0 0 0 0 0 0 0 0 0 0 0 0 0 127 0"/>
<feOffset dy="1"/>
<feGaussianBlur stdDeviation="1.5"/>
<feColorMatrix type="matrix" values="0 0 0 0 0.196078 0 0 0 0 0.196078 0 0 0 0 0.196078 0 0 0 0.2 0"/>
<feBlend mode="normal" in2="BackgroundImageFix" result="effect1_dropShadow"/>
<feBlend mode="normal" in="SourceGraphic" in2="effect1_dropShadow" result="shape"/>
</filter>
</defs>
</svg>
