<svg xmlns="http://www.w3.org/2000/svg" viewBox="0 0 72 72" enable-background="new 0 0 72 72"><style type="text/css">.st0{fill:url(#SVGID_1_);} .st1{fill:url(#SVGID_2_);} .st2{fill:url(#SVGID_3_);}</style><linearGradient id="SVGID_1_" gradientUnits="userSpaceOnUse" x1="5.971" y1="66.285" x2="64.338" y2="7.42"><stop offset="0" stop-color="#F9ED32"/><stop offset=".723" stop-color="#EE2A7B"/><stop offset="1" stop-color="#002AFF"/></linearGradient><path class="st0" d="M36 12.4c7.6 0 8.5 0 11.5.2 2.8.1 4.3.6 5.3 1 1.3.5 2.3 1.1 3.3 2.2 1 1 1.6 2 2.1 3.3.4 1 .9 2.5 1 5.3.1 3 .2 3.9.2 11.6s0 8.6-.2 11.6c-.1 2.8-.6 4.3-1 5.3-.5 1.3-1.1 2.3-2.1 3.3s-1.9 1.6-3.3 2.2c-1 .4-2.5.9-5.3 1-3 .1-3.9.2-11.5.2s-8.5 0-11.5-.2c-2.8-.1-4.3-.6-5.3-1-1.3-.5-2.3-1.1-3.3-2.2-1-1-1.6-2-2.1-3.3-.4-1-.9-2.5-1-5.3-.1-3-.2-3.9-.2-11.6s0-8.6.2-11.6c.1-2.8.6-4.3 1-5.3.5-1.3 1.1-2.3 2.1-3.3s1.9-1.6 3.3-2.2c1-.4 2.5-.9 5.3-1 3-.2 3.9-.2 11.5-.2m0-5.2c-7.7 0-8.7 0-11.7.2-3 .1-5.1.6-6.9 1.3-1.9.7-3.5 1.7-5 3.3-1.6 1.6-2.5 3.2-3.3 5.1-.7 1.8-1.2 3.9-1.3 7-.2 3.1-.2 4.1-.2 11.9 0 7.8 0 8.8.2 11.9.1 3.1.6 5.2 1.3 7 .7 1.9 1.7 3.5 3.3 5.1 1.6 1.6 3.2 2.6 5 3.3 1.8.7 3.9 1.2 6.9 1.3 3 .1 4 .2 11.7.2s8.7 0 11.7-.2c3-.1 5.1-.6 6.9-1.3 1.9-.7 3.5-1.7 5-3.3 1.6-1.6 2.5-3.2 3.3-5.1.7-1.8 1.2-3.9 1.3-7 .1-3.1.2-4.1.2-11.9s0-8.8-.2-11.9c-.1-3.1-.6-5.2-1.3-7-.7-1.9-1.7-3.5-3.3-5.1-1.6-1.6-3.2-2.6-5-3.3-1.8-.7-3.9-1.2-6.9-1.3-3-.2-4-.2-11.7-.2z"/><linearGradient id="SVGID_2_" gradientUnits="userSpaceOnUse" x1="5.971" y1="66.285" x2="64.338" y2="7.42"><stop offset="0" stop-color="#F9ED32"/><stop offset=".723" stop-color="#EE2A7B"/><stop offset="1" stop-color="#002AFF"/></linearGradient><path class="st1" d="M36 21.2c-8.1 0-14.6 6.6-14.6 14.8s6.5 14.8 14.6 14.8 14.6-6.6 14.6-14.8-6.5-14.8-14.6-14.8zm0 24.4c-5.2 0-9.5-4.3-9.5-9.6s4.2-9.6 9.5-9.6c5.2 0 9.5 4.3 9.5 9.6s-4.3 9.6-9.5 9.6z"/><linearGradient id="SVGID_3_" gradientUnits="userSpaceOnUse" x1="5.929" y1="66.243" x2="64.296" y2="7.379"><stop offset="0" stop-color="#F9ED32"/><stop offset=".723" stop-color="#EE2A7B"/><stop offset="1" stop-color="#002AFF"/></linearGradient><ellipse class="st2" cx="51.2" cy="20.6" rx="3.4" ry="3.5"/></svg>