<svg xmlns="http://www.w3.org/2000/svg" fill="none" viewBox="0 0 24 24"><path fill="#fff" fill-rule="evenodd" d="M11.9391 1.00028c-2.60013.00926-5.11254.94107-7.08985 2.62951-1.9773 1.68844-3.29114 4.02389-3.70754 6.59041-.416392 2.5666.09169 5.1976 1.43376 7.4246 1.34207 2.227 3.43101 3.9053 5.89481 4.7361.54891.0991.76237-.2401.76237-.5298v-1.8678c-3.04947.6632-3.69749-1.4714-3.69749-1.4714-.49935-1.2655-1.21979-1.6048-1.21979-1.6048-.99489-.6823.07624-.6671.07624-.6671.3494.0481.68295.1764.97457.3747.29161.1984.5334.4616.70645.7689.97965 1.6772 2.56918 1.1931 3.19433.911.05208-.5562.29917-1.076.69756-1.4675-2.43576-.2783-4.99732-1.2198-4.99732-5.4243-.01256-1.0928.39708-2.14832 1.14355-2.94655-.33692-.94627-.29873-1.98564.10673-2.90463 0 0 .92247-.29732 3.01898 1.1245 1.79904-.49302 3.69764-.49302 5.49664 0 2.0966-1.42182 3.0152-1.1245 3.0152-1.1245.4056.91877.4451 1.95769.1105 2.90463.7482.79716 1.1581 1.85335 1.1436 2.94655 0 4.2159-2.5654 5.1422-5.0126 5.4166.3812.3393.7624 1.0064.7624 2.0317v3.0114c0 .2935.1982.6366.7624.5298 2.4763-.8317 4.5751-2.5189 5.9195-4.7587 1.3444-2.2399 1.8463-4.8855 1.4156-7.4621-.4306-2.57657-1.7656-4.91523-3.7653-6.59612-1.9997-1.68088-4.5331-2.593888-7.1453-2.5751z" clip-rule="evenodd"/></svg>