<svg xmlns="http://www.w3.org/2000/svg" viewBox="0 0 72 72" enable-background="new 0 0 72 72"><style type="text/css">.st0{fill-rule:evenodd;clip-rule:evenodd;fill:#333333;}</style><path class="st0" d="M36 7.9c-15.9 0-28.8 12.9-28.8 28.8 0 12.7 8.3 23.5 19.7 27.3 1.4.3 2-.6 2-1.4v-4.9c-8 1.7-9.7-3.9-9.7-3.9-1.3-3.3-3.2-4.2-3.2-4.2-2.6-1.8.2-1.8.2-1.8 2.9.2 4.4 3 4.4 3 2.6 4.4 6.7 3.1 8.4 2.4.3-1.9 1-3.1 1.8-3.9-6.4-.7-13.1-3.2-13.1-14.2 0-3.1 1.1-5.7 3-7.7-.3-.7-1.3-3.7.3-7.6 0 0 2.4-.8 7.9 3 2.3-.6 4.8-1 7.2-1 2.4 0 4.9.3 7.2 1 5.5-3.7 7.9-3 7.9-3 1.6 4 .6 6.9.3 7.6 1.8 2 3 4.6 3 7.7 0 11.1-6.7 13.5-13.1 14.2 1 .9 2 2.6 2 5.3v7.9c0 .8.5 1.7 2 1.4 11.4-3.8 19.7-14.6 19.7-27.3-.3-15.8-13.2-28.7-29.1-28.7z"/></svg>