<svg id="Layer_1" data-name="Layer 1" xmlns="http://www.w3.org/2000/svg" width="1in" height="1in" viewBox="0 0 72 72"><defs><style>.cls-1{fill:#b3b3b3;}</style></defs><title>Artboard 1</title><ellipse class="cls-1" cx="45.94" cy="28.8" rx="4.26" ry="4.32"/><ellipse class="cls-1" cx="26.06" cy="28.8" rx="4.26" ry="4.32"/><path class="cls-1" d="M36,7.2A28.58,28.58,0,0,0,7.6,36,28.58,28.58,0,0,0,36,64.8,28.62,28.62,0,0,0,64.4,36,28.62,28.62,0,0,0,36,7.2Zm0,52.87A24.07,24.07,0,1,1,59.74,36,23.9,23.9,0,0,1,36,60.07Z"/><path class="cls-1" d="M36,52.15a16.56,16.56,0,0,0,15.43-10.7h-5a11.91,11.91,0,0,1-20.8,0h-5A16.56,16.56,0,0,0,36,52.15Z"/></svg>