<svg xmlns="http://www.w3.org/2000/svg" viewBox="0 0 72 72" enable-background="new 0 0 72 72"><style type="text/css">.st0{fill:#3F78BD;}</style><path class="st0" d="M60.5 7.2h-49c-2.3 0-4.3 1.9-4.3 4.3v49.1c0 2.3 1.9 4.3 4.3 4.3h49.1c2.3 0 4.3-1.9 4.3-4.3v-49.1c-.1-2.4-2-4.3-4.4-4.3zm-36.1 49.1h-8.7v-27.5h8.7v27.5zm-4.4-31.4c-2.8 0-5-2.1-5-5s2.2-5 5-5 5 2.1 5 5-2.2 5-5 5zm36.3 31.4h-8.7v-15c0-4.4-1.9-5.8-4.3-5.8-2.6 0-5.1 1.9-5.1 5.9v14.9h-8.7v-27.5h8.3v3.8h.2c.8-1.7 3.8-4.6 8.2-4.6 4.8 0 10.1 2.9 10.1 11.3v17z"/></svg>