<svg xmlns="http://www.w3.org/2000/svg" width="96" height="96" viewBox="0 0 72 72"><defs><style>.prefix__cls-1{fill:#b3b3b3}</style></defs><ellipse class="prefix__cls-1" cx="45.94" cy="28.8" rx="4.26" ry="4.32"/><ellipse class="prefix__cls-1" cx="26.06" cy="28.8" rx="4.26" ry="4.32"/><path class="prefix__cls-1" d="M36 7.2A28.58 28.58 0 007.6 36 28.58 28.58 0 0036 64.8 28.62 28.62 0 0064.4 36 28.62 28.62 0 0036 7.2zm0 52.87A24.07 24.07 0 1159.74 36 23.9 23.9 0 0136 60.07zm0-7.92a16.56 16.56 0 0015.43-10.7h-5a11.91 11.91 0 01-20.8 0h-5A16.56 16.56 0 0036 52.15z"/></svg>