<svg xmlns="http://www.w3.org/2000/svg" width="1in" height="1in" viewBox="0 0 72 72"><defs><style>.cls-1{fill:#b3b3b3;fill-rule:evenodd;}</style></defs><title>icon-github</title><path class="cls-1" d="M36 7.91a28.8 28.8 0 0 0-9.1 56.09c1.44.26 2-.63 2-1.39v-4.9c-8 1.74-9.7-3.86-9.7-3.86-1.31-3.32-3.2-4.21-3.2-4.21-2.61-1.79.2-1.75.2-1.75a6 6 0 0 1 4.41 3c2.57 4.4 6.74 3.13 8.38 2.39a6.21 6.21 0 0 1 1.83-3.85c-6.39-.73-13.11-3.2-13.11-14.23a11.13 11.13 0 0 1 3-7.73 10.31 10.31 0 0 1 .28-7.62s2.42-.78 7.92 2.95a27.28 27.28 0 0 1 14.42 0c5.5-3.73 7.91-2.95 7.91-2.95a10.34 10.34 0 0 1 .29 7.62 11.08 11.08 0 0 1 3 7.73c0 11.06-6.73 13.49-13.15 14.21 1 .89 2 2.64 2 5.33v7.9c0 .77.52 1.67 2 1.39a28.81 28.81 0 0 0-9.38-56.12z"/></svg>