<svg xmlns="http://www.w3.org/2000/svg" clip-path="url(#prefix__a)" viewBox="0 0 512 512"><defs><clipPath id="prefix__a" clipPathUnits="objectBoundingBox"><path d="M0 0h512v512H0z"/></clipPath></defs><path fill="#505B45" d="M0 0h512v512H0z"/><path fill="#D7DCDE" fill-opacity=".83" d="M166 199l387 13-28-109z"/><path fill="#AFA48F" fill-opacity=".96" d="M430 211l-471-16 121-47z"/><path fill="#B4AEB7" fill-opacity=".81" d="M251 393l-69-106 39 254z"/><path fill="#A0867A" d="M368 224l-210 10 128 287z"/><path fill="#685B54" d="M329 243L289 92l68 21z"/><path fill="#C5D3EB" fill-opacity=".74" d="M190 362l24 94 36-45z"/><path fill="#CED6E9" fill-opacity=".88" d="M328 347l-27 113-40-46z"/><path fill="#82A94D" fill-opacity=".75" d="M1895 309L335 419l3-222z"/><path fill="#410D23" fill-opacity=".65" d="M254 407l-32 40 59-8z"/><path fill="#4A3F38" d="M180 246l20-108-32 45z"/><path fill="#2C2D2F" fill-opacity=".75" d="M-141 171L436 51l79-671z"/><path fill="#E3EBF5" fill-opacity=".61" d="M315 406l-9-88 20 42z"/><path fill="#FFFCE9" fill-opacity=".53" d="M34 163l4 30 145-15z"/><path fill="#E49993" fill-opacity=".62" d="M246 222l-44-62 114-12z"/><path fill="#E6FAFF" fill-opacity=".88" d="M336 188l206 14-18-84z"/><path fill="#5C0011" fill-opacity=".73" d="M273 550l-44-44 29-114z"/><path fill="#080021" fill-opacity=".52" d="M298 453l173-7 72 829z"/><path fill="#BFCFFF" fill-opacity=".45" d="M271 407l-6 216 41-167z"/><path fill="#79534C" fill-opacity=".71" d="M218 337l71-2-33 90z"/><path fill="#16142D" fill-opacity=".65" d="M258 817l-61-429-158 95z"/><path fill="#7DAB3F" fill-opacity=".49" d="M269 283L4 169l-33 354z"/><path fill="#EEADBC" fill-opacity=".32" d="M192 110l147 4-78-32z"/><path fill="#728D99" fill-opacity=".65" d="M343 166l-8-27 293-63z"/><path fill="#EAACA1" fill-opacity=".5" d="M313 160l-48-2 60 85z"/><path fill="#6E9344" fill-opacity=".9" d="M172 197l-3 187L56 195z"/><path fill="#9C6763" fill-opacity=".9" d="M319 272l-108 73-27-88z"/><path fill="#7F8D6B" fill-opacity=".7" d="M645 444l-329-93 197 140z"/><path fill="#43262B" fill-opacity=".49" d="M310 198l31 31 3-63z"/><path fill="#739C3E" fill-opacity=".87" d="M902 319l-590 17 10-66z"/><path fill="#312663" fill-opacity=".46" d="M329 358l-28 95 179 4z"/><path fill="#FFAAAC" fill-opacity=".41" d="M283 263l67-59-11 65z"/><path fill="#D5A49E" fill-opacity=".71" d="M221 169l99 32-133 9z"/><path fill="#BAAB9F" fill-opacity=".53" d="M282 100l63 38-28-41z"/><path fill="#86BADB" fill-opacity=".43" d="M451 152l107-38-49-30z"/><path fill="#370118" fill-opacity=".31" d="M344 181l-134-69 77-13z"/><path fill="#FDB9BA" fill-opacity=".61" d="M270 265l-44-1 19-38z"/><path fill="#383E3E" fill-opacity=".87" d="M512 87L194-90l150 225z"/><path fill="#DB9CB0" fill-opacity=".45" d="M194 216l-23 55 42-4z"/><path fill="#F2FFFF" fill-opacity=".58" d="M345 203l-2-40 381-12z"/><path fill="#FDA5DF" fill-opacity=".22" d="M211 93l-34 48 57-3z"/><path fill="#120B2A" fill-opacity=".56" d="M320 522l-28-6 11-45z"/><path fill="#480016" fill-opacity=".34" d="M325 215l-157-5 115 31z"/><path fill="#7876FB" fill-opacity=".31" d="M66 445l134-92-146 73z"/><path fill="#361B1F" fill-opacity=".58" d="M293 145l10-30-128 45z"/><path fill="#000202" fill-opacity=".28" d="M48-64l-189 258 219-48z"/><path fill="#737081" fill-opacity=".62" d="M486 35l183 64L472-54z"/><path fill="#F2BBA7" fill-opacity=".19" d="M281 142l-24 74 68-64z"/><path fill="#3B3F55" fill-opacity=".67" d="M61 429l-21 60 166-84z"/><path fill="#49110E" fill-opacity=".42" d="M293 297l-62-10 55 2z"/><path fill="#908569" fill-opacity=".67" d="M125 149l-81 3-33 24z"/><path fill="#615B5C" fill-opacity=".6" d="M115 123l59 52 31-27z"/><path fill="#47292A" fill-opacity=".46" d="M171 169l-2 35 118-99z"/><path fill="#AD9FFB" fill-opacity=".26" d="M-134 183l164-9 34 23z"/><path fill="#C9928A" fill-opacity=".83" d="M290 313l-79 14 62 8z"/><path fill="#401B1A" fill-opacity=".55" d="M226 298l-15-8 21-3z"/><path fill="#001738" fill-opacity=".21" d="M461 72l36 42-39 26z"/><path fill="#D5DDD1" fill-opacity=".55" d="M114 194l61-10-68-25z"/><path fill="#6D6A5E" fill-opacity=".28" d="M271 137L167-262 152 63z"/><path fill="#CBEEFF" fill-opacity=".34" d="M422 114l33 13-51 81z"/><path fill="#485252" fill-opacity=".56" d="M420 110l-12 33-109-12z"/><path fill="#E0B6AD" fill-opacity=".58" d="M320 218l-27-66-36 41z"/><path fill="#92B289" fill-opacity=".6" d="M559 202l-228-2 142 14z"/><path fill="#E4FFF9" fill-opacity=".21" d="M168 210l-36-42 40-10z"/><path fill="#788651" fill-opacity=".85" d="M460 393l31 167 123-209z"/><path fill="#9A4739" fill-opacity=".36" d="M300 319l-52-93 62 58z"/><path fill="#4C1925" fill-opacity=".34" d="M243 224l-73-10 64 34z"/><path fill="#C4F6EB" fill-opacity=".29" d="M225 294l29 7 19-9z"/><path fill="#FDDDFC" fill-opacity=".25" d="M208 328l-9-17-6 73z"/><path fill="#6C777F" fill-opacity=".73" d="M322 331l59 81-57-31z"/><path fill="#617143" fill-opacity=".89" d="M60 424l-191 11 168 90z"/><path fill="#38302B" fill-opacity=".83" d="M169 183l25 64-15-66z"/><path fill="#212229" fill-opacity=".73" d="M67 452l157 63-185 2z"/><path fill="#DEB9AD" fill-opacity=".51" d="M322 220l-2 69-26-34z"/><path fill="#4C523A" fill-opacity=".45" d="M96 155l43 10 15-26z"/><path fill="#8C96F7" fill-opacity=".3" d="M432 429l44 9-158-89z"/><path fill="#948EA5" fill-opacity=".8" d="M231 511l-61 64 63-88z"/><path fill="#323631" fill-opacity=".68" d="M188 127l-128-8 133-89z"/><path fill="#C99196" fill-opacity=".46" d="M166 248l69-11-45 45z"/><path fill="#270E00" fill-opacity=".25" d="M319 110l5 130 15 11z"/><path fill="#FDC0C1" fill-opacity=".3" d="M286 286h-32l19-18z"/><path fill="#87839B" fill-opacity=".57" d="M222 445l12 24 13-37z"/><path fill="#DDC0B6" fill-opacity=".34" d="M286 93l-31 4-3-15z"/><path fill="#B97D6D" fill-opacity=".38" d="M286 180l-49 1 13-44z"/><path fill="#360504" fill-opacity=".32" d="M229 268l14 14 28-13z"/><path fill="#B98B8D" fill-opacity=".54" d="M226 273l17 12-23 1z"/><path fill="#9EA084" fill-opacity=".57" d="M166 170l-26-12 17-1z"/><path fill="#597082" fill-opacity=".53" d="M484 108l11-21 72-25z"/><path fill="#6F7587" fill-opacity=".54" d="M301 458l-29-29-11 14z"/><path fill="#3E2D26" fill-opacity=".63" d="M306 155l26-18-8-10z"/><path fill="#9B796D" fill-opacity=".62" d="M191 329l29 62 27-32z"/><path fill="#69902B" fill-opacity=".23" d="M425 414l82-228 293 118z"/><path fill="#8D7062" fill-opacity=".63" d="M196 237l-7-16 25-17z"/><path fill="#384346" fill-opacity=".47" d="M399 106l119-58-35 70z"/><path fill="#FFF6E3" fill-opacity=".46" d="M75 190l-11-25-42 22z"/><path fill="#2B1D23" fill-opacity=".54" d="M250 138l-1-17-27 9z"/><path fill="#709148" fill-opacity=".85" d="M196 356L69 394l117-125z"/><path fill="#FFF1ED" fill-opacity=".23" d="M298 355l26 26-12-77z"/><path fill="#FF9FA8" fill-opacity=".28" d="M258 232l10 31 33-19z"/><path fill="#7F9D52" fill-opacity=".82" d="M353 371l-39-35 79-14z"/><path fill="#500C06" fill-opacity=".3" d="M227 266l-21-2-1 29z"/><path fill="#595859" fill-opacity=".37" d="M121 157l-184-26 235-12z"/><path fill="#4F141D" fill-opacity=".75" d="M253 409l-20 71 39-52z"/><path fill="#BDA099" fill-opacity=".76" d="M180 266l5-45 10 39z"/><path fill="#C59A90" fill-opacity=".45" d="M223 295l23 44-32-15z"/><path fill="#E4ECF8" fill-opacity=".9" d="M320 389l-8-56 11 23z"/><path fill="#B3A298" fill-opacity=".71" d="M306 103l-47-19 68 38z"/><path fill="#AD7168" fill-opacity=".35" d="M177 199l139-53-104 9z"/><path fill="#901E33" fill-opacity=".62" d="M251 477l11-34 7 46z"/><path fill="#555357" fill-opacity=".53" d="M272 28l-123 1L271-7z"/><path fill="#B81920" fill-opacity=".49" d="M342 236l3-19-9 5z"/><path fill="#AAAAC2" fill-opacity=".65" d="M210 450l10 58 14-50z"/><path fill="#100F14" fill-opacity=".46" d="M438 463l-122 92 166-48z"/><path fill="#473330" fill-opacity=".94" d="M323 219l-49-12-46 22z"/><path fill="#B6746A" fill-opacity=".63" d="M171 207l16 64-22-42z"/><path fill="#BC938B" fill-opacity=".55" d="M190 180l28 25-33 6z"/><path fill="#D3F8FF" fill-opacity=".35" d="M510 196l14-120-38 58z"/><path fill="#3E2824" fill-opacity=".74" d="M312 220l-10 27 5-32z"/><path fill="#35282B" fill-opacity=".73" d="M180 142l6 8 12-9z"/><path fill="#389403" fill-opacity=".16" d="M6 343l183-66-256-114z"/><path fill="#FF8283" fill-opacity=".28" d="M228 306l59 8 10-19z"/><path fill="#1D1B19" fill-opacity=".46" d="M284 110l15 23-45 17z"/><path fill="#D5E5F5" fill-opacity=".5" d="M202 331l-5 64-4-36z"/><path fill="#8D6769" fill-opacity=".43" d="M232 138l3-36-28 41z"/><path fill="#0B0904" fill-opacity=".27" d="M182 183l19-11-27-21z"/><path fill="#976D65" fill-opacity=".56" d="M304 376l-5-82-54 126z"/><path fill="#414761" fill-opacity=".62" d="M193 360l-4 75-101-10z"/><path fill="#9393A3" fill-opacity=".94" d="M302 470l-22 66 37-143z"/><path fill="#AD6563" fill-opacity=".5" d="M176 276l64-32-16 21z"/><path fill="#B2C9C4" fill-opacity=".36" d="M427 177l-9 30 26-16z"/><path fill="#B3B8D1" fill-opacity=".51" d="M296 452l-13 84-22-93z"/><path fill="#82221F" fill-opacity=".22" d="M233 312l38-6-7 16z"/><path fill="#F7F7FF" fill-opacity=".39" d="M277 432l24 22 6-41z"/><path fill="#88B2C7" fill-opacity=".33" d="M465 116l25 37-86-24z"/><path fill="#5B4B4A" fill-opacity=".99" d="M213 124l21-7-22-6z"/><path fill="#BEC1D4" fill-opacity=".79" d="M277 397l39 9-58 8z"/><path fill="#5B7482" fill-opacity=".41" d="M408 129l19-30 22 16z"/><path fill="#7FAD60" fill-opacity=".31" d="M169 239l-98-50 99 5z"/><path fill="#34353B" fill-opacity=".62" d="M325 369l57 126-80-27z"/><path fill="#BCDEF0" fill-opacity=".42" d="M423 152l58 3-55-30z"/><path fill="#1C221D" fill-opacity=".48" d="M107 19L84 119l-725 16z"/><path fill="#4F3429" fill-opacity=".41" d="M280 340l-23 23-29-22z"/><path fill="#CED9D5" fill-opacity=".36" d="M132 195l38-3-17-35z"/><path fill="#321E24" fill-opacity=".55" d="M237 240l-9 8 16-29z"/><path fill="#575240" fill-opacity=".23" d="M311 119l-10 45 52 42z"/><path fill="#623437" fill-opacity=".32" d="M217 166l-31-29 67 15z"/><path fill="#A5C1C7" fill-opacity=".39" d="M352 167l6-26 63 10z"/><path fill="#B36967" fill-opacity=".36" d="M277 198l-24 24-40-19z"/><path fill="#6E993A" fill-opacity=".62" d="M316 294l190 14-193 15z"/><path fill="#321A1D" fill-opacity=".58" d="M246 221l9 2 7 27z"/><path fill="#A7928D" fill-opacity=".52" d="M298 111l8 12 29-7z"/></svg>