<svg id="Layer_1" data-name="Layer 1" xmlns="http://www.w3.org/2000/svg" width="1in" height="1in" viewBox="0 0 72 72"><defs><style>.cls-1{fill:#b3b3b3;}</style></defs><title>icon-twitter</title><g id="Logo_FIXED" data-name="Logo — FIXED"><path class="cls-1" d="M26,60.75c21.74,0,33.63-18.28,33.63-34.1,0-.52,0-1,0-1.55a24.39,24.39,0,0,0,5.9-6.21,23.81,23.81,0,0,1-6.8,1.89,12,12,0,0,0,5.21-6.64A23.37,23.37,0,0,1,56.42,17a11.73,11.73,0,0,0-8.62-3.79A11.92,11.92,0,0,0,36,25.24a13.77,13.77,0,0,0,.3,2.74A33.38,33.38,0,0,1,11.91,15.45a12.15,12.15,0,0,0,3.66,16A11.88,11.88,0,0,1,10.22,30v.17A12,12,0,0,0,19.7,41.89a11.39,11.39,0,0,1-3.11.42,11.61,11.61,0,0,1-2.22-.21,11.86,11.86,0,0,0,11,8.32,23.51,23.51,0,0,1-14.68,5.14,21.86,21.86,0,0,1-2.81-.17A33.24,33.24,0,0,0,26,60.75"/></g></svg>